<svg xmlns="http://www.w3.org/2000/svg" xmlns:xlink="http://www.w3.org/1999/xlink" xmlns:inkscape="http://www.inkscape.org/namespaces/inkscape" version="1.1" width="1207.56" height="442.208" viewBox="0 0 1207.56 442.208">
<defs>
<clipPath id="clip_1">
<path transform="matrix(1,0,0,-1,0,442.208)" d="M0 442.208H1207.558V0H0Z"/>
</clipPath>
</defs>
<g inkscape:groupmode="layer" inkscape:label="Calque 1">
<g clip-path="url(#clip_1)">
<path transform="matrix(1,0,0,-1,97.7727,92.509708)" d="M0 0H-2.478V-254.215H58.689C58.722-254.215 62.574-254.167 62.574-254.167 84.925-253.904 93.289-253.805 114.634-240.341 134.28-227.934 146.484-205.289 146.484-181.242 146.484-152.492 132.249-129.765 107.484-118.034 124.342-104.94 132.992-88.355 132.992-68.587 132.992-46.637 121.322-25.296 102.535-12.891 85.406-1.806 79.214 0 58.352 0ZM51.269-135.598 54.022-135.596C68.039-135.579 71.807-135.574 85.236-140.245 101.572-145.977 111.555-160.433 111.276-177.966 111.554-191.246 103.015-205.33 90.974-211.637 77.274-218.637 71.428-218.521 55.804-218.21 55.804-218.21 39.134-218.207 32.394-218.207V-135.598ZM53.967-36.007 54.192-36.002C67.687-35.392 70.12-35.282 81.806-42.354 91.243-48.183 98.12-59.987 98.12-70.398 98.12-81.925 91.428-93.508 81.848-98.564 69.835-105.141 67.395-105.138 53.849-105.127 53.849-105.127 38.935-105.125 32.394-105.125V-36.007Z" fill="#231f20"/>
<path transform="matrix(1,0,0,-1,1112.5039,94.57132)" d="M0 0H-43.512L-105.121-92.464-166.731 0H-210.241L-126.876-125.115-210.096-250.012H-166.586L-105.121-157.767-43.657-250.012H-.145L-83.365-125.115Z" fill="#231f20"/>
<path transform="matrix(1,0,0,-1,722.5039,283.5041)" d="M0 0H-40.506C-58.235-20-84.192-32.853-113.086-32.853-129.021-32.853-144.202-28.977-157.629-22.052-137.617 .786-125.498 30.481-125.498 62.956-125.498 93.826-136.814 123.025-157.569 146.31-144.597 153.017-129.926 156.926-114.384 157.228-113.94 157.167-113.547 157.057-113.086 157.057-84.303 157.057-57.993 144-40.105 124H0ZM-185.324-1.002C-200.652 15.679-210.097 37.476-210.097 60.958-210.097 85.462-200.718 107.887-185.318 124.918-170.057 108.24-160.653 86.452-160.653 62.982-160.653 38.423-169.992 15.993-185.324-1.002M-257.325-33.016C-309.91-33.016-354.335 10.018-354.335 60.958-354.335 113.319-311.517 156.189-258.622 157.218-258.179 157.157-257.785 156.956-257.325 156.956-241.522 156.956-226.462 153.037-213.129 146.173-233.142 123.323-245.264 93.549-245.264 61.029-245.264 30.188-233.914 .96-213.1-22.365-226.36-29.169-241.398-33.016-257.325-33.016M0 189V128.546C-6 137.808-12.755 146.431-20.979 154.268-46.108 178.212-78.932 191.351-113.434 191.351-139.988 191.351-164.719 183.524-185.434 170.127-206.88 183.919-231.801 191.315-257.66 191.315-330.362 191.315-389.504 132.883-389.504 61.049-389.504 28.571-376.918-2-353.946-26H-436V189H-472V-61H-352V-28.405C-351-29.015-350.568-29.624-349.938-30.224-325.173-53.82-291.512-67.354-257.756-67.354-231.068-67.354-206.158-59.509-185.359-46.046-163.912-59.766-138.754-67.193-113.476-67.193-65.298-67.193-23-41.534 0-3.406V-60.741L36-60.643V189Z" fill="#231f20"/>
<path transform="matrix(1,0,0,-1,802.8242,219.524)" d="M0 0 95.363 125.02H51.851L-43.51 .02 51.851-124.98H95.363Z" fill="#231f20"/>
</g>
</g>
</svg>
