<?xml version="1.0" encoding="UTF-8" standalone="no"?>
<!-- Created with Inkscape (http://www.inkscape.org/) -->

<svg
   version="1.1"
   id="svg1"
   width="339.888"
   height="86.4524"
   viewBox="0 0 339.888 86.4524"
   sodipodi:docname="Calligraphe.ai"
   xmlns:inkscape="http://www.inkscape.org/namespaces/inkscape"
   xmlns:sodipodi="http://sodipodi.sourceforge.net/DTD/sodipodi-0.dtd"
   xmlns="http://www.w3.org/2000/svg"
   xmlns:svg="http://www.w3.org/2000/svg">
  <defs
     id="defs1">
    <clipPath
       clipPathUnits="userSpaceOnUse"
       id="clipPath2">
      <path
         d="M 0,64.839 H 254.916 V 0 H 0 Z"
         transform="translate(-227.5195,-13.929501)"
         id="path2" />
    </clipPath>
    <clipPath
       clipPathUnits="userSpaceOnUse"
       id="clipPath4">
      <path
         d="M 0,64.839 H 254.916 V 0 H 0 Z"
         transform="translate(-34.134801,-7.1957004)"
         id="path4" />
    </clipPath>
    <clipPath
       clipPathUnits="userSpaceOnUse"
       id="clipPath6">
      <path
         d="M 0,64.839 H 254.916 V 0 H 0 Z"
         transform="translate(-76.662699,-41.813001)"
         id="path6" />
    </clipPath>
    <clipPath
       clipPathUnits="userSpaceOnUse"
       id="clipPath8">
      <path
         d="M 0,64.839 H 254.916 V 0 H 0 Z"
         transform="translate(-88.119505,-22.752501)"
         id="path8" />
    </clipPath>
    <clipPath
       clipPathUnits="userSpaceOnUse"
       id="clipPath10">
      <path
         d="M 0,64.839 H 254.916 V 0 H 0 Z"
         transform="translate(-95.532602,-22.752501)"
         id="path10" />
    </clipPath>
    <clipPath
       clipPathUnits="userSpaceOnUse"
       id="clipPath12">
      <path
         d="M 0,64.839 H 254.916 V 0 H 0 Z"
         transform="translate(-102.95271,-22.752501)"
         id="path12" />
    </clipPath>
    <clipPath
       clipPathUnits="userSpaceOnUse"
       id="clipPath14">
      <path
         d="M 0,64.839 H 254.916 V 0 H 0 Z"
         transform="translate(-110.3658,-22.752501)"
         id="path14" />
    </clipPath>
    <clipPath
       clipPathUnits="userSpaceOnUse"
       id="clipPath16">
      <path
         d="M 0,64.839 H 254.916 V 0 H 0 Z"
         transform="translate(-130.04301,-22.594201)"
         id="path16" />
    </clipPath>
    <clipPath
       clipPathUnits="userSpaceOnUse"
       id="clipPath18">
      <path
         d="M 0,64.839 H 254.916 V 0 H 0 Z"
         transform="translate(-142.8006,-36.962001)"
         id="path18" />
    </clipPath>
    <clipPath
       clipPathUnits="userSpaceOnUse"
       id="clipPath20">
      <path
         d="M 0,64.839 H 254.916 V 0 H 0 Z"
         transform="translate(-160.8886,-22.752501)"
         id="path20" />
    </clipPath>
    <clipPath
       clipPathUnits="userSpaceOnUse"
       id="clipPath22">
      <path
         d="M 0,64.839 H 254.916 V 0 H 0 Z"
         transform="translate(-173.34831,-36.654801)"
         id="path22" />
    </clipPath>
    <clipPath
       clipPathUnits="userSpaceOnUse"
       id="clipPath24">
      <path
         d="M 0,64.839 H 254.916 V 0 H 0 Z"
         transform="translate(-193.1653,-36.962001)"
         id="path24" />
    </clipPath>
    <clipPath
       clipPathUnits="userSpaceOnUse"
       id="clipPath26">
      <path
         d="M 0,64.839 H 254.916 V 0 H 0 Z"
         transform="translate(-207.20701,-29.209401)"
         id="path26" />
    </clipPath>
    <clipPath
       clipPathUnits="userSpaceOnUse"
       id="clipPath28">
      <path
         d="M 0,64.839 H 254.916 V 0 H 0 Z"
         transform="translate(-34.018101,-57.656201)"
         id="path28" />
    </clipPath>
    <clipPath
       clipPathUnits="userSpaceOnUse"
       id="clipPath30">
      <path
         d="M 0,64.839 H 254.916 V 0 H 0 Z"
         transform="translate(-227.5195,-13.929501)"
         id="path30" />
    </clipPath>
    <linearGradient
       x1="0"
       y1="0"
       x2="1"
       y2="0"
       gradientUnits="userSpaceOnUse"
       gradientTransform="matrix(-8.8429918,38.922562,-38.922562,-8.8429918,132.7879,21.485788)"
       spreadMethod="pad"
       id="linearGradient32">
      <stop
         style="stop-opacity:1;stop-color:#7c7a95"
         offset="0"
         id="stop30" />
      <stop
         style="stop-opacity:1;stop-color:#7c7a95"
         offset="0.14831281"
         id="stop31" />
      <stop
         style="stop-opacity:1;stop-color:#222568"
         offset="1"
         id="stop32" />
    </linearGradient>
    <linearGradient
       x1="0"
       y1="0"
       x2="1"
       y2="0"
       gradientUnits="userSpaceOnUse"
       gradientTransform="matrix(-8.8429918,38.922562,-38.922562,-8.8429918,73.922562,8.0969448)"
       spreadMethod="pad"
       id="linearGradient34">
      <stop
         style="stop-opacity:1;stop-color:#ffffff"
         offset="0"
         id="stop33" />
      <stop
         style="stop-opacity:1;stop-color:#ffffff"
         offset="1"
         id="stop34" />
    </linearGradient>
    <linearGradient
       x1="0"
       y1="0"
       x2="1"
       y2="0"
       gradientUnits="userSpaceOnUse"
       gradientTransform="matrix(-8.8429918,38.922562,-38.922562,-8.8429918,91.162559,12.025598)"
       spreadMethod="pad"
       id="linearGradient36">
      <stop
         style="stop-opacity:1;stop-color:#ffffff"
         offset="0"
         id="stop35" />
      <stop
         style="stop-opacity:1;stop-color:#ffffff"
         offset="1"
         id="stop36" />
    </linearGradient>
    <linearGradient
       x1="0"
       y1="0"
       x2="1"
       y2="0"
       gradientUnits="userSpaceOnUse"
       gradientTransform="matrix(-8.8429918,38.922562,-38.922562,-8.8429918,106.90404,15.595284)"
       spreadMethod="pad"
       id="linearGradient38">
      <stop
         style="stop-opacity:1;stop-color:#ffffff"
         offset="0"
         id="stop37" />
      <stop
         style="stop-opacity:1;stop-color:#ffffff"
         offset="1"
         id="stop38" />
    </linearGradient>
    <linearGradient
       x1="0"
       y1="0"
       x2="1"
       y2="0"
       gradientUnits="userSpaceOnUse"
       gradientTransform="matrix(-8.8429918,38.922562,-38.922562,-8.8429918,113.80223,17.153036)"
       spreadMethod="pad"
       id="linearGradient40">
      <stop
         style="stop-opacity:1;stop-color:#ffffff"
         offset="0"
         id="stop39" />
      <stop
         style="stop-opacity:1;stop-color:#ffffff"
         offset="1"
         id="stop40" />
    </linearGradient>
    <linearGradient
       x1="0"
       y1="0"
       x2="1"
       y2="0"
       gradientUnits="userSpaceOnUse"
       gradientTransform="matrix(-8.8429918,38.922562,-38.922562,-8.8429918,119.8192,18.530539)"
       spreadMethod="pad"
       id="linearGradient42">
      <stop
         style="stop-opacity:1;stop-color:#ffffff"
         offset="0"
         id="stop41" />
      <stop
         style="stop-opacity:1;stop-color:#ffffff"
         offset="1"
         id="stop42" />
    </linearGradient>
    <linearGradient
       x1="0"
       y1="0"
       x2="1"
       y2="0"
       gradientUnits="userSpaceOnUse"
       gradientTransform="matrix(-8.8429918,38.922562,-38.922562,-8.8429918,129.66006,20.773453)"
       spreadMethod="pad"
       id="linearGradient44">
      <stop
         style="stop-opacity:1;stop-color:#ffffff"
         offset="0"
         id="stop43" />
      <stop
         style="stop-opacity:1;stop-color:#ffffff"
         offset="1"
         id="stop44" />
    </linearGradient>
    <linearGradient
       x1="0"
       y1="0"
       x2="1"
       y2="0"
       gradientUnits="userSpaceOnUse"
       gradientTransform="matrix(-8.8429918,38.922562,-38.922562,-8.8429918,146.13971,24.507801)"
       spreadMethod="pad"
       id="linearGradient46">
      <stop
         style="stop-opacity:1;stop-color:#ffffff"
         offset="0"
         id="stop45" />
      <stop
         style="stop-opacity:1;stop-color:#ffffff"
         offset="1"
         id="stop46" />
    </linearGradient>
    <linearGradient
       x1="0"
       y1="0"
       x2="1"
       y2="0"
       gradientUnits="userSpaceOnUse"
       gradientTransform="matrix(-8.8429918,38.922562,-38.922562,-8.8429918,158.94432,27.423206)"
       spreadMethod="pad"
       id="linearGradient48">
      <stop
         style="stop-opacity:1;stop-color:#ffffff"
         offset="0"
         id="stop47" />
      <stop
         style="stop-opacity:1;stop-color:#ffffff"
         offset="1"
         id="stop48" />
    </linearGradient>
    <linearGradient
       x1="0"
       y1="0"
       x2="1"
       y2="0"
       gradientUnits="userSpaceOnUse"
       gradientTransform="matrix(-8.8429918,38.922562,-38.922562,-8.8429918,43.136349,1.1056007)"
       spreadMethod="pad"
       id="linearGradient51">
      <stop
         style="stop-opacity:1;stop-color:#b1b1bc"
         offset="0"
         id="stop49" />
      <stop
         style="stop-opacity:1;stop-color:#b1b1bc"
         offset="0.09876621"
         id="stop50" />
      <stop
         style="stop-opacity:1;stop-color:#74718f"
         offset="1"
         id="stop51" />
    </linearGradient>
    <linearGradient
       x1="0"
       y1="0"
       x2="1"
       y2="0"
       gradientUnits="userSpaceOnUse"
       gradientTransform="matrix(-8.8429918,38.922562,-38.922562,-8.8429918,193.34744,35.251621)"
       spreadMethod="pad"
       id="linearGradient54">
      <stop
         style="stop-opacity:1;stop-color:#7c7a95"
         offset="0"
         id="stop52" />
      <stop
         style="stop-opacity:1;stop-color:#7c7a95"
         offset="0.14831281"
         id="stop53" />
      <stop
         style="stop-opacity:1;stop-color:#222568"
         offset="1"
         id="stop54" />
    </linearGradient>
    <linearGradient
       x1="0"
       y1="0"
       x2="1"
       y2="0"
       gradientUnits="userSpaceOnUse"
       gradientTransform="matrix(-8.8429918,38.922562,-38.922562,-8.8429918,177.35791,31.612768)"
       spreadMethod="pad"
       id="linearGradient56">
      <stop
         style="stop-opacity:1;stop-color:#ffffff"
         offset="0"
         id="stop55" />
      <stop
         style="stop-opacity:1;stop-color:#ffffff"
         offset="1"
         id="stop56" />
    </linearGradient>
    <linearGradient
       x1="0"
       y1="0"
       x2="1"
       y2="0"
       gradientUnits="userSpaceOnUse"
       gradientTransform="matrix(-8.8429918,38.922562,-38.922562,-8.8429918,196.71092,36.01305)"
       spreadMethod="pad"
       id="linearGradient58">
      <stop
         style="stop-opacity:1;stop-color:#ffffff"
         offset="0"
         id="stop57" />
      <stop
         style="stop-opacity:1;stop-color:#ffffff"
         offset="1"
         id="stop58" />
    </linearGradient>
    <linearGradient
       x1="0"
       y1="0"
       x2="1"
       y2="0"
       gradientUnits="userSpaceOnUse"
       gradientTransform="matrix(-8.8429918,38.922562,-38.922562,-8.8429918,211.89914,39.46302)"
       spreadMethod="pad"
       id="linearGradient60">
      <stop
         style="stop-opacity:1;stop-color:#ffffff"
         offset="0"
         id="stop59" />
      <stop
         style="stop-opacity:1;stop-color:#ffffff"
         offset="1"
         id="stop60" />
    </linearGradient>
    <linearGradient
       x1="0"
       y1="0"
       x2="1"
       y2="0"
       gradientUnits="userSpaceOnUse"
       gradientTransform="matrix(-8.8429918,38.922562,-38.922562,-8.8429918,47.634251,2.117943)"
       spreadMethod="pad"
       id="linearGradient62">
      <stop
         style="stop-opacity:1;stop-color:#ffffff"
         offset="0"
         id="stop61" />
      <stop
         style="stop-opacity:1;stop-color:#ffffff"
         offset="1"
         id="stop62" />
    </linearGradient>
  </defs>
  <sodipodi:namedview
     id="namedview1"
     pagecolor="#ffffff"
     bordercolor="#000000"
     borderopacity="0.25"
     inkscape:showpageshadow="2"
     inkscape:pageopacity="0.0"
     inkscape:pagecheckerboard="0"
     inkscape:deskcolor="#d1d1d1">
    <inkscape:page
       x="0"
       y="0"
       inkscape:label="1"
       id="page1"
       width="339.888"
       height="86.4524"
       margin="0 33.218666 0 32.201466"
       bleed="0" />
  </sodipodi:namedview>
  <g
     id="layer-MC0"
     inkscape:groupmode="layer"
     inkscape:label="Calque 1">
    <path
       id="path1"
       d="m 0,0 c 0,-3.704 -3.028,-6.734 -6.73,-6.734 h -186.656 c -3.701,0 -6.734,3.03 -6.734,6.734 v 36.985 c 0,3.709 3.033,6.73 6.734,6.73 H -6.73 c 3.702,0 6.73,-3.021 6.73,-6.73 z"
       style="fill:#212467;fill-opacity:1;fill-rule:nonzero;stroke:none"
       transform="matrix(1.3333333,0,0,-1.3333333,303.35933,67.879733)"
       clip-path="url(#clipPath2)" />
    <path
       id="path3"
       d="M 0,0 C -3.701,0 -6.737,3.031 -6.737,6.735 V 43.72 c 0,0 -0.163,5.743 6.173,6.741 h 0.474 c 0,0 -0.474,-0.204 -0.875,-0.495 -0.396,-0.297 -1.04,-0.958 -1.04,-0.958 L -3.162,45.963 -2.734,42.342 19.234,0.017 Z"
       style="fill:#74718f;fill-opacity:1;fill-rule:nonzero;stroke:none"
       transform="matrix(1.3333333,0,0,-1.3333333,45.513067,76.858133)"
       clip-path="url(#clipPath4)" />
    <path
       id="path5"
       d="m 0,0 c -1.789,2.258 -4.231,3.364 -7.49,3.364 -5.303,0 -10.147,-4.244 -11.542,-10.164 -1.378,-5.884 1.249,-9.209 7.257,-9.209 2.712,0 4.703,0.615 7.16,2.219 l -1.643,-4.464 c -2.982,-0.999 -4.744,-1.303 -7.182,-1.303 -7.417,0 -11.257,5.191 -9.464,12.796 1.845,7.872 8.75,13.675 16.206,13.675 3.184,0 5.478,-0.763 8.176,-2.79 z"
       style="fill:#ffffff;fill-opacity:1;fill-rule:nonzero;stroke:none"
       transform="matrix(1.3333333,0,0,-1.3333333,102.21693,30.701733)"
       clip-path="url(#clipPath6)" />
    <path
       id="path7"
       d="m 0,0 h -3.733 l 0.593,1.672 c -2.127,-1.519 -3.548,-2.056 -5.437,-2.056 -4.241,0 -6.443,3.133 -5.4,7.566 1.213,5.157 5.439,8.751 10.302,8.751 2.275,0 3.58,-0.653 4.812,-2.408 l 0.749,2.02 h 3.73 z m -10.171,7.335 c -0.654,-2.754 0.668,-4.662 3.142,-4.662 2.817,0 5.653,2.521 6.397,5.692 0.617,2.596 -0.78,4.506 -3.298,4.506 -2.778,0 -5.502,-2.403 -6.241,-5.536"
       style="fill:#ffffff;fill-opacity:1;fill-rule:nonzero;stroke:none"
       transform="matrix(1.3333333,0,0,-1.3333333,117.49267,56.115733)"
       clip-path="url(#clipPath8)" />
    <path
       id="path9"
       d="M 0,0 H -3.728 L 6.363,27.852 h 3.723 z"
       style="fill:#ffffff;fill-opacity:1;fill-rule:nonzero;stroke:none"
       transform="matrix(1.3333333,0,0,-1.3333333,127.3768,56.115733)"
       clip-path="url(#clipPath10)" />
    <path
       id="path11"
       d="M 0,0 H -3.728 L 6.36,27.852 h 3.726 z"
       style="fill:#ffffff;fill-opacity:1;fill-rule:nonzero;stroke:none"
       transform="matrix(1.3333333,0,0,-1.3333333,137.27027,56.115733)"
       clip-path="url(#clipPath12)" />
    <path
       id="path13"
       d="M 0,0 H -3.723 L 1.903,15.545 H 5.629 Z M 8.594,22.957 C 8.339,21.888 7.23,21.01 6.127,21.01 c -1.179,0 -1.862,0.919 -1.59,2.059 0.231,0.994 1.386,1.915 2.402,1.915 1.149,0 1.912,-0.921 1.655,-2.027"
       style="fill:#ffffff;fill-opacity:1;fill-rule:nonzero;stroke:none"
       transform="matrix(1.3333333,0,0,-1.3333333,147.1544,56.115733)"
       clip-path="url(#clipPath14)" />
    <path
       id="path15"
       d="m 0,0 c -1.203,-3.281 -2.068,-4.773 -3.551,-6.074 -1.888,-1.676 -4.37,-2.556 -7.075,-2.556 -2.673,0 -4.86,0.88 -6.007,2.367 -0.924,1.22 -1.065,2.44 -0.504,4.856 h 3.617 c -0.484,-2.912 0.51,-4.168 3.337,-4.168 3.057,0 4.955,1.529 6.195,4.965 l 0.785,2.178 c -2.081,-1.337 -3.488,-1.794 -5.486,-1.794 -4.241,0 -6.647,3.283 -5.611,7.68 1.171,4.963 5.718,8.637 10.667,8.637 2.313,0 3.514,-0.578 4.88,-2.296 l 0.68,1.908 h 3.729 z m -10.521,7.527 c -0.659,-2.824 0.702,-4.696 3.526,-4.696 3.106,0 5.853,2.326 6.611,5.539 0.654,2.793 -0.865,4.659 -3.694,4.659 -2.946,0 -5.692,-2.328 -6.443,-5.502"
       style="fill:#ffffff;fill-opacity:1;fill-rule:nonzero;stroke:none"
       transform="matrix(1.3333333,0,0,-1.3333333,173.39067,56.3268)"
       clip-path="url(#clipPath16)" />
    <path
       id="path17"
       d="M 0,0 C 1.769,1.337 2.768,1.76 4.263,1.76 5.556,1.76 6.2,1.492 7.031,0.535 L 3.942,-2.443 c -0.595,0.649 -1.086,0.88 -1.835,0.88 -1.92,0 -3.162,-1.419 -4.447,-4.892 l -2.812,-7.755 h -3.721 l 5.616,15.547 h 3.726 z"
       style="fill:#ffffff;fill-opacity:1;fill-rule:nonzero;stroke:none"
       transform="matrix(1.3333333,0,0,-1.3333333,190.4008,37.169733)"
       clip-path="url(#clipPath18)" />
    <path
       id="path19"
       d="m 0,0 h -3.733 l 0.595,1.672 c -2.126,-1.519 -3.545,-2.056 -5.427,-2.056 -4.245,0 -6.447,3.133 -5.407,7.566 1.218,5.157 5.434,8.751 10.307,8.751 2.272,0 3.57,-0.653 4.805,-2.408 l 0.753,2.02 h 3.731 z m -10.169,7.335 c -0.641,-2.754 0.676,-4.662 3.145,-4.662 2.827,0 5.656,2.521 6.402,5.692 0.612,2.598 -0.78,4.506 -3.296,4.506 -2.783,0 -5.509,-2.403 -6.251,-5.536"
       style="fill:#ffffff;fill-opacity:1;fill-rule:nonzero;stroke:none"
       transform="matrix(1.3333333,0,0,-1.3333333,214.51813,56.115733)"
       clip-path="url(#clipPath20)" />
    <path
       id="path21"
       d="m 0,0 c 2.117,1.495 3.58,2.032 5.583,2.032 4.277,0 6.649,-3.254 5.623,-7.646 -1.144,-4.851 -5.733,-8.672 -10.409,-8.672 -2.391,0 -3.655,0.649 -5.04,2.596 l -4.025,-11.114 h -3.733 l 8.854,24.447 h 3.725 z m -2.428,-6.647 c -0.629,-2.673 0.809,-4.581 3.512,-4.581 2.875,0 5.595,2.403 6.321,5.497 0.649,2.754 -0.697,4.7 -3.21,4.7 -3.024,0 -5.867,-2.403 -6.623,-5.616"
       style="fill:#ffffff;fill-opacity:1;fill-rule:nonzero;stroke:none"
       transform="matrix(1.3333333,0,0,-1.3333333,231.13107,37.579333)"
       clip-path="url(#clipPath22)" />
    <path
       id="path23"
       d="m 0,0 c 1.949,1.259 3.271,1.723 4.958,1.723 3.106,0 4.771,-1.757 4.168,-4.319 C 8.975,-3.247 8.74,-4.049 8.365,-4.999 L 5.06,-14.21 H 1.283 l 3.442,9.434 c 0.15,0.457 0.294,0.921 0.388,1.337 0.329,1.337 -0.398,2.102 -2.014,2.102 -2.392,0 -4.134,-1.567 -5.272,-4.739 L -5.147,-14.21 H -8.881 L 1.205,13.642 h 3.731 z"
       style="fill:#ffffff;fill-opacity:1;fill-rule:nonzero;stroke:none"
       transform="matrix(1.3333333,0,0,-1.3333333,257.55373,37.169733)"
       clip-path="url(#clipPath24)" />
    <path
       id="path25"
       d="m 0,0 c -0.452,-2.409 0.885,-3.901 3.47,-3.901 1.731,0 3.257,0.649 4.46,1.911 l 2.421,-1.529 c -2.52,-2.562 -4.579,-3.434 -7.828,-3.434 -4.795,0 -7.24,3.13 -6.113,7.906 1.15,4.89 5.68,8.632 10.553,8.632 4.708,0 6.939,-3.208 5.74,-8.287 C 12.638,1.028 12.487,0.571 12.358,0 Z m 9.286,2.938 c 0.168,2.406 -0.884,3.59 -3.242,3.59 -2.274,0 -3.92,-1.14 -5.12,-3.59 z"
       style="fill:#ffffff;fill-opacity:1;fill-rule:nonzero;stroke:none"
       transform="matrix(1.3333333,0,0,-1.3333333,276.276,47.506533)"
       clip-path="url(#clipPath26)" />
    <path
       id="path27"
       d="m 0,0 h 0.027 c -3.259,-1.303 -7.131,-12.504 10.905,-9.894 0,0 -2.307,-17.953 8.419,-40.55 0,0 -19.927,37.461 -21.764,40.975 C -4.251,-5.954 -3.643,-1.619 0,0"
       style="fill:#ffffff;fill-opacity:1;fill-rule:nonzero;stroke:none"
       transform="matrix(1.3333333,0,0,-1.3333333,45.357467,9.5774667)"
       clip-path="url(#clipPath28)" />
    <path
       id="path29"
       d="M 0,0 H -0.304 C -0.311,-3.534 -3.198,-6.423 -6.73,-6.428 h -186.656 c -3.531,0.005 -6.423,2.894 -6.431,6.428 v 36.985 c 0.008,3.539 2.897,6.419 6.431,6.426 H -6.73 c 3.532,-0.007 6.419,-2.887 6.426,-6.426 L -0.304,0 H 0 0.304 v 36.985 c 0,3.879 -3.165,7.034 -7.034,7.034 h -186.656 c -3.871,0 -7.038,-3.155 -7.041,-7.034 V 0 c 0.003,-3.874 3.17,-7.038 7.041,-7.038 H -6.73 c 3.869,0 7.034,3.164 7.034,7.038 z"
       style="fill:#ffffff;fill-opacity:1;fill-rule:nonzero;stroke:none"
       transform="matrix(1.3333333,0,0,-1.3333333,303.35933,67.879733)"
       clip-path="url(#clipPath30)" />
    <path
       id="path32"
       d="m 34.387,56.165 c -0.845,-0.059 -1.649,-0.275 -2.379,-0.62 v 0 c -1.606,-3.06 -1.207,-8.175 8.011,-8.175 v 0 c 1.424,0 3.06,0.121 4.931,0.393 v 0 c 0,0 -0.549,-4.275 0.136,-11.272 v 0 c 3.181,-0.046 6.214,-0.117 9.017,-0.18 v 0 c 2.251,7.223 8.812,12.417 15.86,12.417 v 0 c 3.186,0 5.48,-0.763 8.176,-2.79 v 0 l -1.475,-4.125 c -1.791,2.258 -4.234,3.364 -7.494,3.364 v 0 c -4.928,0 -9.46,-3.667 -11.196,-8.941 v 0 c 1.553,-0.027 3.009,-0.044 4.35,-0.044 v 0 c 5.1,0 10.111,-0.168 15.073,-0.43 v 0 c 1.894,1.837 4.375,2.924 7.048,2.924 v 0 c 2.273,0 3.58,-0.654 4.811,-2.409 v 0 l 0.748,2.022 h 3.73 l -1.285,-3.56 c 1.198,-0.093 2.401,-0.19 3.599,-0.284 v 0 l 5.847,16.149 h 3.724 L 99.667,34.17 c 1.198,-0.095 2.397,-0.187 3.592,-0.28 v 0 l 6.054,16.714 h 3.725 L 106.89,33.623 c 1.198,-0.085 2.396,-0.167 3.597,-0.246 v 0 l 1.782,4.922 h 3.725 l -1.864,-5.147 c 0.926,-0.054 1.852,-0.102 2.78,-0.149 v 0 c 1.947,3.398 5.6,5.683 9.5,5.683 v 0 c 2.314,0 3.515,-0.581 4.881,-2.297 v 0 l 0.678,1.91 h 3.73 l -2.062,-5.721 c 1.27,-0.017 2.546,-0.037 3.819,-0.054 v 0 l 2.085,5.775 h 3.729 l -0.469,-1.337 c 1.767,1.337 2.768,1.758 4.26,1.758 v 0 c 1.296,0 1.939,-0.266 2.771,-1.222 v 0 l -3.089,-2.98 c -0.598,0.651 -1.086,0.879 -1.835,0.879 v 0 c -1.506,0 -2.596,-0.875 -3.619,-2.93 v 0 c 2.156,-0.027 4.319,-0.059 6.478,-0.086 v 0 c 1.795,3.811 5.397,6.305 9.459,6.305 v 0 c 2.271,0 3.567,-0.654 4.802,-2.409 v 0 l 0.755,2.022 h 3.729 l -2.173,-6.015 c 1.227,0.003 2.459,0.007 3.691,0.02 v 0 l 2.171,5.995 h 3.726 l -0.579,-1.643 c 2.117,1.495 3.578,2.03 5.583,2.03 v 0 c 3.718,0 5.997,-2.46 5.854,-5.991 v 0 c 1.051,0.043 2.103,0.092 3.152,0.143 v 0 l 6.433,17.766 h 3.731 l -4.936,-13.642 c 1.95,1.259 3.272,1.724 4.958,1.724 v 0 c 3.106,0 4.771,-1.76 4.168,-4.319 v 0 l -0.131,-0.528 c 0.326,0.033 0.654,0.066 0.975,0.096 v 0 c 0.79,0.077 1.565,0.154 2.335,0.235 v 0 c 2.032,2.785 5.284,4.625 8.7,4.625 v 0 c 2.816,0 4.745,-1.147 5.583,-3.152 v 0 c 1.738,0.165 3.432,0.308 5.089,0.43 v 0 14.453 c -0.447,3.043 -2.982,5.427 -6.092,5.639 v 0 z m 80.516,-10.341 c 0.23,0.991 1.385,1.912 2.401,1.912 v 0 c 1.147,0 1.913,-0.921 1.653,-2.027 v 0 c -0.253,-1.069 -1.358,-1.947 -2.465,-1.947 v 0 c -1.179,0 -1.862,0.919 -1.589,2.062 m 36.754,-13.486 c 2.916,-0.03 5.836,-0.049 8.754,-0.057 v 0 c 0.005,1.987 -1.32,3.343 -3.438,3.343 v 0 c -2.067,0 -4.103,-1.323 -5.316,-3.286 m -30.882,0.495 c 2.35,-0.089 4.715,-0.15 7.089,-0.179 v 0 c 0.642,-0.008 1.283,-0.017 1.922,-0.024 v 0 c -0.187,1.844 -1.601,2.994 -3.823,2.994 v 0 c -2.014,0 -3.935,-1.087 -5.188,-2.791 m -37.938,2.604 c 1.052,-0.066 2.097,-0.139 3.145,-0.215 v 0 c -0.504,0.258 -1.104,0.402 -1.791,0.402 v 0 c -0.458,0 -0.912,-0.064 -1.354,-0.187"
       transform="matrix(1.3333333,0,0,-1.3333333,0,86.4524)"
       style="fill:url(#linearGradient32);stroke:none" />
    <path
       id="path34"
       d="M 69.353,48.713 C 62.538,48.426 56.288,43.328 54.103,36.311 v 0 c 1.346,-0.027 2.641,-0.054 3.871,-0.075 v 0 c 1.736,5.274 6.268,8.941 11.196,8.941 v 0 c 3.26,0 5.703,-1.106 7.494,-3.364 v 0 l 1.458,4.076 v 0.063 c -2.486,1.864 -4.635,2.654 -7.459,2.761 v 0 z"
       transform="matrix(1.3333333,0,0,-1.3333333,0,86.4524)"
       style="fill:url(#linearGradient34);stroke:none" />
    <path
       id="path36"
       d="m 83.986,38.676 c -2.498,-0.119 -4.805,-1.184 -6.589,-2.914 v 0 c 1.816,-0.098 3.629,-0.204 5.44,-0.325 v 0 c 0.442,0.123 0.896,0.187 1.354,0.187 v 0 c 0.687,0 1.287,-0.144 1.791,-0.402 v 0 c 2.16,-0.153 4.316,-0.315 6.467,-0.483 v 0 l 1.264,3.499 v 0.061 h -3.709 l -0.748,-2.022 c -1.141,1.626 -2.346,2.306 -4.325,2.399 v 0 z"
       transform="matrix(1.3333333,0,0,-1.3333333,0,86.4524)"
       style="fill:url(#linearGradient36);stroke:none" />
    <path
       id="path38"
       d="M 101.891,50.589 96.048,34.455 c 1.208,-0.093 2.414,-0.19 3.619,-0.285 v 0 l 5.923,16.356 v 0.061 l -0.001,0.002 z"
       transform="matrix(1.3333333,0,0,-1.3333333,0,86.4524)"
       style="fill:url(#linearGradient38);stroke:none" />
    <path
       id="path40"
       d="M 109.308,50.589 103.259,33.89 c 1.21,-0.092 2.418,-0.181 3.631,-0.267 v 0 l 6.117,16.896 v 0.07 z"
       transform="matrix(1.3333333,0,0,-1.3333333,0,86.4524)"
       style="fill:url(#linearGradient40);stroke:none" />
    <path
       id="path42"
       d="m 117.093,47.724 c -0.961,-0.117 -1.974,-0.977 -2.19,-1.9 v 0 c -0.273,-1.143 0.41,-2.062 1.589,-2.062 v 0 c 1.107,0 2.212,0.878 2.465,1.947 v 0 c 0.24,1.031 -0.404,1.898 -1.42,2.015 v 0 z m -4.824,-9.425 -1.782,-4.922 c 1.215,-0.08 2.43,-0.155 3.643,-0.225 v 0 l 1.864,5.147 z"
       transform="matrix(1.3333333,0,0,-1.3333333,0,86.4524)"
       style="fill:url(#linearGradient42);stroke:none" />
    <path
       id="path44"
       d="m 125.944,38.676 c -3.723,-0.175 -7.165,-2.411 -9.034,-5.673 v 0 c 1.286,-0.063 2.574,-0.121 3.865,-0.17 v 0 c 1.253,1.704 3.174,2.791 5.188,2.791 v 0 c 2.222,0 3.636,-1.15 3.823,-2.994 v 0 c 1.286,-0.016 2.567,-0.035 3.851,-0.052 v 0 l 2.024,5.612 v 0.109 h -3.692 l -0.678,-1.91 c -1.259,1.582 -2.377,2.199 -4.358,2.287 v 0 z"
       transform="matrix(1.3333333,0,0,-1.3333333,0,86.4524)"
       style="fill:url(#linearGradient44);stroke:none" />
    <path
       id="path46"
       d="m 146.665,38.71 c -1.285,-0.073 -2.257,-0.532 -3.864,-1.748 v 0 l 0.469,1.337 h -3.729 l -2.085,-5.775 c 1.276,-0.019 2.555,-0.038 3.833,-0.057 v 0 c 1.023,2.055 2.113,2.93 3.619,2.93 v 0 c 0.749,0 1.237,-0.228 1.835,-0.879 v 0 l 3.045,2.938 v 0.092 c -0.716,0.809 -1.302,1.103 -2.309,1.162 v 0 z"
       transform="matrix(1.3333333,0,0,-1.3333333,0,86.4524)"
       style="fill:url(#linearGradient46);stroke:none" />
    <path
       id="path48"
       d="m 156.761,38.676 c -3.872,-0.182 -7.267,-2.63 -8.994,-6.295 v 0 c 1.297,-0.017 2.595,-0.029 3.89,-0.043 v 0 c 1.213,1.963 3.249,3.286 5.316,3.286 v 0 c 2.118,0 3.443,-1.356 3.438,-3.343 v 0 c 0.584,0 1.167,-0.002 1.75,-0.002 v 0 c 0.727,0 1.449,0.002 2.178,0.005 v 0 l 2.124,5.881 v 0.134 h -3.68 l -0.755,-2.022 c -1.145,1.626 -2.341,2.306 -4.316,2.399 v 0 z"
       transform="matrix(1.3333333,0,0,-1.3333333,0,86.4524)"
       style="fill:url(#linearGradient48);stroke:none" />
    <path
       id="path51"
       d="m 31.279,55.141 c -1.84,-1.178 -3.067,-3.239 -3.067,-5.574 v 0 -13.221 c 3.225,0.126 6.435,0.181 9.565,0.189 v 0 0.005 C 34.686,42.363 32.2,47.053 31.604,48.189 v 0 c -1.2,2.296 -1.358,4.943 -0.306,6.952 v 0 z"
       transform="matrix(1.3333333,0,0,-1.3333333,0,86.4524)"
       style="fill:url(#linearGradient51);stroke:none" />
    <path
       id="path54"
       d="m 212.914,35.728 c -1.128,-0.058 -2.093,-0.413 -2.923,-1.089 v 0 c 1.832,0.192 3.609,0.382 5.341,0.562 v 0 0.05 c -0.447,0.283 -1.028,0.44 -1.74,0.477 v 0 z M 192.02,33.064 c 2.09,0.126 4.174,0.272 6.254,0.44 v 0 l 0.005,0.019 c 0.328,1.335 -0.401,2.101 -2.015,2.101 v 0 c -1.76,0 -3.169,-0.846 -4.244,-2.56 m -20.106,-0.717 c 3.002,0.041 6.003,0.11 8.992,0.204 v 0 c -0.124,1.862 -1.38,3.073 -3.363,3.073 v 0 c -2.228,0 -4.36,-1.303 -5.629,-3.277"
       transform="matrix(1.3333333,0,0,-1.3333333,0,86.4524)"
       style="fill:url(#linearGradient54);stroke:none" />
    <path
       id="path56"
       d="m 178.452,38.676 c -1.767,-0.083 -3.16,-0.647 -5.104,-2.02 v 0 l 0.579,1.643 h -3.726 l -2.171,-5.994 0.001,-10e-4 c 1.295,0.007 2.588,0.024 3.883,0.043 v 0 c 1.269,1.974 3.401,3.277 5.629,3.277 v 0 c 1.983,0 3.239,-1.211 3.363,-3.073 v 0 c 1.295,0.042 2.586,0.09 3.879,0.144 v 0 c 0.139,3.395 -1.963,5.799 -5.431,5.981 v 0 z"
       transform="matrix(1.3333333,0,0,-1.3333333,0,86.4524)"
       style="fill:url(#linearGradient56);stroke:none" />
    <path
       id="path58"
       d="m 194.363,50.589 -6.426,-17.75 v -10e-4 c 1.362,0.068 2.725,0.143 4.083,0.226 v 0 c 1.075,1.714 2.484,2.56 4.244,2.56 v 0 c 1.614,0 2.343,-0.766 2.015,-2.101 v 0 l -0.005,-0.019 c 1.3,0.105 2.593,0.216 3.886,0.335 v 0 l 0.131,0.528 c 0.603,2.559 -1.062,4.319 -4.168,4.319 v 0 c -1.686,0 -3.008,-0.465 -4.958,-1.724 v 0 l 4.931,13.627 z"
       transform="matrix(1.3333333,0,0,-1.3333333,0,86.4524)"
       style="fill:url(#linearGradient58);stroke:none" />
    <path
       id="path60"
       d="m 213.717,38.783 c -3.25,-0.153 -6.305,-1.951 -8.247,-4.613 v 0 c 1.546,0.153 3.05,0.314 4.521,0.469 v 0 c 0.913,0.741 1.99,1.098 3.261,1.098 v 0 c 0.907,0 1.621,-0.174 2.146,-0.529 v 0 c 1.461,0.153 2.89,0.296 4.288,0.427 v 0 0.163 c -0.822,1.799 -2.56,2.868 -5.051,2.985 v 0 z"
       transform="matrix(1.3333333,0,0,-1.3333333,0,86.4524)"
       style="fill:url(#linearGradient60);stroke:none" />
    <path
       id="path62"
       d="m 31.972,55.528 c -0.229,-0.111 -0.449,-0.236 -0.664,-0.37 v 0 c -1.062,-2.012 -0.909,-4.668 0.296,-6.969 v 0 C 32.2,47.051 34.686,42.36 37.78,36.535 v 0 c 0.379,0.002 0.759,0.002 1.138,0.002 v 0 c 2.1,0 4.158,-0.019 6.16,-0.046 v 0 0.068 C 44.403,43.517 44.95,47.763 44.95,47.763 v 0 C 43.079,47.491 41.443,47.37 40.019,47.37 v 0 c -9.202,0 -9.615,5.095 -8.02,8.158 v 0 z"
       transform="matrix(1.3333333,0,0,-1.3333333,0,86.4524)"
       style="fill:url(#linearGradient62);stroke:none" />
  </g>
</svg>
