<?xml version="1.0" encoding="UTF-8" standalone="no"?>
<!-- Created with Inkscape (http://www.inkscape.org/) -->

<svg
   version="1.1"
   id="svg1"
   width="529.1333"
   height="264.57333"
   viewBox="0 0 529.1333 264.57333"
   sodipodi:docname="CERNT-logo.ai"
   xmlns:inkscape="http://www.inkscape.org/namespaces/inkscape"
   xmlns:sodipodi="http://sodipodi.sourceforge.net/DTD/sodipodi-0.dtd"
   xmlns="http://www.w3.org/2000/svg"
   xmlns:svg="http://www.w3.org/2000/svg">
  <defs
     id="defs1">
    <clipPath
       clipPathUnits="userSpaceOnUse"
       id="clipPath2">
      <path
         d="M 0,198.43 H 396.85 V 0 H 0 Z"
         transform="translate(-210.064,-66.265002)"
         id="path2" />
    </clipPath>
    <clipPath
       clipPathUnits="userSpaceOnUse"
       id="clipPath4">
      <path
         d="M 0,198.43 H 396.85 V 0 H 0 Z"
         transform="translate(-189.70491,-86.984405)"
         id="path4" />
    </clipPath>
    <clipPath
       clipPathUnits="userSpaceOnUse"
       id="clipPath6">
      <path
         d="M 0,198.43 H 396.85 V 0 H 0 Z"
         transform="translate(-289.34121,-138.4511)"
         id="path6" />
    </clipPath>
    <clipPath
       clipPathUnits="userSpaceOnUse"
       id="clipPath8">
      <path
         d="M 0,198.43 H 396.85 V 0 H 0 Z"
         transform="translate(-83.3656,-67.597902)"
         id="path8" />
    </clipPath>
    <clipPath
       clipPathUnits="userSpaceOnUse"
       id="clipPath10">
      <path
         d="M 0,198.43 H 396.85 V 0 H 0 Z"
         transform="translate(-107.7076,-99.144702)"
         id="path10" />
    </clipPath>
    <clipPath
       clipPathUnits="userSpaceOnUse"
       id="clipPath12">
      <path
         d="M 0,198.43 H 396.85 V 0 H 0 Z"
         transform="translate(-374.48951,-131.7933)"
         id="path12" />
    </clipPath>
    <clipPath
       clipPathUnits="userSpaceOnUse"
       id="clipPath14">
      <path
         d="M 0,198.43 H 396.85 V 0 H 0 Z"
         transform="translate(-304.52151,-125.1008)"
         id="path14" />
    </clipPath>
    <clipPath
       clipPathUnits="userSpaceOnUse"
       id="clipPath16">
      <path
         d="M 0,198.43 H 396.85 V 0 H 0 Z"
         transform="translate(-317.49161,-124.9642)"
         id="path16" />
    </clipPath>
  </defs>
  <sodipodi:namedview
     id="namedview1"
     pagecolor="#ffffff"
     bordercolor="#000000"
     borderopacity="0.25"
     inkscape:showpageshadow="2"
     inkscape:pageopacity="0.0"
     inkscape:pagecheckerboard="0"
     inkscape:deskcolor="#d1d1d1">
    <inkscape:page
       x="0"
       y="0"
       inkscape:label="1"
       id="page1"
       width="529.1333"
       height="264.57333"
       margin="78.594536 29.813334 69.129333 38.114265"
       bleed="0" />
  </sodipodi:namedview>
  <g
     id="layer-MC0"
     inkscape:groupmode="layer"
     inkscape:label="Calque 1">
    <path
       id="path1"
       d="m 0,0 -0.059,41.536 c 0,17.629 23.199,24.908 31.383,6.844 L 49.656,9.009 C 50.88,6.304 54.12,5.828 54.12,9.992 L 54.062,58.836 H 68.159 L 68.216,10.001 C 68.216,-7.608 45.072,-14.896 36.86,3.092 L 18.502,42.529 c -1.226,2.705 -4.464,3.18 -4.464,-0.982 L 14.097,0.02 C 14.11,-9.376 0.014,-9.396 0,0"
       style="fill:#231f20;fill-opacity:1;fill-rule:evenodd;stroke:none"
       transform="matrix(1.3333333,0,0,-1.3333333,280.08533,176.22)"
       clip-path="url(#clipPath2)" />
    <path
       id="path3"
       d="m 0,0 8.798,-17.544 c 4.267,-8.371 -8.29,-14.771 -12.557,-6.397 l -10.575,21.164 c -2.596,6.181 -1.229,8.61 4.828,12.411 l 0.847,0.497 c 2.937,1.907 4.846,3.911 4.846,7.413 0,3.543 -2.819,6.34 -6.28,6.34 H -25.88 v -44.592 c 0,-9.396 -14.096,-9.396 -14.096,0 v 51.64 c 0,3.038 1.478,5.094 3.474,6.168 0.995,0.553 2.208,0.88 3.638,0.88 h 22.771 C 1.234,37.98 10.281,28.79 10.281,17.544 10.281,9.955 6.141,3.528 0,0"
       style="fill:#231f20;fill-opacity:1;fill-rule:evenodd;stroke:none"
       transform="matrix(1.3333333,0,0,-1.3333333,252.93987,148.59413)"
       clip-path="url(#clipPath4)" />
    <path
       id="path5"
       d="m 0,0 c 0,4.491 3.642,8.132 8.134,8.132 4.492,0 8.131,-3.641 8.131,-8.132 0,-4.491 -3.639,-8.132 -8.131,-8.132 C 3.642,-8.132 0,-4.491 0,0"
       style="fill:#231f20;fill-opacity:1;fill-rule:evenodd;stroke:none"
       transform="matrix(1.3333333,0,0,-1.3333333,385.78827,79.971867)"
       clip-path="url(#clipPath6)" />
    <path
       id="path7"
       d="m 0,0 c -5.81,-5.198 -13.499,-8.369 -21.913,-8.369 -18.152,0 -32.867,14.714 -32.867,32.868 0,18.152 14.715,32.867 32.867,32.867 8.363,0 15.968,-3.13 21.826,-8.202 7.104,-6.151 -2.122,-16.807 -9.226,-10.656 -3.46,2.995 -7.836,4.763 -12.6,4.763 -10.367,0 -18.771,-8.404 -18.771,-18.772 0,-10.367 8.404,-18.773 18.771,-18.773 4.813,0 9.187,1.802 12.513,4.779 C -2.398,16.773 7.002,6.268 0,0"
       style="fill:#231f20;fill-opacity:1;fill-rule:evenodd;stroke:none"
       transform="matrix(1.3333333,0,0,-1.3333333,111.15413,174.4428)"
       clip-path="url(#clipPath8)" />
    <path
       id="path9"
       d="m 0,0 h 26.025 c 9.396,0 9.396,-14.096 0,-14.096 H 0 v -11.725 h 26.025 c 9.396,0 9.396,-14.095 0,-14.095 H -7.048 c -2.11,0 -3.746,0.711 -4.909,1.818 -1.286,1.174 -2.139,2.917 -2.139,5.23 v 51.64 c 0,2.071 0.687,3.686 1.757,4.844 1.164,1.31 2.907,2.188 5.229,2.203 h 33.135 c 9.396,0 9.396,-14.095 0,-14.095 L 0,11.724 Z"
       style="fill:#231f20;fill-opacity:1;fill-rule:evenodd;stroke:none"
       transform="matrix(1.3333333,0,0,-1.3333333,143.61013,132.3804)"
       clip-path="url(#clipPath10)" />
    <path
       id="path11"
       d="M 0,0 C 0,2.362 -1.915,4.276 -4.275,4.276 -6.64,4.276 -8.553,2.362 -8.553,0 c 0,-2.363 1.913,-4.277 4.278,-4.277 C -1.915,-4.277 0,-2.363 0,0 m -0.673,0 c 0,-2.009 -1.619,-3.651 -3.602,-3.651 -1.986,0 -3.593,1.642 -3.593,3.651 0,2.008 1.607,3.65 3.593,3.65 1.983,0 3.602,-1.642 3.602,-3.65 m -1.808,-2.34 -1.121,1.997 c 0.578,0.177 1.004,0.603 1.004,1.288 0,0.791 -0.662,1.405 -1.478,1.405 H -5.67 v -4.69 h 0.65 v 1.914 h 0.707 L -3.237,-2.34 Z M -3.26,0.945 C -3.26,0.472 -3.627,0.13 -4.146,0.13 H -5.02 v 1.641 h 0.874 c 0.519,0 0.886,-0.354 0.886,-0.826"
       style="fill:#231f20;fill-opacity:1;fill-rule:evenodd;stroke:none"
       transform="matrix(1.3333333,0,0,-1.3333333,499.31933,88.848933)"
       clip-path="url(#clipPath12)" />
    <path
       id="path13"
       d="m 0,0 v -58.825 c 0,-9.396 -14.096,-9.396 -14.096,0 V 0 Z"
       style="fill:#231f20;fill-opacity:1;fill-rule:evenodd;stroke:none"
       transform="matrix(1.3333333,0,0,-1.3333333,406.02867,97.772267)"
       clip-path="url(#clipPath14)" />
    <path
       id="path15"
       d="M 0,0 20.784,-0.001 41.597,0 c 9.398,0 9.398,-14.096 0,-14.096 h -13.75 v -44.592 c 0,-9.396 -14.097,-9.396 -14.097,0 v 44.592 H 0 C -9.396,-14.096 -9.396,0 0,0"
       style="fill:#231f20;fill-opacity:1;fill-rule:evenodd;stroke:none"
       transform="matrix(1.3333333,0,0,-1.3333333,423.32213,97.9544)"
       clip-path="url(#clipPath16)" />
  </g>
</svg>
