<svg xmlns="http://www.w3.org/2000/svg" xmlns:xlink="http://www.w3.org/1999/xlink" xmlns:inkscape="http://www.inkscape.org/namespaces/inkscape" version="1.1" width="283.465" height="283.465" viewBox="0 0 283.465 283.465">
<defs>
<clipPath id="clip_1">
<path transform="matrix(1,0,0,-1,0,283.465)" d="M0 283.465H283.465V0H0Z"/>
</clipPath>
</defs>
<g inkscape:groupmode="layer" inkscape:label="Calque 1">
<g clip-path="url(#clip_1)">
<path transform="matrix(1,0,0,-1,225.5389,124.6568)" d="M0 0C1.11 0 2.059-.393 2.847-1.179 3.636-1.965 4.031-2.907 4.031-4.01 4.031-5.124 3.636-6.078 2.847-6.869 2.059-7.66 1.11-8.053 0-8.053-1.112-8.053-2.059-7.66-2.845-6.869-3.631-6.078-4.024-5.124-4.024-4.01-4.024-2.9-3.633-1.953-2.85-1.172-2.066-.391-1.115 0 0 0M0-7.314C.916-7.314 1.697-6.991 2.344-6.344 2.993-5.699 3.317-4.92 3.317-4.01 3.317-3.104 2.993-2.327 2.344-1.682 1.697-1.035 .916-.712 0-.712-.906-.712-1.683-1.035-2.33-1.682-2.974-2.327-3.298-3.104-3.298-4.01-3.298-4.925-2.977-5.704-2.332-6.349-1.687-6.993-.911-7.314 0-7.314M2.052-6.169H1.093L-.041-4.45H-.561V-6.169H-1.407V-1.819H-.041C.417-1.819 .793-1.934 1.088-2.164 1.385-2.394 1.531-2.706 1.531-3.096 1.531-3.638 1.253-4.021 .7-4.242ZM-.561-3.755H-.108C.439-3.755 .712-3.545 .712-3.123 .712-2.725 .453-2.524-.067-2.524H-.561Z" fill="#231f20"/>
<path transform="matrix(1,0,0,-1,214.7956,124.317)" d="M0 0H-6.725C-7.465 0-8.07-.605-8.07-1.345V-33.515C-8.07-34.255-7.465-34.86-6.725-34.86H0C.74-34.86 1.345-34.255 1.345-33.515V-1.345C1.345-.605 .74 0 0 0" fill="#231f20"/>
<path transform="matrix(1,0,0,-1,202.2513,124.317)" d="M0 0H-7.437C-8.177 0-9.005-.563-9.277-1.251L-16.384-19.231C-16.656-19.919-17.071-19.908-17.306-19.206L-23.297-1.312C-23.532-.61-24.329-.036-25.069-.036H-31.967C-32.707-.036-33.12-.61-32.885-1.312L-29.747-10.684C-29.512-11.386-29.541-12.523-29.811-13.212L-32.101-19.052C-32.352-19.693-32.745-19.735-33.009-19.181-36.486-9.834-41.446 3.074-43.836 7.288-48.794 16.032-55.551 17.868-60.346 17.868H-75.087V17.867H-76.432-77.704-79.334-80.874C-81.614 17.867-82.219 17.262-82.219 16.522V9.797C-82.219 9.058-81.613 8.452-80.874 8.452H-79.334-75.087-60.34C-55.838 8.449-53.439 5.137-52.026 2.644-50.268-.456-45.965-11.45-42.31-21.145-42.313-21.147-42.317-21.149-42.317-21.149-42.053-21.84-41.627-22.973-41.371-23.667L-37.71-33.598C-37.454-34.292-36.639-34.86-35.9-34.86H-29.559C-28.819-34.86-28.083-34.526-27.923-34.118-27.763-33.709-27.411-32.812-27.141-32.123L-25.166-27.086C-24.896-26.397-24.483-26.407-24.248-27.109L-22.08-33.584C-21.845-34.286-21.362-34.86-21.007-34.86H-19.017-15.592-13.341C-12.843-34.86-12.213-34.297-11.941-33.609L.851-1.251C1.122-.563 .74 0 0 0" fill="#231f20"/>
<path transform="matrix(1,0,0,-1,101.4131,145.1267)" d="M0 0H-2.75C-3.49 0-3.883 .567-3.624 1.26L-1.847 6.009C-1.587 6.701-1.163 6.701-.904 6.009L.874 1.26C1.133 .567 .74 0 0 0M3.616 19.55C3.357 20.243 2.938 20.81 1.964 20.81H1.224-2.844-4.876C-5.507 20.81-6.108 20.243-6.367 19.55L-18.471-12.79C-18.73-13.483-18.337-14.05-17.597-14.05H-10.699C-9.959-14.05-9.142-13.483-8.882-12.79L-7.53-9.176C-7.271-8.484-6.453-7.917-5.713-7.917H2.963C3.703-7.917 4.52-8.484 4.779-9.176L6.132-12.79C6.391-13.483 7.209-14.05 7.948-14.05H14.847C15.586-14.05 15.98-13.483 15.72-12.79Z" fill="#231f20"/>
<path transform="matrix(1,0,0,-1,133.9177,138.9896)" d="M0 0H-3.125C-3.865 0-4.47 .605-4.47 1.345V4.772C-4.47 5.466-3.937 6.041-3.26 6.107L1.492 6.094 1.557 6.086 1.711 6.098C2.335 6.096 3.786 5.916 4.482 5.253 4.632 5.109 5.09 4.674 5.09 3.237 5.09 1.748 4.519 1.134 3.661 .671 2.798 .205 1.762 .028 1.345-.011H.061C.04-.008 .021 0 0 0M39.237-28.641H37.698 33.451V-28.642L25.764-28.641C21.258-28.641 18.857-25.327 17.444-22.834 15.305-19.062 11.871-11.689 9.468-7.496 9.101-6.854 9.211-6.085 9.745-5.573 9.745-5.573 9.752-5.565 9.763-5.554 12.101-3.663 13.832-.807 13.832 3.237 13.832 3.239 13.832 3.241 13.832 3.243 13.832 3.245 13.832 3.246 13.832 3.248 13.832 7.488 12.01 10.068 10.482 11.486 7.094 14.63 2.773 14.653 2.773 14.653 2.033 14.657 .822 14.661 .083 14.663L-3.125 14.669C-3.865 14.671-4.47 14.672-4.47 14.672-4.47 14.672-4.545 14.673-4.638 14.673-4.73 14.673-5.41 14.674-6.15 14.675L-6.153 14.673H-6.741L-9.357 14.68V14.673H-12.547C-13.287 14.673-13.892 14.067-13.892 13.328V11.788 7.541H-13.891L-13.892 7.481C-13.893 6.741-13.892 6.136-13.89 6.136-13.887 6.136-13.885 5.531-13.885 4.791V-18.842C-13.885-19.582-13.28-20.187-12.54-20.187H-5.815C-5.075-20.187-4.47-19.582-4.47-18.842V-9.9C-4.47-9.216-3.951-8.647-3.287-8.566H-2.098C-1.385-8.621-.561-9.117-.214-9.722 1.531-12.763 6.301-22.27 9.254-27.478 14.212-36.221 20.969-38.057 25.764-38.057H33.451 34.284 37.698 39.237C39.977-38.057 40.582-37.451 40.582-36.712V-29.986C40.582-29.247 39.977-28.641 39.237-28.641" fill="#231f20"/>
<path transform="matrix(1,0,0,-1,72.4241,147.7345)" d="M0 0C-.076-.076-.153-.144-.229-.214-1.824-1.635-3.962-1.97-4.89-2.049-5.507-2.064-6.18-2.073-6.658-2.073H-7.416C-8.155-2.073-8.761-1.468-8.761-.728V12.676C-8.761 13.416-8.155 14.021-7.416 14.021H-6.839-6.468-5.494-5.493-5.49-5.465C-5.451 14.021-5.45 14.021-5.464 14.021H-5.489C-5.254 14.011-3.165 13.895-1.248 12.852 .18 12.075 2.078 10.562 2.078 6.415 2.078 3.529 1.379 1.371 0 0M2.802 21.358C-1.13 23.351-4.064 23.409-4.064 23.409-4.332 23.414-4.664 23.419-5.012 23.424-5.209 23.433-5.346 23.435-5.408 23.436H-6.468V23.435C-6.569 23.436-6.665 23.436-6.753 23.436H-13.2C-13.224 23.436-13.248 23.429-13.271 23.418H-16.831C-17.571 23.418-18.176 22.812-18.176 22.072V20.533 18.755 15.366 12.676-.728-3.418-6.701C-18.176-6.701-18.176-6.702-18.176-6.702V-8.605-10.144C-18.176-10.884-17.571-11.489-16.831-11.489H-10.106C-10.098-11.489-10.091-11.488-10.083-11.488H-6.832C-6.092-11.488-5.445-11.489-5.393-11.489H-5.334C-3.93-11.489 1.969-11.213 6.511-6.801 9.817-3.591 11.493 .856 11.493 6.415 11.493 13.21 8.407 18.517 2.802 21.358" fill="#231f20"/>
</g>
</g>
</svg>
