<svg xmlns="http://www.w3.org/2000/svg" xmlns:xlink="http://www.w3.org/1999/xlink" xmlns:inkscape="http://www.inkscape.org/namespaces/inkscape" version="1.1" width="340.157" height="226.772" viewBox="0 0 340.157 226.772">
<defs>
<clipPath id="clip_1">
<path transform="matrix(1,0,0,-1,0,226.772)" d="M0 226.772H340.157V0H0Z"/>
</clipPath>
</defs>
<g inkscape:groupmode="layer" inkscape:label="Calque 1">
<path transform="matrix(1,0,0,-1,139.8076,85.8896)" d="M0 0-.873 .999V23.701 23.972H-1.136-1.614L-3.102 31.625-4.655 23.972H-5.011-5.127-5.399V23.701L-5.392 .999-6.268-.01V24.854H-5.831-5.588-5.371L-5.327 25.063-3.135 36.101-.939 25.063-.9 24.854H-.682 0Z" fill="#231f20"/>
<path transform="matrix(1,0,0,-1,184.4194,64.89101)" d="M0 0H-.877V6.418 6.683H-1.139-1.646L-3.092 21.333-4.61 6.688H-5.005-5.127-5.386V6.418 0H-6.26V7.559H-5.823-5.637-5.395L-5.372 7.795-3.131 30.196-.888 7.795-.861 7.559H-.622 0V.771Z" fill="#231f20"/>
<path transform="matrix(1,0,0,-1,183.8042,101.0082)" d="M0 0H-.871V2.255 2.516H-1.14-2.939V2.993H0Z" fill="#231f20"/>
<path transform="matrix(1,0,0,-1,175.4946,101.0082)" d="M0 0H-.87V2.249 2.516H-1.135-2.942V2.997H0Z" fill="#231f20"/>
<path transform="matrix(1,0,0,-1,167.187,101.0117)" d="M0 0H-.88V2.252 2.52H-1.139-2.948V3H-.004Z" fill="#231f20"/>
<path transform="matrix(1,0,0,-1,158.8701,101.0082)" d="M0 0H-.875V2.255 2.516H-1.143-2.948V2.993H-.005Z" fill="#231f20"/>
<path transform="matrix(1,0,0,-1,223.9146,86.531208)" d="M0 0H-.87V1.394 1.656H-1.137-2.946V2.14H0Z" fill="#231f20"/>
<path transform="matrix(1,0,0,-1,206.0532,103.365207)" d="M0 0H-.872L-.876 2.382V2.646H-1.141-1.773-2.211V3.123H0Z" fill="#231f20"/>
<path transform="matrix(1,0,0,-1,213.2915,103.365207)" d="M0 0H-.869V2.382 2.646H-1.14-1.77-2.207V3.123H0Z" fill="#231f20"/>
<g clip-path="url(#clip_1)">
<path transform="matrix(1,0,0,-1,207.2251,116.081508)" d="M0 0C-.042 .328-.065 .652-.065 .978-.065 3.516 1.056 5.905 3.093 7.694 5.092 9.462 7.723 10.434 10.519 10.436 11.658 10.436 12.799 10.265 13.918 9.943L14.085 9.895 14.196 10.038C14.556 10.476 15.169 11.156 16.013 11.833 17.826 13.29 19.775 14.03 21.802 14.03 24.312 14.03 26.823 12.876 29.293 10.6 29.031 10.436 28.766 10.283 28.499 10.13 26.26 12.134 24.012 13.155 21.802 13.155H21.751C17.741 13.155 15.023 9.696 14.724 9.299 14.665 9.217 14.632 9.178 14.617 9.153 14.522 9.021 14.394 8.952 14.247 8.952 14.201 8.952 14.157 8.955 14.114 8.971 12.936 9.361 11.725 9.561 10.519 9.561 7.937 9.561 5.504 8.657 3.661 7.037 1.824 5.405 .818 3.25 .818 .978 .818 .704 .828 .45 .859 .164 .574 .102 .287 .048 0 0" fill="#231f20"/>
<path transform="matrix(1,0,0,-1,183.9468,118.2397)" d="M0 0C-.182 0-.358 .003-.543 .003-.404 1.949 .324 3.728 1.511 5.031 2.771 6.409 4.475 7.197 6.199 7.197 8.184 7.197 10.029 6.147 11.283 4.321L11.458 4.069 11.682 4.269C13.71 6.064 15.894 6.254 16.736 6.254H16.853C19.248 6.209 20.472 4.474 20.994 3.443 21.244 2.949 21.453 2.416 21.614 1.849 21.3 1.79 20.985 1.74 20.67 1.687 20.528 2.164 20.355 2.608 20.146 3 19.637 3.968 18.732 5.257 16.835 5.302H16.736C16.05 5.302 13.654 5.137 11.714 2.962 11.624 2.859 11.498 2.804 11.359 2.804 11.343 2.804 11.323 2.804 11.306 2.807 11.154 2.819 11.017 2.912 10.947 3.06 9.503 5.674 7.571 6.234 6.201 6.238 3.603 6.234 .735 4.052 .418 .003H.414C.278 0 .14 0 0 0" fill="#231f20"/>
<path transform="matrix(1,0,0,-1,170.9072,109.3368)" d="M0 0C-.071 0-.14 .019-.2 .049-.303 .103-.379 .195-.413 .312-.454 .421-.437 .537-.392 .64-.22 .958 .22 1.728 .958 2.492 1.751 3.314 3.061 4.306 4.82 4.306 5.593 4.309 6.397 4.112 7.202 3.726L7.402 3.635 7.53 3.817C8.073 4.577 10.083 7.061 13.248 7.089 15.193 7.089 17.144 6.051 18.899 4.093 18.979 4.006 19.016 3.894 19.009 3.778 19.003 3.662 18.952 3.554 18.868 3.473 18.79 3.4 18.684 3.363 18.575 3.363 18.453 3.363 18.338 3.414 18.253 3.506 16.64 5.297 14.953 6.211 13.242 6.211H13.198C10.922 6.211 8.866 4.46 7.928 2.826 7.845 2.69 7.709 2.617 7.55 2.617 7.477 2.617 7.398 2.632 7.334 2.673 6.456 3.175 5.635 3.424 4.82 3.43 3.66 3.43 2.571 2.909 1.587 1.884 .804 1.074 .388 .238 .382 .23 .31 .092 .17 0 0 0" fill="#231f20"/>
<path transform="matrix(1,0,0,-1,203.8902,109.5605)" d="M0 0C-.121 0-.229 .047-.309 .127-1.239 1.051-2.221 1.507-3.305 1.512-4.606 1.512-5.611 .806-5.618 .8L-5.622 .79-5.647 .776C-5.727 .723-5.817 .693-5.909 .693-5.979 .693-6.046 .709-6.111 .737-6.252 .806-6.344 .955-6.344 1.128-6.372 3.648-7.533 4.635-8.542 5.202-9.831 5.913-11.412 5.965-11.866 5.965H-11.905C-12.045 5.965-12.164 5.96-12.24 5.955-12.325 5.955-12.354 5.951-12.354 5.951H-12.393C-12.612 5.951-12.808 6.123-12.826 6.348-12.841 6.464-12.801 6.58-12.728 6.666-12.651 6.753-12.549 6.812-12.43 6.816-12.43 6.816-12.23 6.84-11.905 6.84-10.475 6.83-9.171 6.537-8.131 5.98-7.312 5.543-5.89 4.491-5.551 2.218L-5.498 1.884-5.187 2.013C-4.58 2.257-3.95 2.386-3.313 2.392-2.39 2.392-1.041 2.106 .307 .751 .39 .67 .436 .558 .436 .439 .436 .326 .39 .219 .307 .127 .226 .047 .117 0 0 0" fill="#231f20"/>
<path transform="matrix(1,0,0,-1,221.2681,102.2851)" d="M0 0C-.024 0-.052 0-.074 .009-.313 .05-.47 .277-.431 .514-.39 .73-.245 1.273 .227 1.844 .533 2.229 1.443 3.124 3.264 3.124H3.299C3.479 3.124 3.664 3.114 3.848 3.101 3.967 3.091 4.073 3.034 4.148 2.941 4.226 2.854 4.257 2.743 4.248 2.627 4.23 2.404 4.04 2.229 3.813 2.229H3.774C3.609 2.245 3.449 2.248 3.303 2.248 1.94 2.238 1.32 1.741 .977 1.373 .546 .91 .436 .394 .432 .373 .393 .156 .211 0 0 0" fill="#231f20"/>
<path transform="matrix(1,0,0,-1,0,226.772)" d="M162.932 123.54H153.13V124.415H162.932Z" fill="#231f20"/>
<path transform="matrix(1,0,0,-1,130.8823,81.62491)" d="M0 0H-17.969L-18.393 .881H0Z" fill="#231f20"/>
<path transform="matrix(1,0,0,-1,128.3569,90.9599)" d="M0 0H-.873V1.002 1.265H-1.137-11.535L-11.961 2.141H0Z" fill="#231f20"/>
<path transform="matrix(1,0,0,-1,139.8106,93.195209)" d="M0 0H-21.308L-21.708 .873H0Z" fill="#231f20"/>
<path transform="matrix(1,0,0,-1,0,226.772)" d="M130.056 141.307H120.311V142.182H130.056Z" fill="#231f20"/>
<path transform="matrix(1,0,0,-1,0,226.772)" d="M208.913 120.479H202.42099V121.35899H208.913Z" fill="#231f20"/>
<path transform="matrix(1,0,0,-1,0,226.772)" d="M226.547 129.072H225.674V133.405H226.547Z" fill="#231f20"/>
<path transform="matrix(1,0,0,-1,237.9351,100.2724)" d="M0 0C-1.123 .702-2.253 1.001-3.105 1.137V6.906H-3.98V1.224C-4.308 1.233-4.513 1.218-4.513 1.218-4.588 1.224-4.666 1.224-4.742 1.224-4.977 1.224-5.176 1.216-5.312 1.204L-5.212 .338C-5.09 .342-4.925 .348-4.742 .348H-4.705C-3.953 .348-2.033 .246-.457-.745 .535-1.372 1.232-2.197 1.688-3.241 1.931-3.072 2.176-2.907 2.413-2.737 1.876-1.58 1.039-.646 0 0" fill="#231f20"/>
<path transform="matrix(1,0,0,-1,243.2905,100.7861)" d="M0 0V10.582H.873V.73C.575 .47 .283 .229 0 0" fill="#231f20"/>
<path transform="matrix(1,0,0,-1,0,226.772)" d="M239.859 128.402H238.98999V138.672H239.859Z" fill="#231f20"/>
<path transform="matrix(1,0,0,-1,247.5493,96.873508)" d="M0 0V5.587H.871V.954C.584 .629 .291 .313 0 0" fill="#231f20"/>
<path transform="matrix(1,0,0,-1,255.8433,79.716709)" d="M0 0H-7.682V.877H.046C.032 .569 .02 .278 0 0" fill="#231f20"/>
<path transform="matrix(1,0,0,-1,0,226.772)" d="M241.907 142.212H238.033V143.084H241.907Z" fill="#231f20"/>
<path transform="matrix(1,0,0,-1,216.565,80.3378)" d="M0 0H-.986L4.286 6.03H15.641L19.92 0H17.311 17.043V-.268-2.858H16.168V.875H17.714L18.224 .876 17.928 1.298 15.263 5.039 15.188 5.154H15.05 4.804 4.682L4.606 5.058 1.327 1.319 .939 .875H1.528 3.175 11.954L11.69 0H.92V-14.137L0-13.115Z" fill="#231f20"/>
<path transform="matrix(1,0,0,-1,253.5943,88.2099)" d="M0 0H-5.656L-9.099 2.369-8.604 3.092-5.448 .919-5.38 .879H-5.302 .386C.271 .589 .141 .302 0 0" fill="#231f20"/>
<path transform="matrix(1,0,0,-1,0,226.772)" d="M152.32 148.049H142.996V148.93H152.32Z" fill="#231f20"/>
<path transform="matrix(1,0,0,-1,0,226.772)" d="M165.632 145.798H164.759V147.071H165.632Z" fill="#231f20"/>
<path transform="matrix(1,0,0,-1,0,226.772)" d="M167.804 145.798H166.932V147.071H167.804Z" fill="#231f20"/>
<path transform="matrix(1,0,0,-1,0,226.772)" d="M169.187 120.488H154.402V121.363H169.187Z" fill="#231f20"/>
<path transform="matrix(1,0,0,-1,227.4458,89.4931)" d="M0 0-1.031-1.073-1.469-1.528H-.845 5.836 6.467L6.025-1.073 4.995 0 2.751 7.066 2.499 7.862 2.247 7.066ZM8.52-2.404H-2.496-3.527L-.815 .411-.769 .459-.753 .518 2.499 10.747 5.747 .518 5.765 .459 5.805 .411Z" fill="#231f20"/>
<path transform="matrix(1,0,0,-1,199.0835,96.9604)" d="M0 0V0H-.255L-.329 .077-3.436 3.178-3.89 3.633H15.047L15.12 3.556 18.054 .453 18.474 0ZM-.124 5.364 .006 5.446 1.287 6.201 1.424 6.282 1.559 6.201 2.842 5.446 2.97 5.364V4.512H-.124ZM10.161 5.364 10.294 5.446 11.577 6.201 11.705 6.282 11.838 6.201 13.121 5.446 13.256 5.364V4.512H10.161ZM19.894-.614C19.91-.566 19.919-.51 19.919-.435 19.919-.321 19.88-.218 19.81-.14L15.545 4.373C15.467 4.464 15.351 4.512 15.229 4.512H14.129V5.616C14.129 5.768 14.049 5.916 13.91 5.99L11.928 7.167C11.861 7.206 11.788 7.231 11.705 7.231 11.629 7.231 11.556 7.206 11.485 7.167L9.505 5.99C9.374 5.916 9.289 5.768 9.289 5.616V4.512H3.846V5.616C3.846 5.768 3.763 5.916 3.631 5.99L1.643 7.167C1.58 7.206 1.506 7.231 1.424 7.231 1.35 7.231 1.265 7.206 1.205 7.167L-.778 5.99C-.913 5.916-.997 5.768-.997 5.616V4.512H-5.008L-5.001 4.508C-5.001 4.508-5.018 4.508-5.027 4.498L-5.07 4.489C-5.07 4.489-5.092 4.489-5.111 4.475L-5.144 4.46-5.175 4.445-5.203 4.421-5.227 4.404-5.235 4.396-7.155 2.655C-7.244 2.568-7.293 2.457-7.299 2.329V-4H-6.568V2.283L-5.088 3.613-.87-.623V-6.326H0V-.878H19.488C19.663-.878 19.817-.772 19.894-.614M19.488-.44H19.057V-6.51H19.926V-.334C19.793-.405 19.644-.44 19.488-.44" fill="#231f20"/>
<path transform="matrix(1,0,0,-1,131.2144,90.9599)" d="M0 0H-.636L5.443 6.94 9.139 2.889 8.761 2.511 5.67 5.906 5.473 6.119 5.279 5.902Z" fill="#231f20"/>
<path transform="matrix(1,0,0,-1,214.2564,80.9711)" d="M0 0H-.868L-.869 2.54V2.649L-.954 2.729-3.948 5.556-4.027 5.628H-4.131-6.133V6.507H-3.7L0 3.03Z" fill="#231f20"/>
<path transform="matrix(1,0,0,-1,159.4956,45.179109)" d="M0 0V-.271-1.083-1.349H.269 12.131 12.396V-1.083-.271 0H12.131 .269ZM31.489 0V-.261-1.083-1.349H31.754 43.605 43.866V-1.083-.261 0H43.605 31.754ZM29.585-2.225V-2.495-3.35-3.612H29.851 30.352 30.612V-3.35-2.495-2.225H30.352 29.851ZM-1.903-2.225V-2.495-3.35-3.619H-1.635-1.136-.871V-3.35-2.495-2.225H-1.136-1.635ZM0-2.225V-2.495-3.35-3.619H.269 12.131 12.396V-3.35-2.495-2.225H12.131 .269ZM31.489-2.225V-2.495-3.35-3.612H31.754L43.605-3.619H43.866V-3.35-2.495-2.225H43.605 31.754ZM-1.903-4.494V-4.756-19.204-19.47H-1.635-1.136-.871V-19.204-4.756-4.494H-1.136-1.635ZM8.553-6.353 9.981-8.028C10.024-8.091 10.083-8.188 10.083-8.312V-19.204-19.47H10.347 12.131 12.396V-19.204-4.756-4.494H12.131 .269 0V-4.756-19.204-19.47H.269 3.816 4.08V-19.204-8.938-8.783L3.946-8.71 2.275-7.75 2.665-7.073 2.736-6.945 2.83-6.864 3.425-6.353 4.851-8.028C4.896-8.091 4.958-8.188 4.958-8.312V-19.204-19.47H5.219 8.947 9.211V-19.204-8.938-8.783L9.077-8.71 7.404-7.75 7.792-7.073 7.868-6.945 7.961-6.864ZM29.585-4.494V-4.756-19.204-19.47H29.851 30.352 30.612V-19.204-4.756-4.494H30.352 29.851ZM40.029-6.353 41.453-8.028C41.503-8.091 41.559-8.188 41.559-8.315V-19.204-19.47H41.826 43.605 43.866V-19.204-4.756-4.494H43.605 31.754 31.489V-4.756-19.204-19.47H31.754 35.294 35.565V-19.204-8.938-8.783L35.427-8.71 33.755-7.75 34.137-7.073 34.213-6.945H34.216L34.312-6.864 34.904-6.353 36.33-8.028C36.376-8.091 36.434-8.188 36.434-8.312V-19.204-19.47H36.696 40.422 40.686V-19.204-8.938-8.783L40.551-8.71 38.883-7.75 39.268-7.073 39.34-6.945 39.436-6.864ZM-1.903-20.346V-20.613-21.956-22.222H-1.635-1.136-.871V-21.956-20.613-20.346H-1.136-1.635ZM0-20.346V-20.613-21.956-22.222H.269 43.605 43.866V-21.956-20.613-20.346H43.605 .269ZM-1.903-23.097V-23.365-28.881-29.148H-1.635-1.136-.871V-28.881-23.365-23.097H-1.136-1.635ZM0-23.097V-23.365-28.881-29.148H.269 1.363 1.625V-28.881-23.365-23.097H1.363 .269ZM2.498-23.097V-23.365-28.881-29.148H2.762 4.384 4.646V-28.881-23.365-23.097H4.384 2.762ZM5.518-23.097V-23.365-28.881-29.148H5.785 7.403 7.665V-28.881-23.365-23.097H7.403 5.785ZM8.542-23.097V-23.365-28.881-29.148H8.805 10.422 10.688V-28.881-23.365-23.097H10.422 8.805ZM11.561-23.097V-23.365-28.881-29.148H11.819 13.443 13.7V-28.881-23.365-23.097H13.443 11.819ZM14.578-23.097V-23.365-28.881-29.148H14.844 16.457 16.72V-28.881-23.365-23.097H16.457 14.844ZM17.599-23.097V-23.365-28.881-29.148H17.861 19.477 19.738V-28.881-23.365-23.097H19.477 17.861ZM20.612-23.097V-23.365-28.881-29.148H20.875 22.488 22.751V-28.881-23.365-23.097H22.488 20.875ZM23.627-23.097V-23.365-28.881-29.148H23.89 25.502 25.763V-28.881-23.365-23.097H25.502 23.89ZM26.639-23.097V-23.365-28.881-29.148H26.9 28.518 28.782V-28.881-23.365-23.097H28.518 26.9ZM29.656-23.097V-23.365-28.881-29.148H29.923 31.534 31.8V-28.881-23.365-23.097H31.534 29.923ZM32.672-23.097V-23.365-28.881-29.148H32.94 34.557 34.819V-28.881-23.365-23.097H34.557 32.94ZM35.69-23.097V-23.365-28.881-29.148H35.953 37.572 37.831V-28.881-23.365-23.097H37.572 35.953ZM38.707-23.097V-23.365-28.881-29.148H38.972 40.59 40.849V-28.881-23.365-23.097H40.59 38.972ZM41.721-23.097V-23.365-28.881-29.148H41.989 43.605 43.866V-28.881-23.365-23.097H43.605 41.989ZM44.743-23.097V-23.365-28.881-29.148H45.005 45.943 46.208V-28.881-23.365-23.097H45.943 45.005ZM-1.903-35.797H-2.775V-1.793C-2.775-1.543-2.581-1.349-2.334-1.349H-1.136-.871V-1.083 .438C-.871 .681-.672 .875-.436 .875H12.832C13.072 .875 13.268 .681 13.268 .438V-1.083-1.349H13.531 13.814C14.053-1.349 14.251-1.543 14.251-1.793 14.251-2.032 14.053-2.225 13.814-2.225H13.531 13.268V-2.495-3.35-3.619H13.531 13.814C14.053-3.619 14.251-3.809 14.251-4.049 14.246-4.294 14.053-4.494 13.814-4.494H13.531 13.268V-4.756-19.204-19.47H13.531 28.449 28.71V-19.204-1.793C28.71-1.543 28.91-1.349 29.147-1.349H30.352 30.612V-1.083 .438C30.612 .571 30.674 .663 30.725 .727 30.809 .823 30.928 .875 31.054 .875H44.306C44.542 .875 44.743 .681 44.743 .438V-1.083-1.349H45.005 45.286C45.528-1.349 45.729-1.543 45.729-1.793 45.729-2.032 45.528-2.225 45.286-2.225H45.005 44.743V-2.495-3.35-3.619H45.005 45.286C45.528-3.619 45.729-3.809 45.729-4.049 45.729-4.294 45.528-4.494 45.286-4.494H45.005 44.743V-4.756-21.956-22.222H45.005 46.645C46.891-22.222 47.084-22.417 47.084-22.659V-35.792H46.208V-30.286-30.023H45.943 44.306 .269 0V-30.286-35.797H-.871V-30.286-30.023H-1.136-1.635-1.903V-30.286Z" fill="#231f20"/>
<path transform="matrix(1,0,0,-1,190.1079,80.947208)" d="M0 0-1.213 .003C-2.677 2.24-5.272 3.612-8.002 3.612-10.796 3.612-13.321 2.271-14.802 .003H-15.352C-13.825 2.615-10.985 4.28-8.002 4.28L-7.298 4.265C-4.372 4.265-1.554 2.607 0 0" fill="#231f20"/>
<path transform="matrix(1,0,0,-1,0,226.772)" d="M197.814 145.798H196.948V147.071H197.814Z" fill="#231f20"/>
<path transform="matrix(1,0,0,-1,0,226.772)" d="M199.987 145.798H199.112V147.071H199.987Z" fill="#231f20"/>
<path transform="matrix(1,0,0,-1,202.5943,80.93741)" d="M0 0H-.892C-1.053 3.179-4.011 4.376-4.043 4.391L-4.129 4.419-4.225 4.396C-4.255 4.381-7.404 3.309-7.563 0H-7.712C-7.681 .887-7.321 3.782-4.117 4.837-.83 4.275-.135 1.001 0 0" fill="#231f20"/>
<path transform="matrix(1,0,0,-1,170.4111,80.93741)" d="M0 0H-.887C-1.044 3.179-4.017 4.376-4.046 4.391L-4.136 4.419-4.227 4.396C-4.258 4.381-7.409 3.309-7.573 0H-7.721C-7.687 .887-7.327 3.782-4.122 4.837-.832 4.275-.133 1.001 0 0" fill="#231f20"/>
<path transform="matrix(1,0,0,-1,255.4722,82.49161)" d="M0 0H-11.341L-13.663 7.344-13.919 8.147-14.165 7.344-16.438 .016H-17.464L-13.941 11.628-10.645 1.226-10.587 1.028H-10.397 .182C.132 .712 .074 .367 0 0" fill="#231f20"/>
<path transform="matrix(1,0,0,-1,151.8369,102.5688)" d="M0 0C0 0-.08 .139-.231 .344-.904 1.232-1.721 1.889-2.599 2.245-3.285 2.529-5.292 3.186-7.42 1.628-10.153 5.319-12.867 6.108-14.706 6.108-17.157 6.09-19.056 4.807-19.965 4.038L-20.173 3.854-20.341 4.073C-20.664 4.477-21.221 5.091-22.032 5.677-22.873 6.273-24.223 6.997-25.887 7-27.594 7-29.115 6.291-30.683 4.769L-30.049 4.222C-28.657 5.571-27.354 6.117-25.863 6.122-24.753 6.122-23.602 5.723-22.536 4.965-21.592 4.289-20.92 3.463-20.628 2.95-20.553 2.828-20.437 2.751-20.286 2.735H-20.253C-20.13 2.735-20.014 2.788-19.933 2.869-19.933 2.869-19.909 2.896-19.84 2.959-19.752 3.056-17.576 5.236-14.739 5.236H-14.706C-12.285 5.223-10.085 3.805-7.974 .905-7.89 .795-7.76 .729-7.619 .729-7.604 .729-7.407 .724-7.288 .811-5.484 2.098-3.825 1.767-2.956 1.433-1.852 1.004-1.079 .042-.867-.242L-.849-.262C-.782-.354-.732-.43-.697-.48-.66-.532-.65-.551-.65-.551L-.631-.574C-.526-.712-.315-.746-.149-.64-.062-.586 .001-.501 .03-.412 .055-.315 .046-.078 0 0" fill="#231f20"/>
<path transform="matrix(1,0,0,-1,172.9898,111.1762)" d="M0 0C-2.502-.007-4.893-1.376-6.244-3.451-6.831-.8-8.726 1.405-11.176 2.121-14.892 3.191-18.869 .838-20.154-3.169L-19.245-3.461C-18.1-.012-14.663 2.058-11.463 1.13-8.634 .307-6.852-2.556-7.141-5.736-7.125-5.742-7.106-5.742-7.088-5.745L-7.096-5.784C-7.096-5.784-6.464-5.875-6.153-5.917-5.533-3.024-2.987-.95 0-.95 3.382-.95 6.151-3.636 6.289-6.981 6.605-6.994 6.923-7 7.242-7.011 7.122-3.13 3.922-.007 0 0" fill="#231f20"/>
<path transform="matrix(1,0,0,-1,151.0518,110.5019)" d="M0 0C-.871 1.797-2.396 3.299-4.42 4.333-5.833 5.065-7.247 5.427-8.634 5.427-11.019 5.413-13.317 4.157-14.429 3.246-14.444 3.338-14.451 3.426-14.477 3.511-15.267 7.211-18.234 9.797-21.683 9.802-22.951 9.799-24.186 9.426-25.278 8.764-25.013 8.56-24.812 8.338-24.52 8.12-23.652 8.579-22.645 8.851-21.686 8.851-19.975 8.851-18.349 8.101-17.131 6.752-16.123 5.636-15.467 4.164-15.285 2.587-14.951 2.43-14.62 2.269-14.288 2.109-13.505 2.835-11.152 4.472-8.637 4.472-7.403 4.469-6.128 4.141-4.853 3.482-2.998 2.522-1.651 1.214-.848-.416-.42-1.3-.153-2.253-.067-3.265L.909-3.573C.846-2.316 .542-1.101 0 0" fill="#231f20"/>
<path transform="matrix(1,0,0,-1,151.7241,169.4545)" d="M0 0H-38.071V39.646H-30.867V5.911H0Z" fill="#231f20"/>
<path transform="matrix(1,0,0,-1,191.4722,154.6703)" d="M0 0-9.855 15.127-20.088 0ZM17.57-14.784H9.696L3.497-5.921H-23.593L-29.562-14.784H-37.443L-9.611 27.495Z" fill="#231f20"/>
<path transform="matrix(1,0,0,-1,256.0171,169.4545)" d="M0 0H-39.321V39.646H-32.115V5.911H0Z" fill="#231f20"/>
<path transform="matrix(1,0,0,-1,304.3159,149.5864)" d="M0 0C0 4.637-2.155 8.397-6.483 11.286-10.205 13.768-14.82 15.011-20.346 15.011-26.386 15.011-31.308 13.594-35.112 10.759-38.911 7.937-40.813 4.352-40.813 0-40.813-4.481-38.95-8.11-35.229-10.86-31.506-13.617-26.547-14.997-20.346-14.997-14.184-14.997-9.248-13.604-5.546-10.833-1.842-8.063 0-4.442 0 0M7.501 0C7.501-6.492 4.578-11.737-1.255-15.76-6.38-19.264-12.74-21.018-20.346-21.018-28.024-21.018-34.426-19.243-39.553-15.704-45.395-11.691-48.316-6.456-48.316 0-48.316 6.36-45.348 11.583-39.428 15.664-34.23 19.25-27.87 21.031-20.346 21.031-12.778 21.031-6.437 19.25-1.318 15.664 4.565 11.583 7.501 6.36 7.501 0" fill="#231f20"/>
<path transform="matrix(1,0,0,-1,57.0928,154.6244)" d="M0 0V5.158H21.247V-8.88C14.068-13.7 5.226-15.938-2.092-15.938-17.42-15.938-28.74-7.502-28.74 4.527-28.74 16.722-17.77 26.086-2.96 26.086 14.286 26.086 20.031 19.575 20.031 19.575L16.304 15.099C16.304 15.099 9.669 20.77-2.788 20.77-15.85 20.77-21.602 13.435-21.602 5.158-21.602-4.999-12.889-10.631-3.659-10.631 3.833-10.631 10.188-8.676 14.112-5.94V0Z" fill="#231f20"/>
<path transform="matrix(1,0,0,-1,95.1895,167.3452)" d="M0 0C0-1.833-2.285-3.308-5.098-3.308-7.917-3.308-10.195-1.833-10.195 0-10.195 1.823-7.917 3.313-5.098 3.313-2.285 3.313 0 1.823 0 0" fill="#231f20"/>
<path transform="matrix(1,0,0,-1,116.751,187.0434)" d="M0 0C.368 .03 1.35 .126 1.828 .972 1.993 1.254 2.061 1.61 2.061 1.949 2.061 2.218 2.017 2.521 1.898 2.795 1.443 3.734 .412 3.748-.167 3.748-.844 3.748-1.023 3.725-1.391 3.695-1.391 3.072-1.405 2.434-1.405 1.784-1.405 1.176-1.391 .557-1.391-.057-.925-.038-.367-.038 0 0M-1.362-4.832C-2.117-4.832-2.156-4.832-2.866-4.87L-2.947-4.772C-2.919-3.915-2.904-3.244-2.904-1.649-2.904 .464-2.904 2.632-3.03 4.706L-2.962 4.799C-2.743 4.799-1.714 4.832-1.472 4.832L-.574 4.856C.325 4.856 1.021 4.856 1.677 4.651 3.192 4.166 3.588 2.907 3.588 1.968 3.588 1.415 3.451 .887 3.178 .436 2.387-.89 .859-1.17-.766-1.17-1.009-1.17-1.187-1.159-1.375-1.159-1.362-2.635-1.362-3.072-1.286-4.733Z" fill="#231f20"/>
<path transform="matrix(1,0,0,-1,130.7256,187.8354)" d="M0 0C.438 0 .873-.015 1.311-.015 1.77-.015 2.261 0 2.743 0L1.431 4.613ZM2.699 5.306C3.15 3.809 3.671 2.11 4.074 .822 4.5-.493 5.184-2.589 5.588-3.902L5.537-4.011C4.824-4.024 4.526-4.04 3.955-4.063L3.86-3.967C3.521-2.688 3.407-2.318 3.056-1.091 2.507-1.091 1.977-1.073 1.431-1.073 .829-1.073 .206-1.091-.344-1.091-.74-2.376-.821-2.698-1.149-3.911L-1.244-4.011C-1.831-4.011-1.968-4.011-2.65-4.05L-2.703-3.958C-2.662-3.806-2.609-3.667-2.549-3.531-2.034-2.061-1.53-.59-1.04 .889-.221 3.299 .08 4.189 .474 5.498L.585 5.591C1.538 5.605 1.664 5.605 2.535 5.648L2.63 5.557Z" fill="#231f20"/>
<path transform="matrix(1,0,0,-1,149.8911,186.1254)" d="M0 0C.344 .282 .516 .709 .516 1.141 .516 1.435 .452 1.767 .257 2.085-.178 2.752-.912 2.798-1.938 2.798-2.111 2.798-2.359 2.798-2.819 2.777-2.836 1.194-2.836 .979-2.819-.536-1.789-.557-.653-.574 0 0M-2.78-5.75C-3.559-5.75-3.572-5.75-4.283-5.788L-4.362-5.69C-4.318-4.366-4.309-3.03-4.309-1.71-4.309 1.353-4.362 2.422-4.447 3.788L-4.362 3.881H-4.024C-3.782 3.881-3.111 3.896-2.648 3.896L-1.812 3.914C-1.061 3.914-.343 3.914 .331 3.683 1.38 3.324 2.045 2.575 2.045 1.27 2.045 .172 1.46-.927-.287-1.408-.051-1.725 1.01-3.277 1.252-3.634 1.674-4.23 1.869-4.505 2.713-5.621L2.661-5.76C2.387-5.76 2.099-5.76 1.829-5.773 1.543-5.788 1.252-5.801 .967-5.827L.873-5.76C.818-5.668 .766-5.569 .708-5.476 .314-4.772-.148-4.123-.584-3.457-1.404-2.214-1.487-2.077-1.812-1.64-2.24-1.654-2.318-1.667-2.794-1.654-2.794-2.405-2.78-4.505-2.703-5.651Z" fill="#231f20"/>
<path transform="matrix(1,0,0,-1,163.8491,182.2905)" d="M0 0C-.039-.918-.071-1.998-.071-4.345-.071-6.968-.039-8.08 .04-9.486L-.039-9.585C-.641-9.595-.833-9.595-1.553-9.623L-1.638-9.525C-1.606-8.696-1.583-7.972-1.583-6.212-1.583-4.157-1.583-2.107-1.677-.062L-1.606 .046C-1.006 .046-.79 .046-.095 .089Z" fill="#231f20"/>
<path transform="matrix(1,0,0,-1,177.8677,186.4145)" d="M0 0C.992-.441 2.31-1.011 2.31-2.751 2.31-4.279 1.183-5.663-1.188-5.663-2.632-5.663-3.559-5.227-3.889-5.058L-3.938-4.962C-3.889-4.483-3.876-4.232-3.835-3.715L-3.695-3.655C-3.356-3.888-2.563-4.463-1.293-4.463 .105-4.463 .689-3.739 .689-2.922 .689-1.964-.098-1.597-.984-1.252L-1.663-.96C-2.632-.503-3.928 .079-3.928 1.741-3.928 2.248-3.79 2.769-3.502 3.175-2.877 4.077-1.745 4.38-.644 4.38 .431 4.38 1.085 4.17 1.808 3.941L1.875 3.829C1.82 3.314 1.808 3.119 1.767 2.636L1.661 2.578C1.074 2.877 .431 3.206-.589 3.206-1.722 3.206-2.428 2.671-2.428 1.864-2.428 1.258-2.02 .969-1.732 .786-1.562 .683-1.5 .647-.68 .3Z" fill="#231f20"/>
<path transform="matrix(1,0,0,-1,205.9585,191.8754)" d="M0 0C-.602 0-.764 0-1.458-.038L-1.536 .06C-1.497 2.239-1.497 2.71-1.471 5.322-1.471 6.278-1.458 7.353-1.471 8.132-2.099 8.024-2.247 7.998-2.806 7.889L-2.92 7.971C-2.875 8.382-2.862 8.527-2.85 8.924L-2.764 9.021C-1.611 9.155-1.198 9.21-.012 9.394L.095 9.324C.041 8.58-.012 7.7-.012 4.16-.012 1.965 0 1.129 .08 .082Z" fill="#231f20"/>
<path transform="matrix(1,0,0,-1,222.3569,185.8168)" d="M0 0C-.01 .699-.403 2.212-1.959 2.212-2.973 2.212-3.762 1.472-3.762 .299-3.762-.926-2.982-1.558-1.978-1.558-1.195-1.558-.53-1.187-.175-.631-.105-.531-.05-.418-.01-.327ZM-4.526-4.53C-4.278-4.707-3.709-5.129-2.725-5.129-2.258-5.129-1.84-5.026-1.48-4.853-.543-4.37-.256-3.504-.119-3.011 .044-2.417 .053-2.019 .07-1.637-.033-1.759-.133-1.885-.256-1.976-.708-2.396-1.411-2.714-2.288-2.714-3.896-2.714-5.194-1.62-5.194 .182-5.194 1.926-4.007 3.335-1.937 3.335-1.375 3.335-.815 3.218-.328 2.974 .167 2.73 .603 2.348 .89 1.884 1.437 1.023 1.553-.215 1.553-1.091 1.553-1.506 1.529-1.937 1.476-2.355 1.355-3.165 1.122-4.184 .265-5.061-.692-6.029-1.771-6.187-2.565-6.187-3.622-6.187-4.364-5.888-4.623-5.796L-4.674-5.701C-4.647-5.197-4.647-5.177-4.635-4.59Z" fill="#231f20"/>
<path transform="matrix(1,0,0,-1,239.9175,190.7465)" d="M0 0C-.023-.527-.023-.605-.023-1.069L-.098-1.139-.619-1.129C-.885-1.129-5.289-1.139-6.655-1.167L-6.714-1.03C-5.591 .145-4.487 1.32-3.396 2.513-2.753 3.213-1.816 4.254-1.816 5.301-1.816 6.21-2.466 7.085-3.798 7.085-4.255 7.085-4.693 6.988-5.088 6.813-5.67 6.558-5.986 6.243-6.248 5.974L-6.354 6.021C-6.343 6.524-6.343 6.61-6.343 7.293L-6.257 7.398C-6.055 7.555-5.685 7.853-4.897 8.071-4.458 8.178-3.994 8.249-3.53 8.249-1.454 8.249-.327 6.937-.327 5.478-.327 4.047-1.349 2.765-3.378 .746L-4.146-.02H-2.794C-1.761 .003-1.597 .023-.068 .093Z" fill="#231f20"/>
<path transform="matrix(1,0,0,-1,252.6509,183.5502)" d="M0 0C-1.291 0-1.678-1.321-1.762-1.631-1.982-2.403-2.02-3.347-2.02-3.809-2.02-4.432-1.963-5.078-1.817-5.708-1.72-6.069-1.391-7.408-.028-7.408 .94-7.408 1.338-6.781 1.528-6.346 1.855-5.629 1.935-4.541 1.935-3.67 1.935-3.306 1.921-2.942 1.882-2.594 1.815-1.866 1.676-1.141 1.312-.659 1.074-.354 .638 0 0 0M-3.521-3.734C-3.521-2.811-3.424-1.757-3.018-.875-2.365 .53-1.177 1.053 .012 1.053 .384 1.053 .764 .999 1.116 .875 3.245 .163 3.419-2.375 3.419-3.701 3.419-6.069 2.768-7.013 2.373-7.464 1.584-8.349 .625-8.475-.097-8.475-.597-8.475-1.678-8.415-2.523-7.443-3.082-6.797-3.521-5.761-3.521-3.734" fill="#231f20"/>
<path transform="matrix(1,0,0,-1,193.2984,187.5014)" d="M0 0C-.044-.465-.055-.57-.085-1.027L-.17-1.101C-.549-1.094-.843-1.079-1.528-1.079-2.249-1.079-2.944-1.094-3.671-1.101L-3.76-.998C-3.697-.596-3.688-.465-3.671-.026L-3.573 .073C-2.838 .058-2.073 .037-1.338 .037-.725 .037-.531 .058-.07 .084Z" fill="#231f20"/>
<path transform="matrix(1,0,0,-1,154.5664,88.2953)" d="M0 0-6.064-6.141-6.237-6.309-6.429-6.153-11.582-1.731-11.8-1.544-11.599-1.336-5.536 4.8-5.357 4.968-5.17 4.809-.018 .397 .199 .211ZM61.005 .665H1.005L.933 .731-3.655 4.659-4.202 5.128H61.005V6.003L-5.394 5.999H-5.454L-5.478 5.993C-5.497 5.984-5.515 5.984-5.531 5.975L-5.568 5.963C-5.583 5.956-5.593 5.945-5.622 5.934-5.622 5.934-5.63 5.926-5.64 5.92-5.652 5.917-5.658 5.906-5.673 5.892L-5.694 5.879-12.754-1.267C-12.771-1.285-12.791-1.306-12.814-1.347-12.826-1.372-12.844-1.4-12.859-1.462-12.873-1.508-12.877-1.544-12.877-1.579V-7.355L-11.996-7.665V-2.527L-11.555-2.905-6.742-7.031-6.649-7.104V-10.547L-5.775-10.866V-7.345H35.022V-6.464H-5.166L-4.716-6.02 .947-.285 1.026-.2H61.005Z" fill="#231f20"/>
<path transform="matrix(1,0,0,-1,228.3794,95.9028)" d="M0 0C.505 1.706 1.433 2.058 1.433 2.058 1.433 2.058 3.179 .898 3.276-2.281H3.998C3.915-1.28 3.477 1.995 1.433 2.556 .322 1.971-.211 .945-.478 0Z" fill="#231f20"/>
<path transform="matrix(1,0,0,-1,137.8682,90.95061)" d="M0 0C.372 .328 .61 .805 .61 1.338 .61 2.333-.197 3.14-1.191 3.14-2.186 3.14-2.992 2.333-2.992 1.338-2.992 .805-2.754 .328-2.383 0H-1.783C-2.15 .262-2.524 .713-2.524 1.222-2.524 2.039-1.933 2.702-1.206 2.702-.477 2.702 .114 2.039 .114 1.222 .114 .713-.239 .262-.601 0Z" fill="#231f20"/>
</g>
</g>
</svg>
