<?xml version="1.0" encoding="UTF-8" standalone="no"?>
<svg
   xmlns:dc="http://purl.org/dc/elements/1.1/"
   xmlns:cc="http://creativecommons.org/ns#"
   xmlns:rdf="http://www.w3.org/1999/02/22-rdf-syntax-ns#"
   xmlns:svg="http://www.w3.org/2000/svg"
   xmlns="http://www.w3.org/2000/svg"
   viewBox="0 0 604.72803 604.72803"
   height="604.72803"
   width="604.72803"
   xml:space="preserve"
   id="svg2"
   version="1.1"><metadata
     id="metadata8"><rdf:RDF><cc:Work
         rdf:about=""><dc:format>image/svg+xml</dc:format><dc:type
           rdf:resource="http://purl.org/dc/dcmitype/StillImage" /></cc:Work></rdf:RDF></metadata><defs
     id="defs6"><clipPath
       id="clipPath18"
       clipPathUnits="userSpaceOnUse"><path
         id="path16"
         d="M 0,453.546 H 453.546 V 0 H 0 Z" /></clipPath></defs><g
     transform="matrix(1.3333333,0,0,-1.3333333,0,604.728)"
     id="g10"><g
       id="g12"><g
         clip-path="url(#clipPath18)"
         id="g14"><g
           transform="translate(188.9411,230.139)"
           id="g20"><path
             id="path22"
             style="fill:#231f20;fill-opacity:1;fill-rule:nonzero;stroke:none"
             d="m 0,0 c -3.94,8.673 -8.413,19.225 -31.003,18.91 -1.715,-0.011 -5.189,-0.369 -9.726,-0.955 h -0.011 c 14.807,37.082 -11.366,40.219 -11.366,40.219 2.041,-4.18 5.482,-11.409 -11.539,-43.606 -6.752,-1.097 -13.808,-2.301 -20.408,-3.496 l -4.005,-0.759 c 1.584,3.56 3.202,7.381 4.83,11.55 13.917,35.573 -12.679,32.305 -13.732,32.164 0.608,0.065 8.804,0.336 -9.9,-39.969 -1.368,-2.953 -2.573,-5.765 -3.636,-8.478 -8.109,-1.867 -16.609,-3.876 -18.433,-4.375 -4.298,-1.162 -6.263,-1.65 -6.98,-1.661 -0.217,0 -0.315,0.109 -0.315,0.217 -0.01,0.337 2.248,1.368 2.248,1.715 0,0.12 -0.109,0.12 -0.315,0.098 -0.402,0 -1.335,-0.239 -3.289,-0.695 -1.129,-0.239 -1.846,-1.053 -1.824,-2.496 0.011,-0.771 0.119,-1.781 0.771,-3.018 0.944,-1.878 3.017,-2.519 6.013,-2.475 1.357,0.021 10.335,1.889 18.932,3.691 -11.409,-36.681 5.33,-48.6 5.33,-48.6 -1.878,20.875 5.775,32.013 15.925,52.942 l 4.646,0.922 c 6.133,1.249 12.82,2.627 19.485,3.973 -32.381,-62.385 -8.814,-69.17 -8.814,-69.17 -0.174,22.645 18.812,42.933 33.108,73.806 7.371,1.259 13.515,2.095 17.217,2.149 14.644,0.206 18.736,-5.666 18.812,-10.475 0.141,-9.944 -10.128,-28.713 -57.435,-47.503 -1.694,-0.662 -2.454,-2.052 -2.443,-3.387 0.065,-3.018 4.125,-6.437 11.659,-6.318 21.135,0.282 58.033,26.151 57.739,47.959 C 1.509,-4.668 1.064,-2.323 0,0" /></g><g
           transform="translate(402.0106,231.7467)"
           id="g24"><path
             id="path26"
             style="fill:#231f20;fill-opacity:1;fill-rule:nonzero;stroke:none"
             d="m 0,0 -5.721,-0.109 c 0,0 -10.638,-0.206 -10.812,-0.217 3.04,5.569 4.321,9.162 4.266,12.104 0.011,0.141 0,0.293 -0.01,0.445 -0.196,3.268 -2.269,4.733 -3.811,5.558 -0.434,0.271 -0.803,0.271 -1.129,0.261 -0.51,-0.011 -0.955,-0.207 -1.259,-0.532 -0.239,-0.239 -0.358,-0.532 -0.347,-0.836 v -0.033 c 0.011,-0.184 0.065,-0.619 0.467,-0.912 v -0.01 c -0.066,-1.064 -4.788,-9.705 -9.955,-16.316 -0.434,0.011 -1.932,0.011 -1.932,0.011 l -5.449,-0.011 c -1.064,-0.011 -1.824,-0.261 -2.237,-0.706 -0.249,-0.282 -0.379,-0.597 -0.379,-0.955 0,-0.022 0,-0.032 0.01,-0.076 0.033,-0.521 0.359,-0.944 0.717,-1.379 0.933,-1.118 1.791,-1.237 4.309,-1.411 0.663,-0.054 1.162,-0.076 1.77,-0.065 -5.743,-7.827 -11.995,-20.961 -12.104,-27.681 -5.688,-3.767 -10.812,-5.167 -11.604,-5.178 -0.152,0.011 -0.228,0 -0.261,0.456 -0.119,2.095 1.694,5.873 4.266,10.953 1.314,2.464 3.767,7.067 3.518,11.268 -0.109,1.628 -0.543,2.67 -1.216,3.778 -1.639,2.637 -3.463,3.907 -5.58,3.886 -4.179,-0.065 -9.075,-4.429 -18.476,-14.166 -0.369,-0.391 -0.727,-0.717 -1.064,-0.988 0.152,0.238 0.326,0.499 0.543,0.803 3.496,4.787 4.972,8.424 4.918,12.332 -0.011,0.238 -0.011,0.488 -0.033,0.727 -0.217,3.647 -2.442,6.101 -6.394,7.121 -0.466,0.087 -0.835,-0.011 -1.129,-0.26 -0.282,-0.261 -0.445,-0.63 -0.434,-1.043 v -0.065 c 0.044,-0.629 0.478,-1.118 1.129,-1.292 0.022,0 0.065,-0.01 0.098,-0.021 -0.022,0.011 -0.022,-0.033 -0.022,-0.044 0.022,-0.021 0.022,-0.076 0.022,-0.076 -0.011,-0.01 0,-0.032 0,-0.054 0.022,-1.422 -2.334,-5.221 -4.82,-9.26 -4.375,-7.055 -9.802,-15.794 -9.694,-22.123 -0.011,-0.163 -0.011,-0.325 0,-0.488 0.174,-2.779 1.585,-4.831 4.093,-5.971 0.543,-0.228 1.042,-0.26 1.465,-0.086 0.76,0.304 1.086,1.096 1.249,1.487 2.312,6.242 20.82,26.802 24.164,26.845 0.097,0.011 0.13,-0.13 0.141,-0.217 0.054,-1.053 -1.108,-4.397 -3.485,-8.771 -2.117,-3.865 -3.126,-7.588 -2.942,-10.758 0.228,-3.691 2.204,-6.622 5.558,-8.217 0.869,-0.478 1.824,-0.565 2.964,-0.543 2.952,0.043 8.586,2.529 13.623,5.959 1.976,-5.655 7.903,-6.904 9.911,-6.86 6.644,0.087 13.58,7.924 21.96,18.183 0.608,0.662 0.901,1.346 0.869,1.997 -0.033,0.586 -0.445,0.999 -0.955,0.988 -0.619,-0.011 -1.401,-0.478 -2.389,-1.444 -13.254,-13.059 -17.433,-14.503 -18.606,-14.535 -0.412,0 -0.749,0.076 -0.792,0.966 -0.217,3.463 4.624,14.861 13.623,32.045 0.228,0.347 0.359,0.401 0.543,0.412 0.022,0 2.508,0.12 2.508,0.12 5.818,0.282 13.808,0.684 16.294,1.747 1.28,0.5 2.084,1.314 2.04,2.085 C 1.932,-0.369 1.292,0.022 0,0" /></g><g
           transform="translate(313.2878,213.589)"
           id="g28"><path
             id="path30"
             style="fill:#231f20;fill-opacity:1;fill-rule:nonzero;stroke:none"
             d="m 0,0 c -0.076,0.749 -0.25,1.465 -0.445,2.247 -0.717,2.421 -3.137,3.3 -5.004,3.528 0.629,0.738 1.161,1.39 1.161,2.291 -0.011,0.065 -0.022,0.13 -0.032,0.206 -0.152,1.606 -1.466,2.866 -5.819,5.59 -1.107,0.738 -1.748,1.162 -2.486,1.129 -0.792,-0.054 -1.357,-0.521 -2.355,-1.346 l -0.207,-0.184 c -8.282,-7.556 -20.234,-22.091 -19.3,-31.199 0.228,-2.182 1.205,-4.005 2.941,-5.406 2.399,-1.954 5.699,-2.605 7.273,-2.431 4.625,0.38 13.407,5.438 19.149,12.364 3.452,4.158 5.233,8.359 5.189,12.169 C 0.043,-0.695 0.033,-0.337 0,0 m -23.002,-19.735 c 0,-0.011 -0.739,-0.478 -0.739,-0.478 -0.542,-0.358 -0.618,-0.38 -0.781,-0.314 l -0.391,0.065 h -0.011 c -0.076,0.141 -0.174,0.521 -0.293,1.791 -0.022,0.119 -0.022,0.25 -0.022,0.369 -0.076,5.536 9.075,14.025 13.548,18.139 0,0 1.411,1.303 1.411,1.325 0.326,0.26 2.356,0.673 4.342,0.618 1.954,-0.065 2.008,-0.564 2.041,-0.912 0.369,-3.593 -8.739,-14.915 -19.105,-20.603" /></g><g
           transform="translate(281.1614,214.7885)"
           id="g32"><path
             id="path34"
             style="fill:#231f20;fill-opacity:1;fill-rule:nonzero;stroke:none"
             d="M 0,0 C -0.174,2.844 -1.932,5.384 -5.536,7.979 -6.752,8.804 -8.163,9.194 -9.878,9.173 -15.545,9.097 -22.481,4.44 -27.887,0.391 c -0.087,-0.065 -0.131,-0.087 -0.228,-0.152 0.977,1.65 1.53,3.419 1.519,4.917 v 0.283 c -0.141,2.171 -1.443,4.222 -3.397,5.329 -2.312,1.26 -4.071,1.9 -5.233,1.868 -1.628,-0.022 -1.943,-1.097 -1.986,-1.726 -0.011,-0.055 -0.011,-0.109 -0.011,-0.152 0.011,-0.445 0.326,-0.782 0.554,-1.01 0.087,-0.119 0.249,-0.271 0.249,-0.358 0,-0.011 0.022,-0.185 -0.249,-0.565 -2.302,-3.604 -8.164,-13.004 -13.048,-23.1 -4.983,-3.701 -11.637,-7.295 -13.2,-7.598 0,0.369 0.086,0.792 0.271,1.313 0.619,2.019 1.845,4.483 3.137,7.11 1.172,2.399 2.388,4.853 3.278,7.197 0.891,2.313 1.314,4.451 1.281,6.481 0,0.228 -0.011,0.423 -0.011,0.64 -0.26,4.147 -4.222,6.025 -6.285,6.112 -1.552,-0.022 -1.661,-1.314 -1.758,-2.345 -0.065,-0.608 -1.238,-4.472 -3.593,-6.839 l -1.509,-1.617 c -2.215,-2.399 -4.722,-5.135 -11.149,-10.465 -2.355,-1.888 -3.213,-2.225 -3.484,-2.279 v 0.021 c -0.011,0 -0.011,0.011 -0.011,0.022 0,0.467 0.315,1.455 0.619,2.334 0.499,1.259 1.834,3.17 3.343,5.384 3.061,4.429 6.861,9.933 6.795,14.373 0,0.119 0,0.239 -0.01,0.336 -0.131,2.085 -1.39,5.71 -8.392,6.807 -0.434,0.065 -0.857,-0.066 -1.183,-0.369 -0.325,-0.294 -0.521,-0.717 -0.532,-1.086 0,-0.011 0,-0.033 0.022,-0.033 0.033,-0.683 0.38,-1.031 0.716,-1.15 -0.206,-0.88 -1.639,-3.387 -3.039,-5.84 -3.669,-6.438 -9.195,-16.066 -9.097,-22.84 0,-0.185 0.011,-0.358 0.022,-0.543 0.315,-5.124 4.19,-6.98 6.546,-6.936 4.244,0.054 8.597,5.015 13.221,10.28 1.716,1.932 3.474,3.908 5.178,5.579 -1.335,-3.028 -2.029,-5.71 -2.008,-7.989 0.011,-0.174 0.022,-0.337 0.033,-0.51 0.152,-2.693 1.389,-5.016 3.495,-6.535 0.999,-0.706 1.943,-1.032 2.985,-1.01 3.148,0.033 8.077,3.04 11.225,5.2 -3.051,-6.958 -6.351,-14.622 -6.275,-19.453 -0.01,-0.152 0,-0.304 0.011,-0.445 0.055,-0.814 0.207,-1.596 0.348,-2.193 0.575,-2.54 3.68,-6.448 6.611,-6.394 0.911,0 1.856,0.597 2.496,1.531 0.717,1.151 0.847,1.552 0.825,1.856 -0.021,0.434 -0.315,0.89 -1.053,0.89 -0.434,-0.01 -0.922,-0.152 -1.53,-0.38 l -0.348,-0.13 c 0,0 -0.249,-0.108 -0.325,-0.13 -0.022,0.054 -0.044,0.13 -0.055,0.326 -0.01,0.032 0,0.076 0,0.097 -0.065,4.625 12.842,27.215 18.921,34.944 0.793,1.107 3.051,3.766 4.136,4.765 7.121,6.209 13.189,10.41 19.692,10.714 0.629,0.011 0.912,-0.043 1.02,-0.097 -0.043,-1.194 -3.332,-6.796 -8.673,-10.877 -2.725,-2.095 -5.895,-3.93 -8.663,-5.558 -3.767,-2.204 -7.012,-4.093 -8.25,-6.003 -1.389,-2.204 -1.693,-3.843 -1.682,-4.864 0,-0.054 0.01,-0.13 0.01,-0.217 0.109,-1.715 1.184,-2.323 2.074,-2.312 0.673,0.011 1.27,0.38 1.693,1.021 0.261,0.217 2.106,1.02 4.06,1.878 4.516,1.964 12.093,5.254 18.074,9.27 C -2.833,-8.25 0.25,-4.179 0,0" /></g><g
           transform="translate(91.9845,284.1638)"
           id="g36"><path
             id="path38"
             style="fill:#231f20;fill-opacity:1;fill-rule:nonzero;stroke:none"
             d="M 0,0 H -0.033 Z" /></g></g></g></g></svg>