<svg xmlns="http://www.w3.org/2000/svg" xmlns:xlink="http://www.w3.org/1999/xlink" xmlns:inkscape="http://www.inkscape.org/namespaces/inkscape" version="1.1" width="453.546" height="453.546" viewBox="0 0 453.546 453.546">
<defs>
<clipPath id="clip_1">
<path transform="matrix(1,0,0,-1,0,453.546)" d="M0 453.546H453.546V0H0Z"/>
</clipPath>
</defs>
<g inkscape:groupmode="layer" inkscape:label="Calque 1">
<g clip-path="url(#clip_1)">
<path transform="matrix(1,0,0,-1,167.2257,179.6377)" d="M0 0H14.827C23.003 0 30.385-2.76 28.537-12.225 27.067-19.823 19.829-24.205 12.757-25.175L12.611-25.909C18.49-26.467 26.532-29.218 24.579-39.263 22.416-50.406 11.468-55.124 1.921-55.124H-6.516L-5.586-50.406H.33C4.774-50.406 10.632-46.547 11.942-39.83 13.663-30.914 7.799-27.85-1.234-28.511L-.307-23.801C3.414-23.801 7.951-24.132 11.158-21.776 14.076-19.659 15.663-16.525 16.28-13.371 17.402-7.542 14.695-4.37 9.36-4.37 8.057-4.37-.906-4.692-.906-4.692L-10.781-55.124H-21.825L-11.103 0H0 .015Z" fill="#231f20"/>
<path transform="matrix(1,0,0,-1,237.4489,199.75399)" d="M0 0C4.394 3.005 10.193 4.563 14.859 4.563 21.65 4.563 29.683 1.815 28.125-6.259L22.334-35.43H11.313L12.33-30.034C12.33-30.034 12.354-30.51 12.298-30.244 9.486-33.963 5.005-36.138 .795-36.138-5.844-36.138-10.053-32.481-8.694-25.441-7.203-17.762-2.073-15.496 8.518-13.07 10.62-12.573 12.833-12.114 14.827-10.962 15.973-10.071 16.423-9.018 16.66-7.808 17.414-3.923 14.073-.696 10.36-.696 5.168-.696 .289-4.253-.488-5.7H-1.049ZM15.271-14.388C13.289-15.195 9.881-15.865 7.437-17.54 5.259-19.054 4.394-21.261 3.941-23.573 3.411-26.283 3.683-29.4 6.814-29.4 11.258-29.4 13.047-25.102 13.888-21.474Z" fill="#231f20"/>
<path transform="matrix(1,0,0,-1,305.4738,235.16669)" d="M0 0H-10.761L-9.624 5.92C-14.225 1.871-17.543-.725-23.223-.725-27.344-.725-31.311 .824-33.08 4.288-34.907 7.773-33.548 12.795-32.75 16.826L-28.397 39.263H-17.212L-21.574 16.92C-21.922 15.049-22.454 11.915-21.977 10.208-21.407 7.679-19.887 5.996-17.046 5.996-10.009 5.996-8.653 13.032-7.662 18.127L-3.537 39.263H7.624Z" fill="#231f20"/>
<path transform="matrix(1,0,0,-1,318.0469,224.88379)" d="M0 0C.678-4.031 3.537-6.881 7.899-6.881 10.723-6.881 14.517-4.783 15.084-1.953 16.552 5.654-2.675 2.751 .035 16.826 1.649 25.093 9.091 29.692 16.458 29.692 20.492 29.692 24.69 28.411 27.456 25.897 26.248 23.471 25.167 21.115 24.12 18.779H21.884C21.901 22.243 19.136 25.588 15.505 25.588 12.573 25.588 9.237 24.196 8.577 20.878 7.074 13.014 26.871 16.99 23.918 1.935 22.471-5.581 15.578-11.006 5.791-11.006 1.815-11.006-1.833-9.954-4.73-7.679-3.739-5.113-2.841-2.602-2.017 0Z" fill="#231f20"/>
<path transform="matrix(1,0,0,-1,360.3877,215.5725)" d="M0 0C-1.871-8.34-.275-15.058 8.323-15.058 11.637-15.058 15.581-13.526 18.513-11.401L19.317-12.152 16.68-16.66C12.994-18.934 8.34-20.317 4.379-20.317-9.036-20.317-14.351-12.216-11.787 .953-9.568 12.298-1.21 20.381 10.521 20.381 23.223 20.381 26.283 11.565 23.149 0ZM12.281 4.215C13.067 8.302 14.187 16.449 9.585 16.449 3.978 16.449 1.85 8.302 .88 4.215Z" fill="#231f20"/>
<path transform="matrix(1,0,0,-1,229.4479,205.25299)" d="M0 0C1.845 4.005 1.21 8.247-1.421 9.469-4.052 10.685-7.7 8.413-9.545 4.408-11.416 .395-10.764-3.83-8.133-5.069-5.505-6.288-1.848-4.014 0 0" fill="#231f20"/>
<path transform="matrix(1,0,0,-1,206.4592,195.9053)" d="M0 0H11.176L9.214-10.044 8.235-15.157C8.235-15.157 6.896-22.024 6.384-24.617L3.537-39.263H-7.63Z" fill="#231f20"/>
<path transform="matrix(1,0,0,-1,97.9819,176.3298)" d="M0 0C-16.712 0-30.271-13.535-30.271-30.288-30.271-46.998-16.712-60.559 0-60.559 16.724-60.559 30.285-46.998 30.285-30.288 30.285-13.535 16.724 0 0 0M14.605-32.536C14.26-35.22 13.047-37.547 11.158-39.435 9.869-40.736 8.314-41.177 6.744-41.937 6.151-44.878 3.324-46.857 .649-47.895 .032-49.708 .468-51.596 .123-53.484 .123-53.669 .21-53.905 .289-53.999 1.251-54.604 2.447-54.511 3.324-55.206 2.795-55.721 1.938-55.3 1.599-55.721 1.342-55.978 1.69-56.326 1.847-56.674 .374-56.326-1.09-55.978-2.543-55.63-2.029-55.043-1-54.952-.728-54.163-.491-53.575-.728-52.97-.906-52.368-1.09-51.944-1.938-51.944-1.851-51.412-1.851-51.158-1.163-51.505-1.163-51.158-1-49.708-2.029-48.225-1.69-46.767-1.511-46.17-1.163-45.475-.906-44.788-.728-44.007-1.254-43.23-1.938-42.972-3.482-42.467-5.049-42.972-6.428-43.732-6.595-43.826-6.683-43.496-6.595-43.496-6.516-42.467-6.928-40.821-8.226-41.177-9.182-41.341-9.349-42.285-9.691-43.063-10.723-41.508-10.381-39.526-11.161-37.804H-11.418C-12.102-39.619-11.831-41.598-12.009-43.496-13.918-40.903-14.082-37.547-14.865-34.533-15.546-35.568-15.122-36.696-15.122-37.722-15.213-38.921-14.938-40.143-14.774-41.341-14.517-42.551-14.172-43.586-13.824-44.697-13.576-45.384-13.05-45.989-12.886-46.767-12.886-46.857-12.959-46.857-13.05-46.857-14.938-45.308-16.078-43.32-16.999-41.177-18.133-38.675-18.311-36.091-18.724-33.404H-18.999C-19.507-35.477-19.419-37.456-19.256-39.526-19.162-40.564-18.724-41.414-18.724-42.467-20.978-39.344-22.518-35.731-22.957-31.867-23.392-27.897-22.123-23.939-18.999-21.188-16.771-19.209-14.008-18.347-11.071-18.677-5.896-19.291-2.722-24.029-.819-28.408-.038-28.666 .816-28.941 1.435-28.759 2.19-28.502 2.356-27.456 2.631-26.687 1.754-25.222 1.16-23.755 .906-22.05 .649-19.794 .994-17.569 2.356-15.581 2.447-15.414 2.54-15.157 2.631-14.976 2.973-14.195 4.084-13.775 4.084-12.921 4.084-12.564 3.385-12.921 2.973-12.83 2.888-12.83 2.888-12.74 2.888-12.646 3.23-11.869 4.446-11.538 4.353-10.758 4.169-9.808 2.795-10.237 2.19-9.55 2.888-8.945 3.917-8.855 4.61-8.165 4.683-8.092 4.683-7.826 4.61-7.735 4.084-7.314 3.14-7.478 2.888-6.966 2.795-6.791 3.385-6.966 3.663-6.873 4.353-6.7 5.046-6.791 5.733-6.607 5.548-5.499 4.519-4.727 3.753-3.958 3.753-3.868 3.753-3.701 3.841-3.701 5.642-3.958 6.928-5.057 8.404-6.095 8.559-6.186 8.831-6.186 8.995-6.013 9.159-5.756 8.831-5.408 8.995-5.057 9.252-5.332 9.343-5.683 9.6-5.937 10.126-6.607 10.974-7.057 11.415-7.826 11.851-8.779 11.851-9.723 11.918-10.758 12.538-10.851 13.047-10.495 13.549-10.328 13.643-10.328 13.734-10.422 13.643-10.495 12.702-11.538 11.918-12.646 11.579-13.938 12.354-14.535 13.409-14.625 14.26-15.157 13.821-15.663 13.047-15.496 12.538-15.844 12.006-16.259 11.757-16.882 11.918-17.478 12.19-18.347 12.868-19.118 13.047-19.978 13.228-20.583 13.228-21.188 13.047-21.702 12.789-22.381 12.444-23.24 11.579-23.407 10.974-23.497 10.559-22.819 10.465-22.308 10.375-21.96 10.375-21.609 10.375-21.27 10.465-20.51 10.465-19.729 10.22-19.025 10.036-18.77 9.6-18.77 9.527-18.952 8.922-20.144 9.159-21.428 9.6-22.655 10.284-24.561 11.851-25.661 13.137-27.219 14.333-28.759 14.768-30.645 14.605-32.536" fill="#231f20"/>
<path transform="matrix(1,0,0,-1,106.4915,189.03168)" d="M0 0C.322 0 .576 .257 .576 .579 .576 .889 .322 1.163 0 1.163-.33 1.163-.558 .889-.558 .579-.558 .257-.33 0 0 0" fill="#231f20"/>
</g>
</g>
</svg>
