<?xml version="1.0" encoding="UTF-8" standalone="no"?>
<!-- Created with Inkscape (http://www.inkscape.org/) -->

<svg
   version="1.1"
   id="svg1"
   width="5120"
   height="2877.3333"
   viewBox="0 0 5120 2877.3333"
   sodipodi:docname="logo plasteline.ai"
   xmlns:inkscape="http://www.inkscape.org/namespaces/inkscape"
   xmlns:sodipodi="http://sodipodi.sourceforge.net/DTD/sodipodi-0.dtd"
   xmlns="http://www.w3.org/2000/svg"
   xmlns:svg="http://www.w3.org/2000/svg">
  <defs
     id="defs1">
    <clipPath
       clipPathUnits="userSpaceOnUse"
       id="clipPath2">
      <path
         d="M 0,2158 H 3840 V 0 H 0 Z"
         transform="translate(-761.15559,-1327.0342)"
         id="path2" />
    </clipPath>
    <clipPath
       clipPathUnits="userSpaceOnUse"
       id="clipPath4">
      <path
         d="M 0,2158 H 3840 V 0 H 0 Z"
         transform="translate(-1050.7822,-1051.496)"
         id="path4" />
    </clipPath>
    <clipPath
       clipPathUnits="userSpaceOnUse"
       id="clipPath7">
      <path
         d="M 0,2158 H 3840 V 0 H 0 Z"
         transform="translate(-1562.1894,-837.77262)"
         id="path7" />
    </clipPath>
    <clipPath
       clipPathUnits="userSpaceOnUse"
       id="clipPath9">
      <path
         d="M 0,2158 H 3840 V 0 H 0 Z"
         transform="translate(-1810.3618,-826.4918)"
         id="path9" />
    </clipPath>
    <clipPath
       clipPathUnits="userSpaceOnUse"
       id="clipPath14">
      <path
         d="M 0,2158 H 3840 V 0 H 0 Z"
         transform="translate(-2842.5532,-837.77262)"
         id="path14" />
    </clipPath>
    <clipPath
       clipPathUnits="userSpaceOnUse"
       id="clipPath16">
      <path
         d="M 0,2158 H 3840 V 0 H 0 Z"
         transform="translate(-3336.4076,-974.4059)"
         id="path16" />
    </clipPath>
    <clipPath
       clipPathUnits="userSpaceOnUse"
       id="clipPath18">
      <path
         d="M 0,2158 H 3840 V 0 H 0 Z"
         transform="translate(-3404.409,-1265.2517)"
         id="path18" />
    </clipPath>
  </defs>
  <sodipodi:namedview
     id="namedview1"
     pagecolor="#ffffff"
     bordercolor="#000000"
     borderopacity="0.25"
     inkscape:showpageshadow="2"
     inkscape:pageopacity="0.0"
     inkscape:pagecheckerboard="0"
     inkscape:deskcolor="#d1d1d1">
    <inkscape:page
       x="0"
       y="0"
       inkscape:label="1"
       id="page1"
       width="5120"
       height="2877.3333"
       margin="1053.9854 544.67999 1053.9867 544.67731"
       bleed="0" />
  </sodipodi:namedview>
  <g
     id="layer-MC0"
     inkscape:groupmode="layer"
     inkscape:label="Calque 14">
    <path
       id="path1"
       d="m 0,0 c -0.163,0.082 -0.244,0.163 -0.407,0.244 -35.754,23.13 -85.026,40.233 -139.43,40.233 -0.815,0 -1.711,0 -2.525,-0.082 -1.629,0.082 -3.339,0.082 -4.968,0.082 -1.222,0 -2.524,0 -3.746,-0.082 -0.407,0 -0.815,0.082 -1.222,0 -0.814,0.082 -1.71,0.082 -2.606,0.082 -54.567,0 -104.002,-17.266 -139.838,-40.477 -0.081,-0.082 -0.162,-0.082 -0.244,-0.163 -35.59,-23.293 -57.661,-52.368 -57.661,-75.986 0,-5.294 1.222,-10.425 3.339,-15.393 l -0.081,-0.081 c 0.081,-0.163 0.244,-0.408 0.325,-0.57 1.141,-2.607 2.525,-5.294 4.235,-7.819 20.28,-39.092 32.578,-90.727 32.578,-147.33 0,-59.534 -13.602,-113.613 -35.754,-153.357 h 0.407 c -3.258,-6.189 -5.049,-12.623 -5.049,-19.22 0,-23.782 22.152,-52.938 57.905,-76.149 0,0 0.082,0 0.082,-0.082 35.835,-23.129 85.189,-40.395 139.756,-40.395 0.896,0 1.792,0 2.606,0.081 0.407,-0.081 0.815,0 1.222,0 1.222,-0.081 2.524,-0.081 3.746,-0.081 1.629,0 3.339,0 4.968,0.081 0.814,-0.081 1.71,-0.081 2.525,-0.081 53.833,0 102.781,16.777 138.371,39.581 0.489,0.244 0.977,0.57 1.466,0.896 84.538,50.25 141.222,142.525 141.222,247.993 C 141.222,-142.525 84.538,-50.25 0,0"
       style="fill:#f9a70d;fill-opacity:1;fill-rule:nonzero;stroke:none"
       transform="matrix(1.3333333,0,0,-1.3333333,1014.8741,1107.9544)"
       clip-path="url(#clipPath2)" />
  </g>
  <g
     id="layer-MC1"
     inkscape:groupmode="layer"
     inkscape:label="Calque 13">
    <path
       id="path3"
       d="m 0,0 c -40.111,-35.099 -79.598,-36.98 -130.358,-36.98 h -36.362 v -176.745 h -85.853 v 463.798 h 122.215 C -79.598,250.073 -40.111,248.192 0,213.1 31.968,185.519 43.88,147.914 43.88,106.547 43.88,65.179 31.968,27.574 0,0 M -136.002,169.851 H -166.72 V 43.249 h 27.574 c 44.505,0 97.154,6.268 97.154,63.298 0,56.411 -49.511,63.304 -94.01,63.304"
       style="fill:#231f20;fill-opacity:1;fill-rule:nonzero;stroke:none"
       transform="matrix(1.3333333,0,0,-1.3333333,1401.0429,1475.3387)"
       clip-path="url(#clipPath4)" />
  </g>
  <g
     id="layer-MC2"
     inkscape:groupmode="layer"
     inkscape:label="Calque 12">
    <path
       id="path5"
       d="m 1137.893,1301.576 h 83.353 V 837.778 h -83.353 z"
       style="fill:#231f20;fill-opacity:1;fill-rule:nonzero;stroke:none"
       transform="matrix(1.3333333,0,0,-1.3333333,0,2877.3333)" />
  </g>
  <g
     id="layer-MC3"
     inkscape:groupmode="layer"
     inkscape:label="Calque 11">
    <path
       id="path6"
       d="m 0,0 v 43.249 c -27.574,-32.593 -78.973,-54.53 -121.59,-54.53 -104.672,0 -169.233,88.372 -169.233,187.401 0,99.653 71.454,183.638 174.238,183.638 38.237,0 74.592,-15.669 102.798,-41.368 3.756,-3.763 9.4,-9.4 12.537,-14.412 H 0 v 43.874 H 76.46 L 76.46,0 Z m -104.047,283.298 c -62.042,0 -103.409,-51.399 -103.409,-110.941 0,-58.285 43.867,-107.171 103.409,-107.171 62.054,0 101.534,50.135 101.534,109.677 0,59.542 -40.111,108.435 -101.534,108.435"
       style="fill:#231f20;fill-opacity:1;fill-rule:nonzero;stroke:none"
       transform="matrix(1.3333333,0,0,-1.3333333,2082.9191,1760.3032)"
       clip-path="url(#clipPath7)" />
  </g>
  <g
     id="layer-MC4"
     inkscape:groupmode="layer"
     inkscape:label="Calque 10">
    <path
       id="path8"
       d="m 0,0 c -38.862,0 -79.598,15.037 -104.047,45.748 -18.175,23.193 -23.818,46.38 -26.324,75.217 h 85.241 c 5.644,-25.074 16.918,-44.498 45.755,-44.498 20.055,0 37.598,13.786 37.598,35.092 0,6.268 -1.25,12.537 -5.005,18.174 -11.288,15.675 -55.787,27.581 -73.329,33.849 -46.38,16.293 -77.723,48.261 -77.723,99.653 0,63.305 55.779,107.803 116.571,107.803 60.798,0 110.94,-45.755 113.446,-106.546 H 30.705 c -3.756,18.174 -14.412,30.08 -33.218,30.08 -17.543,0 -31.968,-12.531 -31.968,-30.08 0,-18.181 14.425,-23.193 28.837,-28.83 C 4.38,231.899 14.412,228.761 24.436,225.63 78.341,208.706 121.59,186.144 121.59,121.59 121.59,52.642 68.941,0 0,0"
       style="fill:#231f20;fill-opacity:1;fill-rule:nonzero;stroke:none"
       transform="matrix(1.3333333,0,0,-1.3333333,2413.8157,1775.3443)"
       clip-path="url(#clipPath9)" />
  </g>
  <g
     id="layer-MC5"
     inkscape:groupmode="layer"
     inkscape:label="Calque 9">
    <path
       id="path10"
       d="M 0,0 V -273.892 H -83.367 V 0 h -40.736 v 73.954 h 40.736 V 189.906 H 0 V 73.954 H 50.135 L 50.135,0 Z"
       style="fill:#231f20;fill-opacity:1;fill-rule:nonzero;stroke:none"
       transform="matrix(1.3333333,0,0,-1.3333333,2774.7927,1395.1136)" />
  </g>
  <g
     id="layer-MC6"
     inkscape:groupmode="layer"
     inkscape:label="Calque 8">
    <path
       id="path11"
       d="m 2165.061,1301.576 h 83.354 v -76.467 h -83.354 z m 0,-115.953 h 83.354 V 837.771 h -83.354 z"
       style="fill:#231f20;fill-opacity:1;fill-rule:nonzero;stroke:none"
       transform="matrix(1.3333333,0,0,-1.3333333,0,2877.3333)" />
  </g>
  <g
     id="layer-MC7"
     inkscape:groupmode="layer"
     inkscape:label="Calque 7">
    <path
       id="path12"
       d="m 2316.093,1301.576 h 83.367 V 837.778 h -83.367 z"
       style="fill:#231f20;fill-opacity:1;fill-rule:nonzero;stroke:none"
       transform="matrix(1.3333333,0,0,-1.3333333,0,2877.3333)" />
  </g>
  <g
     id="layer-MC8"
     inkscape:groupmode="layer"
     inkscape:label="Calque 6">
    <path
       id="path13"
       d="m 0,0 v 171.732 c 0,48.261 -8.157,111.566 -70.205,111.566 -21.93,0 -44.498,-12.538 -57.029,-30.712 -15.05,-21.937 -15.05,-61.43 -15.05,-87.122 V 0 h -83.353 v 347.852 h 77.084 v -30.087 c 27.581,26.949 55.169,41.993 95.28,41.993 38.223,0 80.222,-18.8 104.658,-48.261 C 78.341,278.904 83.353,233.78 83.353,193.044 V 0 Z"
       style="fill:#231f20;fill-opacity:1;fill-rule:nonzero;stroke:none"
       transform="matrix(1.3333333,0,0,-1.3333333,3790.0709,1760.3032)"
       clip-path="url(#clipPath14)" />
  </g>
  <g
     id="layer-MC9"
     inkscape:groupmode="layer"
     inkscape:label="Calque 5">
    <path
       id="path15"
       d="m 0,0 h -270.129 c 1.881,-9.4 6.269,-17.549 11.274,-25.075 18.806,-28.823 50.149,-46.373 84.616,-46.373 33.843,0 63.312,13.787 80.23,44.499 h 87.74 c -22.562,-70.823 -94.009,-120.965 -167.97,-120.965 -104.033,0 -183.631,80.854 -183.631,184.269 0,104.041 77.71,186.769 183.007,186.769 C -73.329,223.124 5.019,142.902 5.019,41.992 5.019,28.199 3.137,13.787 0,0 m -174.239,146.665 c -50.76,0 -86.49,-30.087 -98.403,-79.605 h 192.42 c -8.15,50.143 -43.243,79.605 -94.017,79.605"
       style="fill:#231f20;fill-opacity:1;fill-rule:nonzero;stroke:none"
       transform="matrix(1.3333333,0,0,-1.3333333,4448.5433,1578.1255)"
       clip-path="url(#clipPath16)" />
  </g>
  <g
     id="layer-MC10"
     inkscape:groupmode="layer"
     inkscape:label="Calque 4">
    <path
       id="path17"
       d="m 0,0 c 0,5.017 -1.72,9.045 -5.151,12.084 -3.44,3.039 -8.012,4.563 -13.742,4.563 h -22.983 v -52.838 h 15.987 v 17.699 l 12.147,-17.699 H 6.336 l -17.431,21.264 C -3.698,-12.637 0,-7.664 0,0 m -25.889,4.625 h 1.711 c 5.196,0 7.798,-1.809 7.798,-5.418 0,-3.609 -2.602,-5.419 -7.798,-5.419 h -1.711 z m -25.104,18.296 c -8.983,-8.938 -13.475,-19.793 -13.475,-32.564 0,-12.77 4.492,-23.643 13.475,-32.626 8.983,-8.983 19.864,-13.474 32.635,-13.474 12.503,0 23.197,4.509 32.1,13.537 8.894,9.027 13.341,19.882 13.341,32.563 0,12.593 -4.447,23.403 -13.341,32.43 -8.903,9.028 -19.597,13.537 -32.1,13.537 -12.771,0 -23.652,-4.464 -32.635,-13.403 M 7.129,16.906 C 14.268,9.509 17.832,0.615 17.832,-9.776 17.832,-20.167 14.268,-29.061 7.129,-36.458 0,-43.855 -8.546,-47.553 -18.492,-47.553 c -10.222,0 -18.911,3.698 -26.094,11.095 -7.174,7.397 -10.765,16.291 -10.765,26.682 0,10.48 3.591,19.401 10.765,26.753 7.183,7.352 15.872,11.024 26.094,11.024 9.946,0 18.492,-3.699 25.621,-11.095"
       style="fill:#231f20;fill-opacity:1;fill-rule:nonzero;stroke:none"
       transform="matrix(1.3333333,0,0,-1.3333333,4539.2119,1190.3311)"
       clip-path="url(#clipPath18)" />
  </g>
  <g
     id="layer-MC11"
     inkscape:groupmode="layer"
     inkscape:label="Calque 3">
    <path
       id="path19"
       d="m 2465.875,1301.576 h 83.367 v -76.467 h -83.367 z m 0,-115.953 h 83.367 V 837.771 h -83.367 z"
       style="fill:#231f20;fill-opacity:1;fill-rule:nonzero;stroke:none"
       transform="matrix(1.3333333,0,0,-1.3333333,0,2877.3333)" />
  </g>
</svg>
