<?xml version="1.0" encoding="UTF-8" standalone="no"?>
<svg
   xmlns:dc="http://purl.org/dc/elements/1.1/"
   xmlns:cc="http://creativecommons.org/ns#"
   xmlns:rdf="http://www.w3.org/1999/02/22-rdf-syntax-ns#"
   xmlns:svg="http://www.w3.org/2000/svg"
   xmlns="http://www.w3.org/2000/svg"
   viewBox="0 0 604.72803 604.72803"
   height="604.72803"
   width="604.72803"
   xml:space="preserve"
   id="svg2"
   version="1.1"><metadata
     id="metadata8"><rdf:RDF><cc:Work
         rdf:about=""><dc:format>image/svg+xml</dc:format><dc:type
           rdf:resource="http://purl.org/dc/dcmitype/StillImage" /></cc:Work></rdf:RDF></metadata><defs
     id="defs6"><clipPath
       id="clipPath22"
       clipPathUnits="userSpaceOnUse"><path
         id="path20"
         d="M 0,453.546 H 453.546 V 0 H 0 Z" /></clipPath></defs><g
     transform="matrix(1.3333333,0,0,-1.3333333,0,604.728)"
     id="g10"><g
       transform="translate(55.7964,263.0031)"
       id="g12"><path
         id="path14"
         style="fill:#231f20;fill-opacity:1;fill-rule:nonzero;stroke:none"
         d="m 0,0 v -72.46 l 33.382,10.041 -2.248,3.689 -22.534,-4.085 -1.783,23.559 20.335,9.044 -2.097,3.764 -19.529,-4.577 -1.53,19.864 27.514,4.645 -1.544,5.929 z" /></g><g
       id="g16"><g
         clip-path="url(#clipPath22)"
         id="g18"><g
           transform="translate(92.9376,251.2932)"
           id="g24"><path
             id="path26"
             style="fill:#231f20;fill-opacity:1;fill-rule:nonzero;stroke:none"
             d="m 0,0 10.342,-1.414 c 0,0 -0.629,-39.113 7.971,-38.662 0,0 11.038,-1.113 9.426,33.491 l 2.589,-0.983 c 0,0 4.871,-41.046 -12.589,-41.388 0,0 -13.941,-4.337 -17.739,48.956" /></g><g
           transform="translate(150.2963,230.3339)"
           id="g28"><path
             id="path30"
             style="fill:#231f20;fill-opacity:1;fill-rule:nonzero;stroke:none"
             d="m 0,0 c 0,0 35.615,36.701 -20.922,22.33 l 3.996,-43.717 3.155,1.523 0.369,12.576 9.406,4.351 15.041,-29.857 7.76,5.171 z m -14.577,1.059 -1.994,17.042 c 33.361,7.111 1.994,-17.042 1.994,-17.042" /></g><g
           transform="translate(293.0455,230.3339)"
           id="g32"><path
             id="path34"
             style="fill:#231f20;fill-opacity:1;fill-rule:nonzero;stroke:none"
             d="m 0,0 c 0,0 35.615,36.701 -20.922,22.33 l 3.996,-43.717 3.155,1.523 0.369,12.576 9.406,4.351 15.041,-29.857 7.76,5.171 z m -14.577,1.059 -1.994,17.042 c 33.361,7.111 1.994,-17.042 1.994,-17.042" /></g><g
           transform="translate(208.5929,246.9454)"
           id="g36"><path
             id="path38"
             style="fill:#231f20;fill-opacity:1;fill-rule:nonzero;stroke:none"
             d="m 0,0 8.504,3.374 7.33,-31.346 13.552,17.521 18.395,-16.011 7.22,28.101 3.77,-2.575 -11.052,-42.787 -19.583,22.582 -19.085,-21.64 z" /></g><g
           transform="translate(348.6248,254.5234)"
           id="g40"><path
             id="path42"
             style="fill:#231f20;fill-opacity:1;fill-rule:nonzero;stroke:none"
             d="m 0,0 0.779,-4.283 3.996,0.471 9.713,-52.5 5.212,2.425 -1.127,19.795 c 0,0 30.936,5.84 30.547,24.283 0,0 1.571,14.092 -49.12,9.809 m 16.981,-24.672 -2.719,20.84 c 0,0 27.173,2.186 29.174,-6.277 0,0 2.453,-10.916 -26.455,-14.563" /></g><g
           transform="translate(313.6701,246.121)"
           id="g44"><path
             id="path46"
             style="fill:#231f20;fill-opacity:1;fill-rule:nonzero;stroke:none"
             d="m 0,0 1.496,-2.924 c 0,0 27.575,21.77 24.952,-3.189 0,0 -21.482,10.683 -26.106,-19.611 0,0 -3.081,-25.226 14.002,-26.23 0,0 7.726,-0.376 12.46,14.105 l 0.963,-12.705 5.014,3.156 1.188,40.923 c 0,0 1.598,39.699 -33.969,6.475 m 24.119,-28.566 c -1.018,-8.559 -5.642,-15.048 -10.328,-14.488 -4.686,0.553 -7.657,7.944 -6.639,16.51 1.011,8.559 5.635,15.048 10.321,14.488 4.686,-0.553 7.657,-7.944 6.646,-16.51" /></g><g
           transform="translate(193.1575,252.4722)"
           id="g48"><path
             id="path50"
             style="fill:#231f20;fill-opacity:1;fill-rule:nonzero;stroke:none"
             d="m 0,0 c -2.691,-6.81 -10.273,-7.903 -13.518,-15.034 -3.238,-7.097 -5.314,-23.068 2.637,-27.74 15.205,-5.983 24.413,33.163 10.539,30.766 C 0.362,0.164 11.551,-6.4 13.088,-14.87 15.437,-27.815 7.411,-44.912 -3.948,-50.158 -30.151,-62.269 -32.248,4.618 0,0" /></g></g></g></g></svg>