<svg xmlns="http://www.w3.org/2000/svg" xmlns:xlink="http://www.w3.org/1999/xlink" xmlns:inkscape="http://www.inkscape.org/namespaces/inkscape" version="1.1" width="453.546" height="453.546" viewBox="0 0 453.546 453.546">
<defs>
<clipPath id="clip_1">
<path transform="matrix(1,0,0,-1,0,453.546)" d="M0 453.546H453.546V0H0Z"/>
</clipPath>
</defs>
<g inkscape:groupmode="layer" inkscape:label="Calque 1">
<g clip-path="url(#clip_1)">
<path transform="matrix(1,0,0,-1,64.7152,244.39369)" d="M0 0V4.412H-.127C-2.013 .779-4.798-.652-8.951-.652-18.49-.652-21.795 8.236-21.795 16.414-21.795 24.909-18.554 33.797-8.565 33.797-5.387 33.797-2.659 32.436-.646 30.423V44.501H12.198V0ZM-.646 20.567C-.646 21.864-.583 23.416-1.425 24.454-2.013 25.302-3.178 25.757-4.216 25.757-6.488 25.757-7.457 24.263-7.849 22.251-8.236 20.434-8.495 17.902-8.495 16.085-8.495 13.167-8.299 7.976-4.279 7.976-2.982 7.976-2.14 8.565-1.425 9.666-.519 11.091-.646 12.262-.646 13.882Z" fill="#231f20"/>
<path transform="matrix(1,0,0,-1,115.5751,233.30069)" d="M0 0C-2.013-8.046-9.147-11.742-16.997-11.742-21.864-11.742-26.599-10.704-30.36-7.394-33.93-4.216-35.81 .323-35.81 5.058-35.81 9.539-34.057 14.401-30.942 17.579-27.568 21.086-22.51 22.706-17.775 22.706-6.748 22.706 0 15.572 0 4.672V2.918H-22.187C-22.383-.646-21.086-3.241-17.193-3.241-14.274-3.241-12.648-2.076-12.129 .779ZM-26.53 30.296-11.483 36.652-9.28 30.296-24.846 25.884ZM-12.977 9.407C-12.977 12.648-14.015 15.116-17.643 15.116-21.016 15.116-22.383 12.458-22.251 9.407Z" fill="#231f20"/>
<path transform="matrix(1,0,0,-1,150.0867,231.939)" d="M0 0C-1.171-8.565-7.267-13.104-15.699-13.104-20.497-13.104-24.39-12.002-27.897-8.565-31.271-5.191-32.828-.715-32.828 4.026-32.828 14.015-25.948 21.345-15.762 21.345-7.59 21.345-1.102 16.541-.127 8.242L-11.483 7.267-11.546 7.59C-12.002 9.862-12.521 12.458-15.376 12.458-19.459 12.458-19.459 7.071-19.459 4.153-19.459 1.038-19.396-4.02-15.18-4.02-12.388-4.02-11.35-1.494-11.027 .911Z" fill="#231f20"/>
<path transform="matrix(1,0,0,-1,187.4526,228.1124)" d="M0 0C0-10.053-8.109-16.933-18.231-16.933-28.347-16.933-36.462-10.053-36.462 0-36.462 10.641-28.606 17.516-18.231 17.516-7.849 17.516 0 10.641 0 0M-22.706 .456C-22.706-8.432-20.567-9.084-18.231-9.084-15.895-9.084-13.755-8.432-13.755 .456-13.755 3.633-13.819 9.407-18.231 9.407-22.643 9.407-22.706 3.633-22.706 .456" fill="#231f20"/>
<path transform="matrix(1,0,0,-1,202.1133,211.24379)" d="M0 0V-4.735H.127C1.494-.715 5.127 .646 9.534 .646 18.877 .646 21.991-8.432 21.991-16.218 21.991-19.915 21.409-24.131 19.655-27.378 17.516-31.334 14.078-33.803 9.47-33.803 6.033-33.803 2.918-32.499 .905-29.581V-43.596H-11.939V0ZM.975-20.244C.975-22.574 1.361-25.625 4.476-25.625 6.292-25.625 7.457-24.65 7.976-22.902 8.501-21.086 8.628-18.75 8.628-16.87 8.628-14.142 8.691-7.59 4.608-7.59 3.501-7.59 2.463-8.109 1.748-8.951 .905-9.989 .975-11.027 .975-12.325Z" fill="#231f20"/>
<path transform="matrix(1,0,0,-1,247.9123,244.39369)" d="M0 0C-.323 1.494-.456 3.051-.456 4.602-3.051 .779-6.748-.652-11.287-.652-17.452-.652-22.833 2.722-22.833 9.343-22.833 14.597-18.75 18.098-14.142 19.528-9.926 20.82-5.45 21.345-1.102 21.605V21.864C-1.102 24.846-1.88 26.011-4.995 26.011-7.526 26.011-9.666 25.106-10.058 22.314L-21.864 23.416C-19.915 31.657-12.065 33.797-4.608 33.797-.715 33.797 4.279 33.278 7.526 30.942 11.869 27.897 11.35 23.612 11.35 18.877V7.267C11.35 4.798 11.419 2.336 12.388 0ZM-1.102 15.503C-4.216 15.18-9.407 14.205-9.407 10.185-9.407 8.046-8.046 7.134-6.033 7.134-1.171 7.134-1.102 11.223-1.102 14.857Z" fill="#231f20"/>
<path transform="matrix(1,0,0,-1,260.2361,219.67749)" d="M0 0V8.432H5.387L6.356 19.009 17.516 19.396V8.432H24.131V0H17.648V-11.419C17.648-13.819 17.389-15.699 20.434-15.699 21.668-15.699 22.902-15.439 24.131-15.116V-24.39L16.541-25.365C13.104-25.821 9.799-24.713 7.267-21.991 4.735-19.269 4.798-16.085 4.798-12.521V0Z" fill="#231f20"/>
<path transform="matrix(1,0,0,-1,319.0752,231.939)" d="M0 0C-1.165-8.565-7.267-13.104-15.699-13.104-20.497-13.104-24.39-12.002-27.897-8.565-31.271-5.191-32.828-.715-32.828 4.026-32.828 14.015-25.948 21.345-15.762 21.345-7.59 21.345-1.102 16.541-.133 8.242L-11.483 7.267-11.546 7.59C-12.002 9.862-12.521 12.458-15.376 12.458-19.459 12.458-19.459 7.071-19.459 4.153-19.459 1.038-19.396-4.02-15.18-4.02-12.388-4.02-11.35-1.494-11.027 .911Z" fill="#231f20"/>
<path transform="matrix(1,0,0,-1,340.4175,244.39369)" d="M0 0V20.63C0 22.833-.456 24.713-3.114 24.713-4.343 24.713-5.45 24.131-6.165 23.093-6.875 22.187-6.938 21.016-6.875 19.915V0H-19.719V44.501H-6.875V29.258C-4.412 32.24-1.425 33.797 2.463 33.797 5.71 33.797 9.147 32.892 10.964 30.164 12.844 27.309 12.844 24.131 12.844 20.757V0Z" fill="#231f20"/>
<path transform="matrix(1,0,0,-1,352.0134,207.262)" d="M0 0C0 1.39 1.125 2.509 2.526 2.509 3.916 2.509 5.052 1.39 5.052 0 5.052-1.407 3.916-2.526 2.526-2.526 1.125-2.526 0-1.407 0 0M4.308 0C4.308 1.119 3.605 1.846 2.526 1.846 1.425 1.846 .744 1.119 .744 0 .744-1.136 1.425-1.857 2.526-1.857 3.605-1.857 4.308-1.136 4.308 0M3.778-1.309H3.12L2.515-.231H2.065V-1.309H1.494V1.35H2.803C3.518 1.35 3.858 1.153 3.858 .513 3.858 .012 3.599-.196 3.12-.231ZM2.815 .185C3.12 .179 3.334 .248 3.334 .583 3.334 .957 2.941 .929 2.676 .929H2.065V.185Z" fill="#231f20"/>
<path transform="matrix(1,0,0,-1,365.433,240.96909)" d="M0 0C1.275-1.055 7.319-3.057 7.319-3.057 9.609-3.962 16.149-5.104 16.149-5.104 16.887-5.104 18.277-7.561 18.277-7.561 18.686-8.703 20.815-12.388 20.815-12.388 22.695-15.491 25.884-15.901 25.884-15.901 30.463-16.31 31.121-11.973 31.121-11.973 31.825-7.919 24.575-2.734 24.575-2.734 23.145-1.303 24.246 .127 24.246 .127 25.313 2.013 27.764 .704 27.764 .704 31.363-1.425 35.533-2.814 35.533-2.814 42.892-4.695 44.449 .375 44.449 .375 45.764 5.369 41.099 7.671 41.099 7.671 37.967 9.534 29.806 8.149 29.806 8.149 25.884 8.149 27.516 11.339 27.516 11.339 28.255 13.38 31.525 12.971 31.525 12.971 33.243 12.561 37.171 12.319 37.171 12.319 45.678 12.319 45.188 18.536 45.188 18.536 45.188 22.626 39.87 24.177 39.87 24.177 33.243 25.405 28.335 20.417 28.335 20.417 26.536 18.617 23.825 19.5 23.825 19.5 21.189 20.122 22.031 23.917 22.031 23.917 22.141 24.719 23.295 29.062 23.295 29.062 24.379 35.758 19.154 37.719 19.154 37.719 12.677 39.899 10.589 34.132 10.589 34.132 9.776 30.567 11.915 27.672 11.915 27.672 12.417 26.853 12.579 26.219 12.579 26.219 12.931 24.581 10.358 23.785 10.358 23.785 6.148 22.839 .594 18.139 .035 17.464V17.469C.035 17.469-2.67 15.324-2.67 8.495-2.67 8.495-2.601 1.724-.029 .029" fill="#231f20"/>
</g>
</g>
</svg>
