<svg xmlns="http://www.w3.org/2000/svg" xmlns:xlink="http://www.w3.org/1999/xlink" xmlns:inkscape="http://www.inkscape.org/namespaces/inkscape" version="1.1" width="113.386" height="113.386" viewBox="0 0 113.386 113.386">
<defs>
<clipPath id="clip_1">
<path transform="matrix(1,0,0,-1,0,113.386)" d="M0 113.386H113.386V0H0Z"/>
</clipPath>
</defs>
<g inkscape:groupmode="layer" inkscape:label="Calque 1">
<g clip-path="url(#clip_1)">
<path transform="matrix(1,0,0,-1,15.3916,92.828807)" d="M0 0C.07-.034 .265-.084 .501-.084 .98-.084 1.462 .117 1.462 .758 1.462 1.337 1.024 1.598 .471 1.598 .214 1.598 .113 1.563 .063 1.518 .014 1.473 0 1.427 0 1.303ZM.572 1.868C1.048 1.868 1.448 1.794 1.726 1.612 1.987 1.446 2.183 1.167 2.183 .785 2.183 .032 1.524-.32 .866-.389 .747-.4 .595-.4 .506-.4L0-.287V-1.034C0-1.526 .033-1.545 .674-1.578V-1.831H-1.269V-1.578C-.666-1.544-.658-1.499-.658-1.034V1.071C-.658 1.579-.751 1.598-1.269 1.615V1.868Z" fill="#231f20"/>
<path transform="matrix(1,0,0,-1,25.2793,91.656009)" d="M0 0C-.177-.442-.416-.969-.61-1.427H.597ZM.623-3.004V-2.751C1.09-2.711 1.099-2.656 1.017-2.462 .924-2.232 .823-1.99 .723-1.759H-.743C-.811-1.926-.893-2.125-.969-2.325-1.092-2.654-1.046-2.707-.499-2.751V-3.004H-2.145V-2.751C-1.64-2.695-1.596-2.683-1.357-2.173L-.023 .716 .33 .78C.759-.215 1.188-1.182 1.618-2.17 1.827-2.648 1.896-2.706 2.413-2.751V-3.004Z" fill="#231f20"/>
<path transform="matrix(1,0,0,-1,35.3875,92.8259)" d="M0 0C.358 0 .583 .056 .74 .163 .979 .316 1.068 .515 1.068 .812 1.068 1.396 .604 1.589 .122 1.589-.098 1.589-.23 1.561-.273 1.521-.318 1.481-.343 1.395-.343 1.275V0ZM2.476-1.891C2.366-1.891 2.245-1.879 2.139-1.868 1.708-1.839 1.403-1.723 1.097-1.344 .876-1.077 .645-.743 .462-.48 .355-.338 .247-.282-.027-.282H-.343V-1.037C-.343-1.518-.281-1.547 .274-1.581V-1.834H-1.6V-1.581C-1.034-1.547-.988-1.523-.988-1.037V1.073C-.988 1.565-1.051 1.584-1.6 1.612V1.865H.177C.664 1.865 1.012 1.819 1.266 1.682 1.561 1.528 1.763 1.261 1.763 .892 1.763 .374 1.368 .073 .929-.085 1.036-.255 1.307-.598 1.503-.854 1.755-1.173 1.843-1.264 2.006-1.406 2.169-1.553 2.381-1.616 2.515-1.65Z" fill="#231f20"/>
<path transform="matrix(1,0,0,-1,43.9272,94.66)" d="M0 0V.253C.56 .281 .611 .305 .611 .797V2.902C.611 3.394 .554 3.418 0 3.446V3.699H1.886V3.446C1.332 3.412 1.269 3.394 1.269 2.902V.797C1.269 .305 1.332 .281 1.886 .253V0Z" fill="#231f20"/>
<path transform="matrix(1,0,0,-1,54.4357,91.9198)" d="M0 0C-.126 .447-.286 .774-.874 .774-1.374 .774-1.54 .46-1.54 .181-1.54-.159-1.259-.351-.738-.556-.177-.781 .47-1.068 .47-1.707 .47-2.354-.128-2.831-1.048-2.831-1.427-2.831-1.821-2.752-2.12-2.642-2.171-2.494-2.266-2.041-2.318-1.695L-2.024-1.631C-1.875-2.124-1.558-2.55-.921-2.55-.451-2.55-.193-2.318-.193-1.933-.193-1.528-.542-1.313-1.068-1.096-1.58-.882-2.172-.59-2.172 .027-2.172 .611-1.637 1.044-.749 1.044-.328 1.044 .014 .958 .178 .93 .203 .73 .235 .484 .292 .04Z" fill="#231f20"/>
<path transform="matrix(1,0,0,-1,68.7556,94.66)" d="M0 0V.207C.478 .241 .531 .281 .531 .7V2.927C.531 3.224 .406 3.241 .121 3.27L-.045 3.281V3.466C.39 3.528 .789 3.642 1.151 3.773V.7C1.151 .292 1.196 .241 1.693 .207V0Z" fill="#231f20"/>
<path transform="matrix(1,0,0,-1,78.0964,92.658908)" d="M0 0C-.236 0-.483-.093-.635-.161-.666-.263-.679-.426-.679-.556-.679-1.287-.387-1.817 .218-1.817 .707-1.817 .893-1.344 .893-.96 .893-.403 .617 0 0 0M-.152 .277C-.006 .345 .164 .38 .302 .38 1.048 .38 1.549-.103 1.549-.748 1.549-1.461 .921-2.075 .09-2.075-.764-2.075-1.368-1.478-1.368-.566-1.368 .67-.289 1.401 .446 1.63 .732 1.716 1.09 1.772 1.369 1.806L1.419 1.571C1.205 1.531 .906 1.463 .648 1.354 .253 1.196-.401 .843-.59 .085Z" fill="#231f20"/>
<path transform="matrix(1,0,0,-1,88.7336,91.0419)" d="M0 0C-.644-1.187-1.323-2.404-1.964-3.629L-2.508-3.665-2.553-3.596C-1.87-2.601-1.089-1.348-.557-.417H-1.994C-2.425-.417-2.482-.479-2.64-.864H-2.89C-2.813-.477-2.78-.169-2.749 .081H-.069Z" fill="#231f20"/>
<path transform="matrix(1,0,0,-1,96.3096,91.139408)" d="M0 0C-.588 0-.756-.752-.756-1.659-.756-2.554-.537-3.342 .007-3.342 .582-3.342 .757-2.573 .757-1.659 .757-.739 .562 0 0 0M0 .258C1.053 .258 1.452-.711 1.452-1.665 1.452-2.59 1.053-3.595 .007-3.595-1.041-3.595-1.464-2.665-1.464-1.671-1.464-.764-1.033 .258 0 .258" fill="#231f20"/>
<path transform="matrix(1,0,0,-1,52.1925,42.035806)" d="M0 0C-3.08 0-5.601 1.381-6.991 2.302-7.785 2.827-8.236 3.31-8.236 3.31-8.253 3.323-8.19 3.323-8.183 3.318-8.162 3.305-7.381 2.797-6.692 2.394-5.351 1.61-2.623 .338 .642 .514 5.387 .771 7.284 2.527 7.3 2.544L7.639 2.183C7.558 2.106 5.589 .322 .672 .02 .447 .007 .221 0 0 0" fill="#231f20"/>
<path transform="matrix(1,0,0,-1,65.9127,38.5924)" d="M0 0C-.506 .15-.664 .385-.827 .631-1.003 .898-1.201 1.201-1.801 1.335-2.341 1.458-2.767 1.274-3.143 1.112-3.338 1.028-3.52 .949-3.713 .91-4.241 .801-4.808 1.16-4.814 1.163L-4.907 1.223-4.999 1.169C-5.148 1.087-8.644-.885-9.655-1.593-10.29-2.038-10.514-2.621-10.522-2.645L-10.51-2.69C-10.508-2.684-10.303-2.153-9.54-1.699-8.646-1.166-5.476 .485-4.913 .804-4.699 .69-4.173 .45-3.642 .556-3.412 .603-3.204 .694-3.001 .782-2.643 .935-2.305 1.079-1.881 .984-1.423 .881-1.293 .682-1.128 .432-.943 .15-.729-.17-.068-.355Z" fill="#231f20"/>
<path transform="matrix(1,0,0,-1,55.0956,26.004403)" d="M0 0C0 0-2.481-1.732-1.964-5.489-1.964-5.489-1.99-1.969 .316-.63 .349-.611 4.445-.691 4.445-.691L0 0" fill="#231f20"/>
<path transform="matrix(1,0,0,-1,52.9706,31.801804)" d="M0 0 5.624-.746C5.624-.746 .349-.696 .306-.721-2.087-2.125-2.167-6.431-2.167-6.431-2.474-1.443 0 0 0 0" fill="#231f20"/>
<path transform="matrix(1,0,0,-1,60.1632,26.856598)" d="M0 0C0 0-1.848-1.33-1.645-4.651-1.645-4.651-1.102-1.256 .332-.592 .367-.576 4.627-.683 4.627-.683L0 0" fill="#231f20"/>
<path transform="matrix(1,0,0,-1,59.7777,32.995004)" d="M0 0C0 0-1.96-1.333-1.879-5.242-1.879-5.242-1.384-1.691 .243-.657 .288-.628 5.15-.734 5.15-.734L0 0" fill="#231f20"/>
<path transform="matrix(1,0,0,-1,56.6382,21.5467)" d="M0 0 4.14-.748C3.204-.803 .164-.572 .164-.572 .164-.572-1.256-1.484-1.31-3.629-1.694-1.202 .11 .103 0 0" fill="#231f20"/>
<path transform="matrix(1,0,0,-1,52.696,22.127205)" d="M0 0 3.037-.547C2.469-.586 .178-.532 .178-.532 .178-.532-.902-1.248-1.192-3.187-1.439-1.248 0 0 0 0" fill="#231f20"/>
<path transform="matrix(1,0,0,-1,51.1469,26.589798)" d="M0 0 2.999-.52C2.431-.581 .192-.581 .192-.581 .192-.581-1.912-1.283-1.788-4.831-2.489-1.324 0 0 0 0" fill="#231f20"/>
<path transform="matrix(1,0,0,-1,49.0417,32.386705)" d="M0 0C0 0-2.766-.858-2.117-5.635-2.117-5.635-2.274-1.739 .065-.553 .127-.521 2.861-.352 2.861-.352L0 0" fill="#231f20"/>
<path transform="matrix(1,0,0,-1,43.3943,31.871705)" d="M0 0 3.823-.57C3.311-.615 .078-.512 .078-.512 .078-.512-1.834-1.736-1.73-4.149-2.246-1.529 0 0 0 0" fill="#231f20"/>
<path transform="matrix(1,0,0,-1,44.0832,35.6168)" d="M0 0 2.601-.405C2.601-.405 .032-.462 .02-.47-1.638-1.71-1.732-4.387-1.733-4.356-1.986-.861 .008-.004 0 0" fill="#231f20"/>
<path transform="matrix(1,0,0,-1,46.5886,47.8272)" d="M0 0C0 0-.085 .096-.234 .261-.374 .434-.56 .699-.752 1.032-.928 1.376-1.131 1.782-1.278 2.244-1.436 2.703-1.563 3.209-1.633 3.727-1.716 4.244-1.724 4.772-1.695 5.27-1.65 5.766-1.572 6.235-1.43 6.62-1.376 6.818-1.294 6.989-1.223 7.142-1.157 7.298-1.087 7.427-1.018 7.528-.886 7.735-.811 7.853-.811 7.853L-.132 7.453C-.132 7.453-.241 7.385-.397 7.117-.448 7.029-.531 6.939-.597 6.812-.671 6.69-.756 6.553-.819 6.385-.974 6.066-1.083 5.655-1.168 5.207-1.236 4.756-1.279 4.262-1.247 3.765-1.227 3.267-1.153 2.77-1.042 2.313-.942 1.852-.784 1.44-.644 1.087-.487 .741-.33 .469-.207 .283-.075 .102 0 0 0 0" fill="#231f20"/>
<path transform="matrix(1,0,0,-1,58.8842,46.138299)" d="M0 0C0 0-.059 .29-.104 .734-.149 1.177-.157 1.776-.066 2.369 .022 2.963 .209 3.54 .376 3.957 .542 4.374 .672 4.644 .672 4.644L.943 4.508C.943 4.508 .799 4.252 .611 3.855 .424 3.46 .206 2.915 .084 2.342-.043 1.771-.073 1.179-.058 .737-.041 .295 0 0 0 0" fill="#231f20"/>
<path transform="matrix(1,0,0,-1,37.0224,47.5075)" d="M0 0V-.107L10.93-.525 9.465 0Z" fill="#231f20"/>
<path transform="matrix(1,0,0,-1,47.6045,44.1512)" d="M0 0C0 0-.651 .022-1.289 .184-1.928 .331-2.544 .579-2.544 .579L-2.369 .926C-2.369 .926-2.237 .846-2.025 .737-1.814 .627-1.527 .488-1.228 .37-.638 .121 0 0 0 0" fill="#231f20"/>
<path transform="matrix(1,0,0,-1,48.0893,45.195199)" d="M0 0C0 0-.739 .075-1.47 .234-1.834 .312-2.198 .405-2.469 .487-2.739 .568-2.923 .64-2.923 .64L-2.757 .991C-2.757 .991-2.603 .907-2.354 .795-2.104 .683-1.764 .544-1.417 .422-.723 .174 0 0 0 0" fill="#231f20"/>
<path transform="matrix(1,0,0,-1,49.6306,46.2611)" d="M0 0C0 0-1.08-.006-2.147 .186-2.682 .273-3.211 .395-3.606 .516-3.803 .576-4.094 .687-4.212 .74-4.328 .788-4.421 1.259-4.326 1.204-2.644 .245 0 0 0 0" fill="#231f20"/>
<path transform="matrix(1,0,0,-1,50.5815,47.310205)" d="M0 0C0 0-.395-.009-.838 .004-1.293 .018-1.666 .036-2.362 .127-2.95 .206-4.069 .366-4.813 .768L-5.008 1.232C-4.039 .675-2.91 .425-2.333 .32-1.757 .212-1.171 .138-.732 .084-.294 .034 0 0 0 0" fill="#231f20"/>
<path transform="matrix(1,0,0,-1,51.5459,48.2959)" d="M0 0C0 0-.536-.062-1.001-.051-1.341-.044-2.083 .011-2.582 .051-3.241 .104-3.913 .176-4.402 .317-4.893 .452-5.085 .599-5.085 .599L-5.394 1.083C-4.177 .454-3.215 .331-2.563 .244-1.911 .155-1.452 .1-.959 .051" fill="#231f20"/>
<path transform="matrix(1,0,0,-1,44.0977,39.7386)" d="M0 0-1.257-.118C-1.257-.118-1.108-.483-.626-.854-.425-1.011 .962-2.03 1.092-2.129 1.098-2.133 1.1-2.135 1.1-2.135 .614-1.898 .139-1.635-.325-1.353-.555-1.209-.784-1.061-1.008-.903-1.23-.738-1.588-.429-1.748-.234-1.299 .272 0 0 0 0" fill="#231f20"/>
<path transform="matrix(1,0,0,-1,42.1592,35.9571)" d="M0 0C0 0 .145-.393 .32-.564 .493-.741 .677-.91 .871-1.075 .389-.902-.181-.429-.495-.064 .102 .39 1.32 .163 1.32 .163Z" fill="#231f20"/>
<path transform="matrix(1,0,0,-1,43.8127,32.116304)" d="M0 0 6.985 5.082 7.073 5.083 .4-.064Z" fill="#231f20"/>
<path transform="matrix(1,0,0,-1,62.0681,47.5075)" d="M0 0-.207-.128 7.055-.458 5.479 0Z" fill="#231f20"/>
<path transform="matrix(1,0,0,-1,66.0745,40.029603)" d="M0 0C0 0-.274-.654-.398-1.355-.479-1.811-.643-2.766-.737-3.369-.896-4.379-1.223-5.233-1.677-5.832-2.415-6.806-2.925-7.193-3.905-7.554L-4.214-7.606C-3.069-6.926-2.564-6.616-1.91-5.55-1.643-5.117-1.323-3.876-1.264-3.294-1.207-2.712-1.095-1.927-1.037-1.438-.955-.736-.701 .11-.701 .11Z" fill="#231f20"/>
<path transform="matrix(1,0,0,-1,60.6331,40.549203)" d="M0 0-.051-.269 3.945-.545Z" fill="#231f20"/>
<path transform="matrix(1,0,0,-1,61.3313,39.3815)" d="M0 0-.473 .067-.586-.517-.113-.584Z" fill="#231f20"/>
<path transform="matrix(1,0,0,-1,62.4433,39.546205)" d="M0 0-.475 .067-.588-.518-.114-.584Z" fill="#231f20"/>
<path transform="matrix(1,0,0,-1,63.5527,39.7006)" d="M0 0-.474 .067-.587-.518-.114-.584Z" fill="#231f20"/>
<path transform="matrix(1,0,0,-1,64.664,39.8453)" d="M0 0-.475 .067-.588-.518-.114-.584Z" fill="#231f20"/>
<path transform="matrix(1,0,0,-1,55.7086,19.937699)" d="M0 0-2.834-.6-.215-.813Z" fill="#231f20"/>
<path transform="matrix(1,0,0,-1,59.5398,18.6352)" d="M0 0-2.911-.656-.21-.846Z" fill="#231f20"/>
<path transform="matrix(1,0,0,-1,63.1562,25.179299)" d="M0 0-2.69-.672-.221-.826Z" fill="#231f20"/>
<path transform="matrix(1,0,0,-1,56.6705,33.634805)" d="M0 0-1.481-5.433-.551 .046Z" fill="#231f20"/>
<path transform="matrix(1,0,0,-1,57.8141,27.726899)" d="M0 0-1.249-4.464-.522 .03Z" fill="#231f20"/>
<path transform="matrix(1,0,0,-1,59.5398,18.6352)" d="M0 0-1.697-7.039-.762-.348Z" fill="#231f20"/>
<path transform="matrix(1,0,0,-1,63.1562,25.179299)" d="M0 0-1.228-4.47-.732-.325Z" fill="#231f20"/>
<path transform="matrix(1,0,0,-1,55.6294,20.2594)" d="M0 0-.985-4.566-.516 .114Z" fill="#231f20"/>
<path transform="matrix(1,0,0,-1,39.0328,66.5232)" d="M0 0C-.573 .619-1.833 .985-3.001 .985-3.528 .985-4.238 .916-4.81 .779-5.062 .733-5.314 .756-5.521 .71-5.773 .641-6.116 .389-6.368 .389H-6.529C-6.574 .389-6.689 .321-6.758 .252-8.293-.206-9.53-.916-10.469-1.489-11.225-1.947-12.004-2.657-12.553-3.184-12.92-3.551-13.378-4.055-13.653-4.421-13.699-4.49-13.676-4.559-13.722-4.627-13.767-4.673-13.882-4.696-13.928-4.742-14.065-5.131-14.409-5.498-14.569-5.796-14.936-6.414-15.233-7.216-15.348-7.926-14.5-8.063-13.676-8.293-12.691-8.293-12.209-8.293-11.729-8.132-11.248-8.063-10.446-7.949-9.713-7.88-9.048-7.743-8.705-7.674-8.384-7.536-8.064-7.422-7.445-7.216-6.758-7.01-6.185-6.758-5.91-6.643-5.681-6.437-5.406-6.3-5.04-6.139-4.582-5.956-4.353-5.796-4.078-5.544-3.505-5.337-3.505-5.337-2.474-4.65-1.649-3.848-.985-3.115H-.962-.871C-.802-3.115-.412-2.451-.275-2.268-.183-2.199 .389-1.306 .389-.733V-.641C.344-.344 .115-.137 0 0M14.5 14.225C14.5 13.836 13.79 13.951 13.401 13.79 12.668 13.47 11.958 12.301 11.5 11.843 11.293 11.545 11.202 11.179 10.927 10.927 10.125 9.644 9.392 8.59 8.59 7.216 8.361 6.826 8.224 6.597 8.063 6.254 8.018 6.185 7.903 6.139 7.857 6.048 7.811 5.956 7.834 5.796 7.789 5.727 7.743 5.612 7.582 5.498 7.468 5.337 6.895 4.421 6.437 3.734 5.658 2.612 5.337 2.176 4.971 1.764 4.673 1.306 3.665-.252 2.451-1.97 1.237-3.574 .825-4.123 .344-4.673-.137-5.2-.206-5.269-.206-5.406-.275-5.452-.527-5.75-.939-6.093-1.237-6.437-2.245-7.582-3.505-8.636-4.879-9.552-4.971-9.621-5.04-9.621-5.131-9.69-5.2-9.713-5.269-9.85-5.337-9.896-5.498-9.965-5.704-9.988-5.864-10.079-5.933-10.125-5.956-10.217-6.048-10.285-6.987-10.881-8.544-11.522-10.079-11.843-10.308-11.889-10.56-11.866-10.789-11.912-11.133-11.958-11.637-12.049-12.118-12.049-13.63-12.049-15.142-11.179-15.875-9.69-16.058-9.323-16.356-8.773-16.333-8.086V-7.926C-16.745-7.72-17.226-7.491-17.57-7.147-17.753-7.01-18.12-6.781-18.349-6.506-18.555-6.277-18.715-5.864-18.715-5.406-18.715-4.65-18.372-4.146-17.891-3.642-17.661-3.413-17.272-3.047-17.135-3.047-17.089-3.047-17.066-3.07-17.066-3.092-17.066-3.184-17.364-3.367-17.433-3.459-17.936-4.123-18.395-4.65-18.395-5.612-18.395-6.254-18.12-6.712-17.364-7.147-17.135-7.307-16.722-7.628-16.333-7.674-15.852-5.269-14.317-3.276-12.416-1.81-12.049-1.535-11.752-1.237-11.179-.985-10.652-.664-9.988-.366-9.3-.069-8.728 .183-8.064 .504-7.285 .71-7.17 .733-7.101 .848-6.964 .848H-6.78C-6.551 .848-6.345 1.008-6.185 1.031-5.979 1.1-5.796 1.077-5.589 1.1-4.948 1.214-4.353 1.283-3.757 1.283-2.062 1.283 .55 .87 .55-.848 .55-1.512 .092-2.245-.458-2.932-.55-3.047-.687-3.138-.779-3.253-.962-3.436-1.26-3.894-1.306-3.894-1.581-4.032-1.833-4.352-2.085-4.559-2.314-4.742-3.047-5.2-2.955-5.2H-3.047C-3.092-5.2-3.115-5.292-3.115-5.337H-3.23C-3.299-5.337-3.276-5.475-3.367-5.475-3.39-5.475-3.436-5.452-3.459-5.452-3.482-5.475-3.505-5.589-3.505-5.589-5.544-6.437-7.032-7.491-9.575-7.995-10.102-8.109-10.629-8.178-11.248-8.27-11.752-8.361-12.187-8.476-12.736-8.476-13.699-8.476-14.5-8.224-15.348-8.132-15.44-8.361-15.463-8.59-15.463-8.796-15.463-9.873-14.752-10.812-14.386-11.179-14.317-11.225-14.248-11.202-14.18-11.247-13.79-11.637-12.759-11.797-12.095-11.797-11.706-11.797-11.316-11.706-10.835-11.706H-10.606C-10.469-11.706-10.354-11.568-10.194-11.568H-9.988C-9.827-11.568-9.782-11.499-9.621-11.454-7.078-10.789-5.796-9.827-3.963-8.521-3.665-8.247-3.276-7.949-2.932-7.605-2.863-7.536-2.749-7.536-2.68-7.468-1.603-6.574-.71-5.246 .183-4.1 .573-3.597 1.031-3.161 1.81-1.81 2.314-1.145 3.001 .023 3.574 1.031 3.642 1.122 3.78 1.191 3.78 1.283 3.78 1.329 3.757 1.352 3.757 1.397 3.757 1.466 3.871 1.466 3.894 1.489 4.673 2.863 5.544 4.261 6.437 5.589 6.551 5.796 6.597 6.093 6.758 6.368 6.803 6.437 6.918 6.506 6.964 6.574 7.17 6.941 7.376 7.536 7.789 8.063 8.178 8.567 8.957 9.759 9.552 10.606 10.194 11.316 11.156 12.599 12.095 13.47 10.927 13.24 9.507 13.011 8.384 12.485 6.895 11.797 5.635 10.675 4.49 9.552 3.665 8.751 3.024 8.018 2.474 6.895 2.13 6.322 1.626 5.658 1.626 4.398 1.626 3.757 1.833 3.115 2.497 3.115 3.367 3.115 4.192 4.169 4.879 4.948 5.314 5.452 6.208 6.643 6.185 6.62 6.231 6.597 6.231 6.574 6.231 6.529 6.231 6.208 5.566 5.315 5.452 5.2 4.627 4.192 3.596 2.932 2.589 2.932 1.81 2.932 1.191 3.711 1.031 3.963 .871 4.215 .779 4.765 .779 5.383 .779 6.712 1.489 7.926 2.268 8.98 3.986 11.362 7.055 12.874 10.858 13.584 11.591 13.722 12.393 13.79 13.057 14.18 13.103 14.203 13.401 14.363 13.332 14.363 13.424 14.432 13.584 14.386 13.722 14.432 13.859 14.477 13.767 14.569 14.088 14.569 14.386 14.569 14.477 14.5 14.5 14.317Z" fill="#c9243f"/>
<path transform="matrix(1,0,0,-1,49.4538,62.949705)" d="M0 0C-.138 0-.206 .069-.252 .069H-.275C-.733-.137-1.352-.71-1.649-1.054-1.695-1.099-1.672-1.168-1.718-1.237-1.741-1.283-1.856-1.306-1.901-1.374-1.947-1.42-1.924-1.512-1.97-1.558-2.062-1.672-2.176-1.741-2.222-1.833-2.268-1.878-2.245-1.947-2.291-2.016-2.36-2.107-2.497-2.199-2.543-2.268-2.635-2.405-2.657-2.543-2.749-2.657-2.818-2.772-2.932-2.817-3.001-2.932-3.092-3.047-3.07-3.207-3.138-3.322-3.207-3.413-3.345-3.505-3.39-3.574-3.711-3.963-4.146-4.925-4.146-5.452-4.146-5.521-4.146-5.589-4.123-5.658-3.528-5.635-3.001-4.994-2.955-4.879-2.749-4.673-2.543-4.536-2.36-4.352-2.131-4.123-1.97-3.871-1.764-3.642-1.672-3.528-1.535-3.436-1.443-3.322-1.122-2.886-.756-2.337-.413-1.833-.16-1.443 .16-1.008 .183-.504 .183-.344 .137-.183 .046 0ZM2.13-.137C2.13-.344 1.901-.504 1.81-.641 1.764-.71 1.787-.802 1.741-.848 1.603-1.054 1.374-1.237 1.214-1.443 .893-1.878 .596-2.359 .298-2.795 0-3.23-.344-3.688-.596-4.169-.779-4.49-1.077-4.925-1.077-5.383-1.077-5.498-1.054-5.818-.916-5.818-.825-5.818-.779-5.658-.71-5.658H-.573C-.504-5.658-.413-5.498-.206-5.406 .573-4.902 1.466-3.092 1.81-3.07 1.832-3.115 1.855-3.138 1.855-3.184 1.855-3.322 1.649-3.482 1.535-3.642 1.489-3.734 1.466-3.894 1.42-3.963 1.306-4.077 1.031-4.444 .756-4.742 .619-4.925 .504-5.154 .366-5.269 .321-5.315 .229-5.292 .183-5.337-.183-5.521-.458-6.002-.939-6.002-1.535-6.002-1.947-5.612-1.947-5.062-1.947-4.627-1.695-4.238-1.512-3.848-1.535-3.848-1.558-3.825-1.581-3.825-1.649-3.825-1.97-4.284-2.039-4.352-2.497-4.948-3.574-5.841-4.032-5.841-4.376-5.841-4.833-5.658-4.833-4.65-4.833-3.78-3.94-2.657-3.39-1.833-3.207-1.581-2.795-1.099-2.497-.848-2.428-.779-2.314-.779-2.222-.71-2.245-.733-2.016-.389-2.039-.458-1.856-.298-.894 .275-.481 .275-.229 .275 .114 .115 .298 0 .344-.206 .366-.435 .366-.664V-.916C.825-.756 .962 .183 1.603 .183 1.787 .183 1.97 .115 2.13-.069Z" fill="#c9243f"/>
<path transform="matrix(1,0,0,-1,54.9735,66.912708)" d="M0 0C-.321-.481-.825-.871-1.42-1.443-1.535-1.512-1.649-1.512-1.741-1.558-2.062-1.741-2.13-1.855-2.451-1.855-3.665-1.855-4.146-1.191-4.146-.366-4.146 .573-3.596 1.741-3.505 1.947-3.001 2.818-1.603 4.375-.389 4.375-.023 4.375 .573 4.261 .573 3.734 .573 2.612-.206 1.42-.916 1.42-.962 1.512-.962 1.604-.962 1.695-.962 2.314-.252 2.382 .069 2.726 .115 2.772 .39 3.184 .39 3.597 .39 3.894 .252 4.169-.137 4.169-.916 4.169-1.558 3.047-1.81 2.795-1.878 2.726-1.901 2.612-1.947 2.52-2.52 1.672-3.459 .092-3.459-.893-3.459-1.397-3.115-1.695-2.657-1.695-2.291-1.695-1.924-1.558-.848-.596-.756-.504-.618-.504-.573-.458-.527-.412-.504-.275-.458-.206-.344-.069-.137 .137 0 .321 .046 .367 .229 .504 .275 .573 .298 .664 .367 .962 .596 .962H.665C.527 .596 .229 .321 0 0" fill="#c9243f"/>
<path transform="matrix(1,0,0,-1,60.4249,63.4536)" d="M0 0C0 .16-.046 .756-.481 .756-1.42 .481-1.993-.16-2.566-.825-3.07-1.397-3.596-2.291-3.757-2.52-4.032-2.818-4.238-3.23-4.353-3.505-4.375-3.551-4.536-3.574-4.559-3.619-4.742-3.963-4.948-4.398-4.948-4.788-4.948-4.902-4.948-4.902-4.833-4.902-4.169-4.902-3.574-4.352-3.276-4.1-3.184-4.055-3.047-4.078-2.978-4.009-2.749-3.825-2.497-3.528-2.268-3.322-1.993-3.047-1.695-2.863-1.489-2.612-1.397-2.52-1.374-2.337-1.283-2.222-1.168-2.085-1.008-2.062-.893-1.924-.802-1.833-.779-1.649-.687-1.535-.344-1.031 0-1.031 0-.229ZM2.199 .366C2.199 .069 1.855-.046 1.695-.229-.046-2.451-1.833-4.719-3.574-7.078-3.642-7.193-3.78-7.239-3.871-7.376-4.215-7.949-4.765-8.636-5.36-9.461-5.589-9.781-5.773-10.194-6.139-10.446-6.116-10.469-6.093-10.469-6.048-10.469-5.864-10.469-5.773-10.194-5.658-10.056-4.696-9.14-3.619-8.063-1.97-7.376-1.695-7.262-1.306-7.01-.779-7.01-.642-7.01 .71-7.193 .71-8.315 .71-8.522 .641-8.751 .596-9.071H.619C.641-9.071 .71-9.117 .71-9.14 .71-9.14 .344-10.033 .206-10.262 .023-10.56-.275-10.744-.596-11.247-.71-11.431-.779-11.408-1.077-11.637-1.145-11.683-1.122-11.843-1.237-11.843H-1.351C-1.443-11.843-1.42-12.049-1.512-12.049-1.558-12.049-1.581-12.026-1.626-12.026-1.741-12.026-1.718-12.232-1.833-12.232H-1.947C-2.039-12.232-2.222-12.485-2.268-12.53-2.428-12.622-2.543-12.576-2.68-12.645-3.803-13.218-5.635-13.973-7.468-13.973-9.003-13.973-11.248-13.034-11.248-11.729-11.248-11.339-11.087-11.064-10.996-10.744-10.904-10.4-10.927-9.965-10.514-9.759-10.423-9.827-10.377-9.896-10.377-9.988-10.377-10.262-10.835-10.675-10.996-10.858-10.973-10.904-10.973-10.95-10.973-10.996-10.973-11.225-11.11-11.499-11.11-11.752-11.064-12.164-10.789-12.439-10.514-12.737-10.514-12.759-10.491-12.759-10.491-12.782-10.491-12.828-10.514-12.874-10.514-12.92-10.514-12.943-10.514-12.943-10.491-12.943-10.446-12.943-10.4-12.92-10.354-12.92-10.331-12.92-10.331-12.943-10.308-12.943-9.69-13.47-8.819-13.767-7.514-13.767-5.75-13.767-1.856-12.599-.596-10.858-.527-10.766 .321-9.575 .321-8.361 .321-7.903 .183-7.628-.092-7.285-.252-7.239-.412-7.216-.573-7.216-1.42-7.216-2.405-7.72-3.161-8.178-3.482-8.384-3.551-8.522-3.871-8.774-3.986-8.865-4.169-8.888-4.261-8.957-5.2-9.804-6.048-10.858-6.735-11.637H-6.78C-6.987-11.637-6.849-12.118-7.147-12.118-7.239-12.118-7.285-12.049-7.422-12.049H-7.537C-7.628-11.935-7.651-11.82-7.651-11.706-7.651-11.225-7.101-10.744-6.849-10.354-6.712-10.171-6.666-9.919-6.551-9.759-6.483-9.667-6.3-9.644-6.254-9.552-6.185-9.461-6.208-9.346-6.139-9.255-4.902-7.468-3.39-5.292-2.085-3.505-2.474-3.597-2.589-3.963-2.863-4.215-2.932-4.284-3.367-4.33-3.367-4.421V-4.582C-3.367-4.604-3.367-4.604-3.39-4.604H-3.528-3.574C-3.78-4.811-4.238-5.131-4.879-5.131-5.383-5.131-5.658-4.536-5.658-3.963-5.658-3.711-5.589-3.39-5.452-3.024-5.292-2.589-4.49-1.672-4.055-1.122-3.826-.825-3.711-.596-3.367-.344-3.299-.275-3.322-.137-3.253-.137-3.207-.137-3.161-.16-3.115-.16-2.978-.16-2.703 .252-2.566 .344-2.039 .687-1.489 .939-.893 .939-.619 .939-.321 .893 0 .756 .069 .481 .252 .114 .252-.16 .252-.229 .229-.298 .206-.344 .229-.389 .275-.412 .298-.412 .321-.412 .687 0 .802 .16 1.054 .458 .871 .825 1.374 .825 1.581 .825 1.855 .71 2.176 .55 2.199 .481 2.199 .435 2.199 .366" fill="#c9243f"/>
<path transform="matrix(1,0,0,-1,66.8381,65.7672)" d="M0 0C-.069-.092-.206-.16-.252-.252-.321-.344-.321-.481-.389-.573-.458-.687-.573-.916-.641-1.031-.71-1.1-.962-1.581-1.008-1.672-1.076-1.764-1.214-1.833-1.26-1.924-1.328-2.039-1.328-2.153-1.397-2.268-1.512-2.451-1.649-2.589-1.649-2.841-1.145-2.749-.389-2.176-.298-2.039-.091-1.741-.069-1.81 .138-1.604 .413-1.329 .665-1.077 .962-.687 1.031-.596 1.306-.183 1.558-.183 1.329-.894 .435-1.489 .023-1.924-.229-2.291-.252-2.222-.573-2.451-.71-2.589-.573-2.589-.916-2.703-1.145-2.863-1.397-3.093-1.787-3.093-2.039-3.093-2.428-2.772-2.428-2.657-2.428-1.695-1.695-1.077-1.397-.367-1.214 .069-1.099 .137-1.053 .206-1.008 .321-1.031 .527-.916 .596-.916 .664-.848 .664-.848 .733-1.718-.137-2.153-1.145-3.459-2.314-3.802-2.612-4.215-3.024-4.604-3.024-5.085-3.024-5.246-2.474-5.246-2.039-5.246-1.627-5.131-.916-5.016-.687-4.994-.619-4.879-.596-4.833-.504-4.764-.412-4.81-.321-4.764-.252-4.719-.183-4.581-.115-4.559-.046-4.513 .046-4.536 .137-4.49 .206-4.192 .779-3.825 1.397-3.459 1.97-3.253 2.268-2.863 2.703-2.863 2.932-2.863 3.024-3.069 3.047-3.069 3.207-2.932 3.276-2.795 3.322-2.657 3.322-2.314 3.322-1.832 3.069-1.832 2.772-1.832 1.833-2.589 1.168-2.932 .55-3.001 .412-3.138 .091-3.207 .023L-3.459-.298C-3.871-.985-4.375-1.81-4.627-2.772-3.894-2.772-3.023-1.558-2.68-1.214-2.611-1.145-2.611-1.031-2.543-.962-2.428-.825-2.268-.71-2.153-.573-2.039-.412-1.901 .091-1.443 .275-1.397 .618-1.099 .802-.916 1.054-.618 1.466-.206 1.97 .046 2.359 .115 2.428 .069 2.543 .115 2.611 .275 2.817 .573 3.115 .504 3.069 .596 3.115 .573 3.276 .802 3.276 1.145 3.276 1.489 3.092 1.558 2.817V2.749C1.558 2.336 1.077 1.924 .893 1.581 .825 1.489 .069 .091 0 0" fill="#c9243f"/>
<path transform="matrix(1,0,0,-1,72.0836,62.6978)" d="M0 0C-.39 0-1.122-.916-1.489-1.351-1.879-1.81-2.199-2.405-2.383-2.863-1.718-2.634-1.237-2.176-.756-1.741-.344-1.26 .206-.893 .275-.069 .183-.023 .091 0 0 0M.344-.641C.16-1.122-.161-1.351-.504-1.741-.55-1.81-.596-1.97-.642-2.016-.687-2.062-.779-2.039-.825-2.084-.962-2.176-1.191-2.428-1.535-2.657-1.604-2.703-1.695-2.68-1.741-2.726-1.764-2.749-1.787-2.84-1.81-2.863-2.062-3.024-2.383-3.092-2.658-3.184-2.909-3.619-3.367-4.375-3.367-5.269-3.367-5.567-3.253-5.864-2.886-5.864-2.085-5.864-1.581-5.04-1.283-4.994-1.26-4.833-.802-4.398-.504-4.032-.435-3.94-.298-3.917-.252-3.825-.138-3.665 0-3.23 .344-3.184V-3.253C.344-3.642-.046-3.871-.252-4.1-.458-4.329-.642-4.627-.894-4.879-1.031-5.017-1.26-5.154-1.42-5.337-1.649-5.589-2.314-6.047-2.772-6.047-3.597-6.047-4.307-5.36-4.307-4.559-4.307-3.001-2.886-1.397-1.993-.504-1.558-.183-.848 .252-.206 .252 .046 .252 .275 .183 .481 0 .481-.046 .458-.092 .458-.137 .458-.229 .481-.298 .481-.389 .458-.504 .389-.527 .344-.641" fill="#c9243f"/>
<path transform="matrix(1,0,0,-1,74.9234,67.897708)" d="M0 0C-.573-.412-1.397-.985-3.024-.985-3.413-.985-3.528-.779-3.528-.779-3.596-.733-3.757-.733-3.848-.641-3.894-.596-3.894-.458-3.986-.321-4.032-.229-4.146-.206-4.169-.137-4.261 .114-4.215 .435-4.238 .71-4.1 .893-3.848 1.077-3.619 1.077-3.528 1.077-3.253 1.008-3.253 .848-3.253 .298-3.596 .137-3.986 0-3.917-.504-3.528-.733-3.115-.733-1.855-.733-.71 1.443-.71 3.115-.71 3.23-.733 3.344-.733 3.459-.893 3.459-1.008 3.299-1.122 3.184-1.764 2.543-2.062 2.107-2.772 1.42-2.795 1.397-2.84 1.397-2.863 1.397-2.886 1.397-2.909 1.42-2.909 1.443-2.909 1.604-2.543 1.855-2.359 2.085-.916 3.528-1.306 3.436-.733 3.894-.756 4.009-.756 4.123-.756 4.238-.756 4.81-.229 5.589 .412 5.589 .573 5.589 .733 5.521 .894 5.406 .894 5.017 .527 4.833 .39 4.559 .023 3.871 .16 3.161 .046 2.337 .046 2.176-.046 1.993-.069 1.833-.115 1.649-.092 1.443-.137 1.306-.16 1.26-.275 1.191-.275 1.168-.481 .481-1.076-.069-1.626-.573-.893-.412-.687-.16-.275 .137-.183 .183-.023 .252 .115 .321 .481 .641 1.374 1.787 1.604 1.787 1.626 1.787 1.649 1.787 1.672 1.764 1.604 1.466 .596 .527 0 0" fill="#c9243f"/>
<path transform="matrix(1,0,0,-1,26.4263,77.6955)" d="M0 0C-1.401-.141-1.53-.237-1.53-1.501V-7.33C-1.53-8.578-1.392-8.674 0-8.823V-9.209H-5.473V-8.823C-4.053-8.668-3.952-8.585-3.952-7.33V-4.364H-8.991V-7.33C-8.991-8.593-8.835-8.674-7.47-8.823V-9.209H-12.933V-8.823C-11.578-8.69-11.413-8.601-11.413-7.33V-1.501C-11.413-.237-11.579-.134-12.933 0V.386H-7.47V0C-8.834-.141-8.991-.237-8.991-1.501V-3.749H-3.952V-1.501C-3.952-.245-4.137-.149-5.473 0V.386H0Z" fill="#c9243f"/>
<path transform="matrix(1,0,0,-1,41.2019,84.4943)" d="M0 0C-.092-.46-.514-2.028-.651-2.41H-9.932V-2.031C-8.3-1.876-8.18-1.802-8.18-.524V5.298C-8.18 6.591-8.334 6.695-9.618 6.799V7.185H-3.831C-1.96 7.185-1.276 7.2-1.075 7.214-1.057 6.796-.974 5.723-.891 4.953L-1.391 4.894C-1.548 5.327-1.823 5.902-2.184 6.229-2.516 6.539-2.842 6.628-3.859 6.628H-5.154C-5.693 6.628-5.767 6.583-5.767 6.188V2.874H-3.969C-2.716 2.874-2.598 3.149-2.331 4.128H-1.83V1.027H-2.331C-2.607 2.005-2.707 2.281-3.977 2.281H-5.767V-.571C-5.767-1.597-5.606-1.846-4.462-1.86H-3.267C-2.205-1.86-1.938-1.75-1.503-1.351-1.108-.992-.778-.468-.473 .087Z" fill="#c9243f"/>
<path transform="matrix(1,0,0,-1,50.2397,82.1509)" d="M0 0C.841 0 1.469 .08 1.894 .391 2.455 .79 2.694 1.328 2.694 2.134 2.694 3.775 1.597 4.366 .555 4.366 .114 4.366-.136 4.323-.246 4.242-.376 4.161-.432 4.022-.432 3.726V0ZM7.163-4.85C7.062-4.85 6.688-4.85 6.467-4.843 4.19-4.762 3.555-4.394 2.964-3.69 2.273-2.886 1.719-2.023 1.111-1.122 .767-.609 .499-.475-.11-.475L-.432-.468V-2.852C-.432-4.071-.285-4.182 1.089-4.368V-4.754H-4.328V-4.368C-2.945-4.189-2.807-4.086-2.807-2.852V2.954C-2.807 4.159-2.954 4.321-4.328 4.455V4.841H.823C2.398 4.841 3.329 4.701 4.086 4.28 4.805 3.889 5.255 3.263 5.255 2.431 5.255 1.026 3.995 .348 2.93 .002 3.207-.418 4.06-1.583 4.594-2.255 5.269-3.112 5.589-3.458 5.968-3.813 6.392-4.204 6.624-4.33 7.254-4.501Z" fill="#c9243f"/>
<path transform="matrix(1,0,0,-1,65.5476,85.0421)" d="M0 0C0-1.04 .552-1.372 1.567-1.365 2.649-1.358 3.569-.596 3.569 .884 3.569 2.338 2.76 3.086 .694 3.086H0ZM.748 3.576C2.453 3.576 3.08 4.158 3.08 5.319 3.08 6.733 2.067 7.236 1.023 7.236 .647 7.236 .332 7.199 .185 7.11 .001 7.006 0 6.828 0 6.472V3.576ZM2.796 3.453C4.762 3.187 6.213 2.426 6.213 1.009 6.213 .01 5.513-.786 4.509-1.243 3.558-1.671 2.283-1.863 .898-1.863H-3.915V-1.477C-2.552-1.32-2.395-1.224-2.395 .032V5.862C-2.395 7.125-2.606 7.204-3.907 7.347V7.733H1.474C2.943 7.733 3.781 7.57 4.481 7.208 5.144 6.854 5.549 6.308 5.549 5.608 5.549 4.322 4.053 3.66 2.796 3.453" fill="#c9243f"/>
<path transform="matrix(1,0,0,-1,76.7256,86.9047)" d="M0 0V.386C1.393 .535 1.521 .631 1.521 1.94V7.656C1.521 8.964 1.365 9.083 0 9.209V9.595H5.473V9.209C4.108 9.06 3.942 8.972 3.942 7.656V1.948C3.942 .623 4.08 .542 5.473 .386V0Z" fill="#c9243f"/>
<path transform="matrix(1,0,0,-1,99.8929,77.6955)" d="M0 0C-1.173-.164-1.486-.34-1.532-1.18-1.568-1.695-1.614-2.128-1.614-3.542V-9.394H-2.352L-10.351-1.708V-5.273C-10.351-6.603-10.323-7.103-10.277-7.561-10.203-8.394-9.959-8.695-8.413-8.823V-9.209H-12.826V-8.823C-11.603-8.704-11.304-8.482-11.212-7.613-11.158-7.082-11.111-6.527-11.111-5.273V-1.584C-11.111-1.188-11.186-.887-11.451-.602-11.859-.157-12.245-.082-13.039 0V.386H-9.479L-2.383-6.23V-3.542C-2.383-2.128-2.42-1.694-2.456-1.217-2.511-.376-2.874-.119-4.443 0V.386H0Z" fill="#c9243f"/>
</g>
</g>
</svg>
