<?xml version="1.0" encoding="UTF-8" standalone="no"?>
<svg
   xmlns:dc="http://purl.org/dc/elements/1.1/"
   xmlns:cc="http://creativecommons.org/ns#"
   xmlns:rdf="http://www.w3.org/1999/02/22-rdf-syntax-ns#"
   xmlns:svg="http://www.w3.org/2000/svg"
   xmlns="http://www.w3.org/2000/svg"
   viewBox="0 0 3345.1868 2060.4133"
   height="2060.4133"
   width="3345.1868"
   xml:space="preserve"
   id="svg2"
   version="1.1"><metadata
     id="metadata8"><rdf:RDF><cc:Work
         rdf:about=""><dc:format>image/svg+xml</dc:format><dc:type
           rdf:resource="http://purl.org/dc/dcmitype/StillImage" /></cc:Work></rdf:RDF></metadata><defs
     id="defs6"><clipPath
       id="clipPath18"
       clipPathUnits="userSpaceOnUse"><path
         id="path16"
         d="M 0,1545.313 H 2508.892 V 0 H 0 Z" /></clipPath></defs><g
     transform="matrix(1.3333333,0,0,-1.3333333,0,2060.4133)"
     id="g10"><g
       id="g12"><g
         clip-path="url(#clipPath18)"
         id="g14"><g
           transform="translate(2159.4536,650.7078)"
           id="g20"><path
             id="path22"
             style="fill:#f9a72b;fill-opacity:1;fill-rule:nonzero;stroke:none"
             d="M 0,0 C -1.437,-4.415 -4.194,-4.573 -6.126,-0.352 L -6.657,0.806 C -8.59,5.027 -9.455,12.211 -8.579,16.77 l 3.655,19.035 c 0.876,4.56 4.587,5.953 8.248,3.098 L 4.115,38.286 C 7.776,35.43 9.595,29.482 8.158,25.067 Z" /></g><g
           transform="translate(2192.0391,633.9504)"
           id="g24"><path
             id="path26"
             style="fill:#f9a72b;fill-opacity:1;fill-rule:nonzero;stroke:none"
             d="m 0,0 c -3.019,-3.527 -5.869,-2.834 -6.333,1.539 -0.465,4.373 1.116,11.204 3.512,15.18 l 51.077,84.776 c 2.396,3.976 7.67,5.374 11.72,3.105 l 12.626,-7.072 c 4.051,-2.268 4.895,-7.01 1.875,-10.537 z" /></g><g
           transform="translate(2223.1602,604.1492)"
           id="g28"><path
             id="path30"
             style="fill:#f9a72b;fill-opacity:1;fill-rule:nonzero;stroke:none"
             d="m 0,0 c -4.399,-1.485 -8.902,0.882 -10.008,5.259 -1.105,4.377 1.39,9.654 5.544,11.726 l 50.342,25.101 c 4.155,2.072 7.519,-0.031 7.477,-4.674 L 53.254,26.393 C 53.212,21.751 49.578,16.738 45.18,15.253 Z" /></g><g
           transform="translate(1207.786,898.6013)"
           id="g32"><path
             id="path34"
             style="fill:#f68913;fill-opacity:1;fill-rule:nonzero;stroke:none"
             d="m 0,0 c -24.773,37.57 -55.051,71.372 -89.593,99.905 -54.343,45.341 -118.215,75.872 -185.301,90.95 -1.457,-3.863 -4.446,-6.941 -8.27,-8.464 -3.257,-1.297 -8.254,-2.844 -13.566,-2.844 -8.817,0 -15.864,4.269 -19.844,12.019 -1.107,2.156 -1.734,4.488 -1.927,6.86 -89.485,11.029 -182.175,-4.827 -263.802,-49.113 -160.755,-86.005 -252.86,-266.399 -226.047,-446.955 15.353,-107.751 71.818,-206.786 156.961,-274.627 154.413,-124.551 377.344,-125.388 531.901,-0.708 0.587,0.474 0.696,1.335 0.236,1.94 -0.469,0.615 -1.348,0.734 -1.963,0.265 -82.975,-63.637 -190.113,-93.422 -293.9,-82.742 -6.019,0.84 -17.052,1.808 -23.11,3.041 -3.753,0.606 -11.572,2.051 -15.304,2.636 -17.195,3.617 -35.789,8.315 -52.383,14.123 -6.784,2.06 -15.15,5.578 -21.788,8.06 -4.639,1.568 -16.723,7.468 -21.294,9.25 -13.402,6.605 -28.141,14.196 -40.697,22.208 -147.872,90.701 -222.844,267.214 -184.38,436.194 25.384,115.654 105.063,217.659 211.005,270.431 68.802,34.784 148.037,48.524 224.571,39.678 118.128,-13.101 227.57,-83.277 289.303,-184.544 8.957,-13.584 27.231,-17.335 40.815,-8.378 C 5.206,-31.857 8.957,-13.584 0,0" /></g><g
           transform="translate(961.4267,1206.5809)"
           id="g36"><path
             id="path38"
             style="fill:#62be32;fill-opacity:1;fill-rule:nonzero;stroke:none"
             d="m 0,0 c -0.169,0.365 -0.142,0.374 -0.545,1.133 -0.916,1.946 -2.077,3.906 -3.363,5.807 -14.258,23.031 -69.023,95.497 -195.608,99.489 -171.187,5.399 -271.831,-51.706 -324.405,-84.399 -26.796,-16.663 -146.784,-109.278 -203.437,-208.093 65.666,42.922 101.906,32.912 122.187,27.842 20.28,-5.07 76.776,-24.626 160.071,5.07 83.294,29.697 178.177,85.872 214.393,109.209 36.215,23.338 109.369,51.586 164.416,52.311 15.458,0.203 27.465,-0.371 36.742,-1.301 0.556,-0.082 1.114,-0.165 1.741,-0.238 6.671,-0.775 2.078,-10.875 -0.095,-18.842 -1.888,-6.923 -29.481,-74.006 -36.68,-91.469 -1.312,-3.18 -1.216,-6.797 0.355,-9.858 6.022,-11.727 18.799,-8.44 24.932,-5.997 2.149,0.856 3.778,2.577 4.543,4.76 5.915,16.862 33.398,95.365 35.981,105.701 C 1.897,-6.2 1.34,-3.167 0,0" /></g><g
           transform="translate(961.4267,1206.5811)"
           id="g40"><path
             id="path42"
             style="fill:#29963d;fill-opacity:1;fill-rule:nonzero;stroke:none"
             d="m 0,0 c -0.169,0.365 -0.142,0.374 -0.545,1.133 -0.916,1.946 -2.077,3.906 -3.363,5.807 -2.227,3.598 -5.444,8.403 -9.768,13.965 -4.561,4.306 -9.354,8.376 -14.284,12.296 -69.316,52.776 -161.531,62.631 -245.907,54.898 -117.435,-14.282 -224.768,-76.716 -316.314,-148.837 -11.281,-9.069 -22.4,-18.349 -33.065,-28.128 10.887,9.528 22.21,18.542 33.684,27.339 23.813,17.874 48.845,35.295 74.881,51.506 -2.247,-1.997 -4.464,-4.027 -6.653,-6.093 -21.22,-20.185 -39.574,-44.05 -50.282,-71.475 -1.015,-2.748 -2.959,-9.027 -3.932,-11.926 0,0 0.227,-0.065 0.227,-0.066 1.038,2.802 3.075,9.094 4.18,11.806 15.567,36.865 44.303,67.182 76.727,89.996 20.821,12.189 42.229,23.508 64.122,33.593 -32.44,-23.181 -57.961,-56.873 -66.92,-96.043 -1.644,-7.09 -2.726,-14.29 -3.453,-21.517 0.873,7.213 2.099,14.378 3.88,21.413 11.568,45.922 45.789,83.851 87.45,105.351 18.222,7.607 36.748,14.305 55.525,19.884 -3.682,-2.211 -7.266,-4.582 -10.732,-7.105 -19.714,-14.79 -35.64,-34.322 -47.24,-55.914 -1.753,-3.334 -4.707,-8.42 -6.11,-11.876 -0.936,-2.208 -6.026,-13.245 -6.664,-15.294 -0.743,-2.07 -2.624,-7.247 -3.399,-9.411 -2.848,-7.151 -5.679,-17.964 -7.85,-25.459 -2.056,-7.389 -4.097,-18.367 -5.859,-25.972 1.905,7.488 4.179,18.489 6.389,25.827 1.469,4.531 4.365,14.639 5.965,19.026 1.726,4.474 4.241,11.036 5.962,15.497 1.631,4.176 6.512,13.98 8.347,18.065 2.339,4.147 5.807,10.255 8.155,14.419 17.316,27.814 42.205,51.931 72.928,63.658 19.925,5.015 40.102,8.719 60.469,10.869 -0.133,-0.06 -0.269,-0.11 -0.402,-0.17 -35.925,-16.768 -54.426,-54.77 -68.533,-89.704 -1.642,-4.543 -4.522,-12.494 -6.2,-17.154 2.288,5.589 5.348,13.844 7.802,19.312 13.674,30.803 31.24,63.649 61.731,80.43 8.197,4.421 17.098,7.158 26.236,8.714 62.766,2.864 127.486,-4.698 184.092,-32.886 24.008,-12.285 47.353,-28.056 64.13,-49.409 0.671,-0.854 3.782,-4.846 4.432,-5.718 L 1.458,-7.42 C 1.662,-5.119 1.103,-2.606 0,0" /></g><g
           transform="translate(808.7892,753.1504)"
           id="g44"><path
             id="path46"
             style="fill:#f57e17;fill-opacity:1;fill-rule:nonzero;stroke:none"
             d="m 0,0 c -2.968,-2.516 -6.796,-4.516 -11.473,-5.995 -4.683,-1.489 -10.108,-2.231 -16.275,-2.231 -8.225,0 -15.025,1.032 -20.382,3.081 -5.375,2.059 -8.864,5.597 -10.456,10.624 -6.393,20.097 -11.65,36.376 -15.753,48.822 -4.113,12.451 -7.317,23.35 -9.601,32.72 h -1.705 c -0.693,-13.483 -1.199,-25.757 -1.553,-36.833 -0.339,-11.075 -0.57,-21.875 -0.678,-32.371 -0.123,-10.51 -0.344,10.727 -0.683,0 -0.344,-10.741 -0.86,-22.613 -1.543,-35.634 -2.978,-1.14 -6.85,-2.113 -11.655,-2.914 -4.796,-0.791 -9.592,-1.199 -14.388,-1.199 -10.053,0 -17.871,1.607 -23.472,4.796 -5.597,3.204 -8.388,9.022 -8.388,17.478 l 9.931,142.87 c 1.828,2.958 5.827,6.167 11.999,9.592 6.162,3.425 14.839,5.134 26.032,5.134 12.108,0 21.591,-1.881 28.441,-5.65 6.854,-3.764 11.871,-9.882 15.07,-18.328 2.059,-5.489 4.29,-11.769 6.683,-18.849 2.402,-7.081 4.8,-14.387 7.193,-21.92 2.403,-7.543 4.742,-15.026 7.032,-22.451 2.275,-7.419 4.334,-14.097 6.157,-20.038 h 1.719 c 5.474,19.193 10.963,37.742 16.442,55.672 5.483,17.93 10.505,32.947 15.08,45.054 3.42,1.823 7.817,3.375 13.188,4.629 5.366,1.252 11.36,1.881 17.989,1.881 11.189,0 20.328,-1.66 27.409,-4.962 7.075,-3.317 11.188,-8.049 12.328,-14.22 0.914,-4.575 1.892,-11.602 2.914,-21.07 1.027,-9.484 2.113,-20.161 3.257,-32.038 1.14,-11.881 2.276,-24.44 3.42,-37.683 1.145,-13.252 2.231,-25.988 3.258,-38.199 1.032,-12.225 1.887,-23.423 2.57,-33.58 0.688,-10.171 1.145,-17.989 1.376,-23.467 -3.892,-2.285 -7.941,-3.941 -12.161,-4.973 -4.236,-1.022 -9.656,-1.538 -16.28,-1.538 -8.687,0 -15.989,1.484 -21.929,4.452 -5.941,2.968 -9.13,8.79 -9.592,17.478 -1.366,24.892 -2.226,47.279 -2.565,67.145 -0.349,19.876 -0.86,36.548 -1.547,50.021 h -1.71 C 23.414,76.398 20.097,65.209 15.763,51.736 11.419,38.258 6.167,21.011 0,0" /></g><g
           transform="translate(954.7477,744.5849)"
           id="g48"><path
             id="path50"
             style="fill:#f9a72b;fill-opacity:1;fill-rule:nonzero;stroke:none"
             d="m 0,0 c -2.521,5.71 -5.203,12.098 -8.054,19.183 -2.864,7.081 -5.827,15.188 -8.908,24.328 -3.086,9.129 -6.285,19.576 -9.596,31.344 -3.312,11.768 -6.801,25.296 -10.452,40.607 3.204,3.189 7.479,5.994 12.849,8.392 5.366,2.398 11.253,3.592 17.65,3.592 7.985,0 14.609,-1.656 19.866,-4.968 5.258,-3.311 9.14,-9.537 11.656,-18.667 L 52.075,9.591 h 1.366 c 2.742,7.764 5.425,16.211 8.054,25.35 2.624,9.14 5.189,18.559 7.704,28.269 2.511,9.709 4.855,19.409 7.032,29.123 2.167,9.709 4.049,19.237 5.651,28.607 8.215,4.334 17.237,6.506 27.069,6.506 7.985,0 14.608,-1.71 19.861,-5.135 5.258,-3.429 7.887,-9.37 7.887,-17.817 0,-6.166 -0.801,-13.306 -2.398,-21.414 -1.602,-8.107 -3.715,-16.735 -6.344,-25.865 -2.629,-9.14 -5.71,-18.554 -9.247,-28.269 C 115.167,19.237 111.457,9.705 107.575,0.339 103.688,-9.026 99.694,-17.871 95.586,-26.21 91.473,-34.553 87.473,-42.027 83.592,-48.645 77.199,-59.844 71.258,-68.983 65.779,-76.064 60.296,-83.14 55.038,-88.682 50.021,-92.672 c -5.026,-3.995 -10.063,-6.742 -15.08,-8.23 -5.026,-1.484 -10.279,-2.221 -15.758,-2.221 -9.592,0 -17.365,2.859 -23.296,8.559 -5.945,5.715 -9.483,13.14 -10.623,22.274 7.302,5.714 14.618,12.048 21.93,19.011 7.301,6.972 13.925,14.102 19.866,21.419 -3.887,1.14 -8.054,3.813 -12.511,8.048 C 10.107,-19.586 5.248,-11.65 0,0" /></g><g
           transform="translate(693.4327,498.4883)"
           id="g52"><path
             id="path54"
             style="fill:#204842;fill-opacity:1;fill-rule:nonzero;stroke:none"
             d="m 0,0 c -2.968,-2.516 -6.796,-4.516 -11.473,-5.995 -4.688,-1.493 -10.108,-2.231 -16.275,-2.231 -8.23,0 -15.025,1.032 -20.382,3.081 -5.38,2.059 -8.864,5.597 -10.461,10.624 -6.392,20.097 -11.645,36.371 -15.748,48.822 -4.118,12.446 -7.317,23.35 -9.601,32.72 h -1.71 c -0.688,-13.483 -1.194,-25.757 -1.548,-36.833 -0.339,-11.075 -0.57,-21.875 -0.683,-32.371 -0.118,-10.51 -0.285,0.801 -0.629,-9.926 -0.344,-10.746 -0.855,-22.612 -1.543,-35.634 -2.978,-1.145 -6.85,-2.112 -11.655,-2.913 -4.791,-0.796 -9.587,-1.199 -14.383,-1.199 -10.053,0 -17.876,1.601 -23.472,4.795 -5.597,3.199 -8.393,9.022 -8.393,17.473 l 9.882,152.801 c 1.823,2.958 5.827,6.167 11.994,9.587 6.162,3.43 14.839,5.139 26.038,5.139 12.107,0 21.585,-1.881 28.44,-5.655 6.849,-3.764 11.871,-9.877 15.07,-18.323 2.054,-5.489 4.285,-11.769 6.683,-18.849 2.398,-7.086 4.8,-14.388 7.193,-21.925 2.398,-7.543 4.742,-15.021 7.032,-22.446 2.275,-7.419 4.334,-14.102 6.157,-20.038 h 1.719 c 5.474,19.193 10.963,37.737 16.442,55.672 5.483,17.93 10.5,32.947 15.075,45.054 3.425,1.823 7.822,3.371 13.188,4.629 5.366,1.253 11.365,1.881 17.994,1.881 11.189,0 20.328,-1.66 27.409,-4.962 7.07,-3.317 11.183,-8.054 12.328,-14.221 0.914,-4.574 1.892,-11.601 2.914,-21.074 1.022,-9.479 2.113,-20.156 3.257,-32.038 1.14,-11.876 2.276,-24.435 3.42,-37.683 1.145,-13.252 2.231,-25.983 3.253,-38.199 1.037,-12.225 8.717,-93.104 9.4,-103.256 0.683,-10.176 1.145,-17.993 1.376,-23.472 -3.892,-2.29 -7.941,-3.936 -12.166,-4.968 -4.231,-1.027 -9.656,-1.543 -16.274,-1.543 -8.688,0 -15.994,1.484 -21.93,4.452 -5.941,2.973 -9.135,8.791 -9.592,17.478 -1.366,24.893 -9.051,116.965 -9.39,136.831 -0.349,19.876 -0.86,36.548 -1.547,50.021 h -1.71 C 23.414,76.398 20.092,65.209 15.758,51.736 11.414,38.253 6.167,21.006 0,0" /></g><g
           transform="translate(889.7451,484.443)"
           id="g56"><path
             id="path58"
             style="fill:#29963d;fill-opacity:1;fill-rule:nonzero;stroke:none"
             d="m 0,0 c 3.882,0 8.171,0.388 12.854,1.199 4.678,0.791 8.162,1.882 10.447,3.253 V 31.86 L -1.366,29.806 c -6.402,-0.462 -11.645,-1.837 -15.763,-4.112 -4.113,-2.285 -6.167,-5.72 -6.167,-10.285 0,-4.564 1.769,-8.279 5.312,-11.129 C -14.441,1.42 -8.447,0 0,0 m -2.742,134.645 c 12.343,0 23.581,-1.263 33.757,-3.774 10.152,-2.516 18.839,-6.334 26.033,-11.473 7.193,-5.145 12.726,-11.646 16.618,-19.532 3.882,-7.877 5.828,-17.188 5.828,-27.925 V -4.806 c 0,-5.94 -1.671,-10.79 -4.968,-14.549 -3.322,-3.774 -7.263,-7.031 -11.827,-9.768 C 47.854,-38.032 26.956,-42.484 0,-42.484 c -12.107,0 -23.011,1.14 -32.715,3.42 -9.71,2.285 -18.048,5.71 -25.011,10.285 -6.968,4.564 -12.338,10.392 -16.107,17.473 -3.764,7.075 -5.656,15.296 -5.656,24.661 0,15.758 4.688,27.871 14.058,36.317 9.356,8.447 23.856,13.705 43.511,15.759 l 44.882,4.795 v 2.408 c 0,6.619 -2.914,11.351 -8.742,14.21 -5.822,2.86 -14.22,4.29 -25.178,4.29 -8.687,0 -17.134,-0.924 -25.359,-2.747 -8.216,-1.828 -15.64,-4.108 -22.264,-6.854 -2.978,2.058 -5.488,5.193 -7.542,9.424 -2.054,4.226 -3.081,8.624 -3.081,13.188 0,5.941 1.42,10.683 4.28,14.221 2.859,3.542 7.247,6.564 13.198,9.08 6.618,2.511 14.441,4.339 23.467,5.484 9.017,1.14 17.523,1.715 25.517,1.715" /></g><g
           transform="translate(1110.3928,552.9637)"
           id="g60"><path
             id="path62"
             style="fill:#204842;fill-opacity:1;fill-rule:nonzero;stroke:none"
             d="m 0,0 c 0,7.076 -2.01,12.274 -6.005,15.586 -3.994,3.312 -9.414,4.973 -16.269,4.973 -4.57,0 -9.08,-0.575 -13.537,-1.72 -4.452,-1.14 -8.279,-2.855 -11.473,-5.135 l -3.012,-91.026 c -2.29,-0.683 -5.887,-1.366 -10.791,-2.054 -4.919,-0.683 -9.994,-1.027 -15.252,-1.027 -5.027,0 -9.537,0.344 -13.532,1.027 -4,0.688 -7.366,2.054 -10.108,4.113 -2.737,2.059 -4.854,4.85 -6.333,8.403 -1.494,3.528 -2.231,8.161 -2.231,13.866 l 3.012,74.914 c 0,6.172 1.312,11.198 3.941,15.08 2.628,3.882 6.225,7.425 10.795,10.623 7.759,5.479 17.527,9.931 29.29,13.366 11.759,3.42 24.839,5.134 39.231,5.134 25.807,0 45.678,-5.655 59.613,-16.962 C 51.269,37.86 58.237,22.151 58.237,2.054 v -107.241 c -2.285,-0.683 -5.882,-1.366 -10.791,-2.059 -4.913,-0.678 -9.994,-1.022 -15.242,-1.022 -5.027,0 -9.547,0.344 -13.537,1.022 -3.995,0.693 -7.361,2.059 -10.107,4.118 -2.742,2.054 -4.855,4.849 -6.339,8.397 C 0.737,-91.198 0,-86.569 0,-80.859 Z" /></g><g
           transform="translate(1294.7053,573.5206)"
           id="g64"><path
             id="path66"
             style="fill:#29963d;fill-opacity:1;fill-rule:nonzero;stroke:none"
             d="m 0,0 c -12.328,0 -21.807,-3.553 -28.431,-10.623 -6.628,-7.086 -9.94,-17.817 -9.94,-32.205 0,-14.166 3.086,-24.843 9.248,-32.037 6.171,-7.194 15.08,-10.79 26.725,-10.79 4.113,0 7.823,0.629 11.139,1.882 3.307,1.253 5.877,2.683 7.71,4.284 V -4.113 C 11.876,-1.376 6.393,0 0,0 m -97.301,-42.828 c 0,15.08 2.285,28.146 6.85,39.231 4.575,11.076 10.913,20.264 19.016,27.576 8.108,7.311 17.591,12.736 28.44,16.274 10.85,3.543 22.549,5.312 35.118,5.312 4.565,0 9.022,-0.403 13.366,-1.199 4.334,-0.801 7.876,-1.769 10.613,-2.909 v 55.505 c 2.29,0.683 5.941,1.42 10.968,2.221 5.026,0.796 10.161,1.199 15.414,1.199 5.021,0 9.537,-0.34 13.532,-1.022 3.995,-0.693 7.37,-2.059 10.107,-4.113 2.747,-2.059 4.806,-4.86 6.172,-8.393 1.371,-3.547 2.054,-8.171 2.054,-13.881 V -89.429 c 0,-10.731 -5.027,-19.301 -15.075,-25.694 -6.624,-4.338 -15.188,-8.166 -25.699,-11.473 -10.5,-3.307 -22.608,-4.968 -36.312,-4.968 -14.849,0 -28.155,2.059 -39.914,6.167 -11.768,4.108 -21.698,10.043 -29.806,17.812 -8.113,7.764 -14.274,17.08 -18.5,27.924 -4.236,10.845 -6.344,23.129 -6.344,36.833" /></g><g
           transform="translate(1476.6345,484.443)"
           id="g68"><path
             id="path70"
             style="fill:#42ba3f;fill-opacity:1;fill-rule:nonzero;stroke:none"
             d="m 0,0 c 3.882,0 8.166,0.388 12.849,1.199 4.678,0.791 8.162,1.882 10.452,3.253 V 31.86 L -1.366,29.806 c -6.403,-0.462 -11.645,-1.837 -15.758,-4.112 -4.118,-2.285 -6.172,-5.72 -6.172,-10.285 0,-4.564 1.769,-8.279 5.312,-11.129 C -14.441,1.42 -8.452,0 0,0 m -2.742,134.645 c 12.338,0 23.581,-1.263 33.757,-3.774 10.152,-2.516 18.839,-6.334 26.028,-11.473 7.193,-5.145 12.731,-11.646 16.618,-19.532 3.882,-7.877 5.833,-17.188 5.833,-27.925 V -4.806 c 0,-5.94 -1.671,-10.79 -4.973,-14.549 -3.322,-3.774 -7.258,-7.031 -11.823,-9.768 C 47.849,-38.032 26.951,-42.484 0,-42.484 c -12.112,0 -23.016,1.14 -32.715,3.42 -9.71,2.285 -18.048,5.71 -25.011,10.285 -6.967,4.564 -12.338,10.392 -16.107,17.473 -3.764,7.075 -5.656,15.296 -5.656,24.661 0,15.758 4.683,27.871 14.058,36.317 9.356,8.447 23.856,13.705 43.506,15.759 l 44.887,4.795 v 2.408 c 0,6.619 -2.914,11.351 -8.742,14.21 -5.823,2.86 -14.22,4.29 -25.178,4.29 -8.687,0 -17.138,-0.924 -25.364,-2.747 -8.211,-1.828 -15.635,-4.108 -22.259,-6.854 -2.978,2.058 -5.489,5.193 -7.542,9.424 -2.059,4.226 -3.081,8.624 -3.081,13.188 0,5.941 1.42,10.683 4.279,14.221 2.855,3.542 7.248,6.564 13.199,9.08 6.618,2.511 14.436,4.339 23.467,5.484 9.017,1.14 17.518,1.715 25.517,1.715" /></g><g
           transform="translate(1649.9906,447.7776)"
           id="g72"><path
             id="path74"
             style="fill:#204842;fill-opacity:1;fill-rule:nonzero;stroke:none"
             d="m 0,0 c -2.285,-0.683 -5.882,-1.366 -10.79,-2.059 -4.914,-0.683 -9.995,-1.022 -15.248,-1.022 -5.021,0 -9.537,0.339 -13.537,1.022 -3.99,0.693 -7.361,2.059 -10.102,4.113 -2.742,2.059 -4.855,4.855 -6.334,8.402 -1.489,3.533 -2.231,8.162 -2.231,13.872 v 102.779 c 0,5.258 0.973,9.764 2.909,13.537 1.941,3.774 4.742,7.14 8.397,10.108 3.646,2.963 8.162,5.655 13.533,8.053 5.37,2.398 11.134,4.506 17.301,6.334 6.171,1.828 12.559,3.258 19.193,4.285 6.623,1.027 13.242,1.543 19.866,1.543 10.962,0 19.64,-2.118 26.042,-6.344 6.388,-4.221 9.592,-11.129 9.592,-20.721 0,-3.204 -0.462,-6.339 -1.376,-9.424 -0.914,-3.081 -2.044,-5.887 -3.425,-8.393 -4.791,0 -9.705,-0.231 -14.736,-0.683 -5.022,-0.462 -9.931,-1.15 -14.726,-2.059 -4.796,-0.919 -9.312,-1.887 -13.533,-2.914 C 6.565,119.407 2.968,118.198 0,116.833 Z" /></g><g
           transform="translate(1792.175,447.7776)"
           id="g76"><path
             id="path78"
             style="fill:#204842;fill-opacity:1;fill-rule:nonzero;stroke:none"
             d="m 0,0 c -2.516,-0.452 -6.226,-1.081 -11.139,-1.882 -4.909,-0.796 -9.872,-1.199 -14.903,-1.199 -5.022,0 -9.533,0.339 -13.528,1.022 -4,0.693 -7.37,2.059 -10.107,4.113 -2.742,2.059 -4.86,4.855 -6.334,8.402 -1.494,3.533 -2.236,8.162 -2.236,13.872 v 139.445 c 2.511,0.452 6.226,1.081 11.14,1.882 4.908,0.796 9.881,1.199 14.903,1.199 5.022,0 9.532,-0.339 13.532,-1.032 3.995,-0.683 7.365,-2.049 10.108,-4.103 2.736,-2.059 4.849,-4.86 6.333,-8.402 C -0.742,149.774 0,145.155 0,139.445 Z" /></g><g
           transform="translate(1934.7057,552.9637)"
           id="g80"><path
             id="path82"
             style="fill:#29963d;fill-opacity:1;fill-rule:nonzero;stroke:none"
             d="m 0,0 c 0,7.076 -2.01,12.274 -6.005,15.586 -3.99,3.312 -9.414,4.973 -16.264,4.973 -4.575,0 -9.085,-0.575 -13.542,-1.72 -4.452,-1.14 -8.28,-2.855 -11.469,-5.135 v -118.891 c -2.289,-0.683 -5.886,-1.366 -10.79,-2.059 -4.914,-0.678 -9.999,-1.022 -15.257,-1.022 -5.022,0 -9.532,0.344 -13.527,1.022 -4,0.693 -7.371,2.059 -10.108,4.118 -2.736,2.054 -4.859,4.849 -6.333,8.397 -1.494,3.533 -2.236,8.162 -2.236,13.872 V 21.92 c 0,6.172 1.312,11.198 3.941,15.08 2.624,3.882 6.225,7.425 10.795,10.623 7.764,5.479 17.527,9.931 29.29,13.366 11.764,3.42 24.839,5.134 39.236,5.134 25.802,0 45.678,-5.655 59.613,-16.962 C 51.269,37.86 58.242,22.151 58.242,2.054 v -80.737 c -2.29,-0.683 -5.887,-1.366 -10.796,-2.059 -4.913,-0.683 -9.994,-1.022 -15.242,-1.022 -5.027,0 -9.547,0.339 -13.537,1.022 -3.995,0.693 -7.361,2.059 -10.107,4.113 -2.737,2.059 -4.85,4.855 -6.339,8.402 C 0.737,-64.694 0,-60.065 0,-54.355 Z" /></g><g
           transform="translate(2107.3706,576.6011)"
           id="g84"><path
             id="path86"
             style="fill:#204842;fill-opacity:1;fill-rule:nonzero;stroke:none"
             d="m 0,0 c -5.474,0 -10.225,-0.914 -14.22,-2.742 -3.99,-1.833 -7.248,-4.167 -9.759,-7.026 -2.516,-2.855 -4.402,-6.049 -5.651,-9.587 -1.262,-3.543 -2.004,-7.14 -2.23,-10.795 l 58.586,9.591 c -0.678,4.57 -3.199,9.135 -7.533,13.704 C 14.849,-2.285 8.451,0 0,0 m 9.592,-134.645 c -13.474,0 -25.979,1.882 -37.516,5.656 -11.533,3.764 -21.576,9.415 -30.146,16.957 -8.569,7.533 -15.311,17.016 -20.215,28.431 -4.918,11.419 -7.37,24.784 -7.37,40.09 0,15.076 2.452,28.038 7.37,38.892 4.904,10.845 11.361,19.753 19.36,26.716 7.995,6.972 17.129,12.107 27.404,15.419 10.284,3.312 20.785,4.968 31.521,4.968 12.112,0 23.128,-1.833 33.064,-5.484 9.941,-3.651 18.5,-8.678 25.699,-15.07 7.198,-6.398 12.785,-14.048 16.785,-22.952 3.994,-8.909 5.999,-18.623 5.999,-29.128 0,-7.764 -2.181,-13.7 -6.51,-17.817 -4.344,-4.113 -10.397,-6.737 -18.161,-7.872 l -84.623,-12.682 c 2.505,-7.538 7.645,-13.189 15.419,-16.957 7.753,-3.774 16.667,-5.656 26.725,-5.656 9.361,0 18.205,1.199 26.549,3.597 8.328,2.398 15.129,5.194 20.382,8.392 3.655,-2.284 6.736,-5.478 9.252,-9.591 2.506,-4.113 3.774,-8.457 3.774,-13.021 0,-10.275 -4.801,-17.925 -14.392,-22.952 -7.312,-3.882 -15.537,-6.516 -24.667,-7.877 -9.139,-1.376 -17.709,-2.059 -25.703,-2.059" /></g><g
           transform="translate(1731.1904,679.1239)"
           id="g88"><path
             id="path90"
             style="fill:#f9a72b;fill-opacity:1;fill-rule:nonzero;stroke:none"
             d="m 0,0 c 0,8.677 2.914,15.984 8.731,21.93 5.833,5.931 13.538,8.908 23.129,8.908 9.597,0 17.306,-2.977 23.129,-8.908 5.823,-5.946 8.736,-13.253 8.736,-21.93 0,-8.687 -2.913,-15.989 -8.736,-21.93 -5.823,-5.935 -13.532,-8.908 -23.129,-8.908 -9.591,0 -17.296,2.973 -23.129,8.908 C 2.914,-15.989 0,-8.687 0,0" /></g></g></g></g></svg>