<?xml version="1.0" encoding="UTF-8" standalone="no"?>
<svg
   xmlns:dc="http://purl.org/dc/elements/1.1/"
   xmlns:cc="http://creativecommons.org/ns#"
   xmlns:rdf="http://www.w3.org/1999/02/22-rdf-syntax-ns#"
   xmlns:svg="http://www.w3.org/2000/svg"
   xmlns="http://www.w3.org/2000/svg"
   viewBox="0 0 193.98267 182.56934"
   height="182.56934"
   width="193.98267"
   xml:space="preserve"
   id="svg2"
   version="1.1"><metadata
     id="metadata8"><rdf:RDF><cc:Work
         rdf:about=""><dc:format>image/svg+xml</dc:format><dc:type
           rdf:resource="http://purl.org/dc/dcmitype/StillImage" /></cc:Work></rdf:RDF></metadata><defs
     id="defs6"><clipPath
       id="clipPath18"
       clipPathUnits="userSpaceOnUse"><path
         id="path16"
         d="M 0,136.927 H 145.487 V 0 H 0 Z" /></clipPath></defs><g
     transform="matrix(1.3333333,0,0,-1.3333333,0,182.56933)"
     id="g10"><g
       id="g12"><g
         clip-path="url(#clipPath18)"
         id="g14"><g
           transform="translate(89.9348,117.6204)"
           id="g20"><path
             id="path22"
             style="fill:#f24dae;fill-opacity:1;fill-rule:nonzero;stroke:none"
             d="M 0,0 7.349,4.12 C 8.658,4.871 9.485,5.812 9.838,6.806 9.858,7.391 12.84,7.23 13.408,5.654 14.356,2.299 12.424,-1.166 8.081,-3.62 L 0.765,-7.746 C -0.034,-8.202 -0.672,-8.738 -1.108,-9.31 -2.231,-10.583 -5.387,-9.031 -5.353,-8.168 -5.644,-5.206 -3.831,-2.173 0,0" /></g><g
           transform="translate(17.7986,117.0786)"
           id="g24"><path
             id="path26"
             style="fill:#80cc28;fill-opacity:1;fill-rule:nonzero;stroke:none"
             d="m 0,0 c 7.716,0.928 15.823,-0.679 21.628,-4.431 l 9.749,-6.345 c 1.077,-0.703 2.331,-1.227 3.675,-1.608 2.961,-0.956 -0.538,-3.757 -2.524,-3.757 -6.892,-0.339 -13.924,1.181 -19.05,4.49 l -9.786,6.36 c -1.757,1.143 -3.949,1.842 -6.274,2.119 -1.371,0 -1.052,2.624 2.582,3.172" /></g><g
           transform="translate(46.4792,94.0302)"
           id="g28"><path
             id="path30"
             style="fill:#1ab18b;fill-opacity:1;fill-rule:nonzero;stroke:none"
             d="m 0,0 c -4.054,-1.648 -9.196,-2.192 -14.149,-1.223 l -9.485,1.856 c -1.702,0.339 -3.427,0.305 -5.013,-0.006 -0.832,-0.278 -2.086,1.389 -0.149,2.489 4.21,2.175 10.059,2.871 15.689,1.785 L -3.67,3.048 C -2.618,2.857 -1.568,2.781 -0.528,2.843 1.819,2.863 1.219,0.414 0,0" /></g><g
           transform="translate(23.4745,75.9884)"
           id="g32"><path
             id="path34"
             style="fill:#1da7e7;fill-opacity:1;fill-rule:nonzero;stroke:none"
             d="m 0,0 c -2.468,-0.357 -4.558,-1.183 -6.118,-2.279 -0.672,-0.735 -4.206,0.751 -3.17,2.964 2.562,4.578 8.878,8.103 17.06,9.328 l 13.764,2.044 c 1.524,0.227 2.899,0.642 4.097,1.156 2.829,1.109 5.026,-2.164 4.044,-3.24 C 26.683,6.14 21.042,3.13 13.822,2.054 Z" /></g><g
           transform="translate(55.5404,72.2927)"
           id="g36"><path
             id="path38"
             style="fill:#f9b3dd;fill-opacity:1;fill-rule:nonzero;stroke:none"
             d="m 0,0 -7.345,-4.132 c -1.304,-0.749 -2.125,-1.687 -2.485,-2.683 -0.02,-0.58 -2.995,-0.418 -3.566,1.159 -0.949,3.347 0.978,6.823 5.321,9.28 l 7.318,4.12 C 0.054,8.208 0.669,8.74 1.116,9.308 2.243,10.569 5.397,9.021 5.367,8.168 5.642,5.188 3.841,2.177 0,0" /></g><g
           transform="translate(58.3018,108.5178)"
           id="g40"><path
             id="path42"
             style="fill:#fddd04;fill-opacity:1;fill-rule:nonzero;stroke:none"
             d="m 0,0 c -4.309,1.349 -7.652,3.817 -8.77,6.949 l -2.144,5.997 c -0.388,1.064 -1.295,1.972 -2.52,2.667 -0.817,0.301 0.914,1.805 3.413,1.325 5.168,-1.167 9.081,-3.941 10.362,-7.493 L 2.468,3.488 C 2.711,2.829 3.154,2.229 3.728,1.701 4.949,0.468 1.199,-0.442 0,0" /></g><g
           transform="translate(78.2544,67.549)"
           id="g44"><path
             id="path46"
             style="fill:#fbca8e;fill-opacity:1;fill-rule:nonzero;stroke:none"
             d="m 0,0 -3.769,-8.401 c -0.67,-1.496 0.039,-3.339 0.153,-4.405 0.102,-1.071 -0.815,-3.259 -5.363,-0.205 -4.815,3.648 -6.495,8.802 -4.278,13.774 l 3.756,8.374 c 0.416,0.918 0.189,1.643 0.392,2.761 0.213,1.157 2.56,3.518 6.114,0.538 C 0.641,8.908 1.956,4.397 0,0" /></g><g
           transform="translate(80.3182,121.5971)"
           id="g48"><path
             id="path50"
             style="fill:#f68712;fill-opacity:1;fill-rule:nonzero;stroke:none"
             d="m 0,0 -3.666,-8.374 c -0.406,-0.932 -0.191,-1.665 -0.39,-2.771 -0.205,-1.149 -2.51,-3.51 -6.011,-0.534 -3.57,3.521 -4.855,8.029 -2.928,12.422 l 3.687,8.401 c 0.662,1.514 -0.036,3.343 -0.143,4.411 -0.102,1.076 0.801,3.272 5.271,0.219 C 0.54,10.111 2.186,4.982 0,0" /></g><g
           transform="translate(97.2186,64.4537)"
           id="g52"><path
             id="path54"
             style="fill:#b3e2a0;fill-opacity:1;fill-rule:nonzero;stroke:none"
             d="m 0,0 c -5.174,1.163 -9.097,3.924 -10.376,7.478 l -2.132,5.973 c -0.229,0.666 -0.677,1.261 -1.257,1.785 -1.213,1.239 2.525,2.144 3.724,1.7 4.321,-1.337 7.656,-3.815 8.78,-6.943 L 0.88,4 C 1.271,2.924 2.181,2.01 3.399,1.325 4.224,1.024 2.486,-0.484 0,0" /></g><g
           transform="translate(127.6841,72.8326)"
           id="g56"><path
             id="path58"
             style="fill:#b3e6fa;fill-opacity:1;fill-rule:nonzero;stroke:none"
             d="m 0,0 c -7.722,-0.934 -15.817,0.675 -21.622,4.441 l -9.75,6.327 c -1.086,0.693 -2.333,1.223 -3.672,1.61 -2.964,0.966 0.52,3.775 2.52,3.775 6.89,0.315 13.926,-1.185 19.049,-4.504 l 9.786,-6.36 C -1.932,4.156 0.263,3.453 2.592,3.166 3.951,3.166 3.638,0.536 0,0" /></g><g
           transform="translate(99.0077,95.8791)"
           id="g60"><path
             id="path62"
             style="fill:#8951ae;fill-opacity:1;fill-rule:nonzero;stroke:none"
             d="m 0,0 c 4.054,1.632 9.186,2.191 14.157,1.215 l 9.477,-1.849 c 1.691,-0.328 3.435,-0.294 5.009,0.014 0.84,0.291 2.078,-1.4 0.159,-2.482 C 24.576,-5.278 18.733,-5.993 13.113,-4.897 L 3.666,-3.058 C 2.616,-2.857 1.556,-2.793 0.542,-2.829 -1.809,-2.865 -1.215,-0.417 0,0" /></g><g
           transform="translate(131.2822,113.2395)"
           id="g64"><path
             id="path66"
             style="fill:#ed1c24;fill-opacity:1;fill-rule:nonzero;stroke:none"
             d="m 0,0 c -2.554,-4.596 -8.864,-8.116 -17.046,-9.332 l -13.772,-2.042 c -1.512,-0.239 -2.887,-0.619 -4.094,-1.163 -2.821,-1.104 -5.025,2.171 -4.035,3.235 2.995,3.837 8.629,6.858 15.857,7.925 L -9.274,0.671 C -6.803,1.052 -4.716,1.867 -3.158,2.96 -2.476,3.696 1.054,2.215 0,0" /></g><g
           transform="translate(10.254,24.7999)"
           id="g68"><path
             id="path70"
             style="fill:#231f20;fill-opacity:1;fill-rule:nonzero;stroke:none"
             d="m 0,0 v 18.532 h 8.306 c 3.418,0 8.059,-2.747 8.059,-9.232 C 16.365,2.311 12.173,0 6.31,0 Z m 7.861,-2.668 c 7.472,0 15.6,3.116 15.6,12.346 0,8.539 -7.481,11.53 -13.408,11.53 H -10.254 V 20.06 c 0,-2.823 3.656,0.701 3.656,-4.616 V -18.11 c 0,-5.323 -3.596,-1.789 -3.596,-4.612 v -1.163 H 3.522 v 1.163 C 3.522,-19.899 0,-23.433 0,-18.11 v 15.442 z" /></g><g
           transform="translate(47.6328,30.159)"
           id="g72"><path
             id="path74"
             style="fill:#231f20;fill-opacity:1;fill-rule:nonzero;stroke:none"
             d="m 0,0 c 6.151,0 7.28,-8.208 7.28,-14.233 0,-5.644 -1.279,-13.577 -7.077,-13.577 -6.054,0 -7.283,8.196 -7.283,14.217 C -7.08,-7.965 -5.702,0 0,0 m -0.056,2.333 c -7.431,0 -12.702,-7.473 -12.702,-16.498 0,-9.308 5.733,-15.994 13.017,-15.994 7.442,0 12.707,7.473 12.707,16.494 0,9.296 -5.732,15.998 -13.022,15.998" /></g><g
           transform="translate(72.2118,6.3456)"
           id="g76"><path
             id="path78"
             style="fill:#231f20;fill-opacity:1;fill-rule:nonzero;stroke:none"
             d="m 0,0 c 0,-4.489 2.62,-1.472 2.62,-4.291 v -1.14 H -7.646 v 1.14 c 0,2.87 2.719,-0.253 2.719,4.291 v 34.229 c 0,4.552 -2.719,1.418 -2.719,4.301 v 1.132 L 0,39.919 Z" /></g><g
           transform="translate(86.4744,6.3456)"
           id="g80"><path
             id="path82"
             style="fill:#231f20;fill-opacity:1;fill-rule:nonzero;stroke:none"
             d="m 0,0 c 0,-4.489 2.618,-1.472 2.618,-4.291 v -1.14 H -7.64 v 1.14 c 0,2.87 2.719,-0.253 2.719,4.291 v 34.229 c 0,4.552 -2.719,1.418 -2.719,4.301 v 1.132 L 0,39.919 Z" /></g><g
           transform="translate(98.4836,20.375)"
           id="g84"><path
             id="path86"
             style="fill:#231f20;fill-opacity:1;fill-rule:nonzero;stroke:none"
             d="m 0,0 c 0.311,4.791 2.263,9.439 6.584,9.439 4.375,0 5.868,-4.779 5.607,-9.439 z m 17.618,-3.086 c 0.215,8.316 -3.686,15.203 -10.723,15.203 -7.403,0 -12.322,-6.887 -12.322,-15.908 0,-9.535 5.536,-16.57 13.189,-16.57 4.486,0 7.71,2.305 10.316,6.72 l -1.738,1.664 c -1.992,-2.997 -4.301,-5.312 -7.536,-5.312 -6.28,0 -9.264,7.232 -8.965,14.203 z" /></g><g
           transform="translate(119.5378,31.5516)"
           id="g88"><path
             id="path90"
             style="fill:#231f20;fill-opacity:1;fill-rule:nonzero;stroke:none"
             d="m 0,0 7.112,0.259 v -3.243 c 2.355,2.695 4.784,3.914 7.961,3.914 5.595,0 8.147,-3.275 8.147,-8.654 v -17.488 c 0,-4.538 2.729,-1.418 2.729,-4.285 v -1.14 H 15.54 v 1.14 c 0,2.867 2.765,-0.253 2.765,4.285 v 15.699 c 0,4.036 -0.417,7.371 -5.122,7.371 -1.949,0 -4.668,-1.605 -5.74,-3.791 v -19.279 c 0,-4.538 2.769,-1.418 2.769,-4.285 v -1.14 H 0 v 1.14 c 0,2.743 2.522,-0.068 2.522,4.285 V -5.477 C 2.522,-1.128 0,-3.875 0,-1.317 Z" /></g></g></g></g></svg>