<?xml version="1.0" encoding="UTF-8" standalone="no"?>
<svg
   xmlns:dc="http://purl.org/dc/elements/1.1/"
   xmlns:cc="http://creativecommons.org/ns#"
   xmlns:rdf="http://www.w3.org/1999/02/22-rdf-syntax-ns#"
   xmlns:svg="http://www.w3.org/2000/svg"
   xmlns="http://www.w3.org/2000/svg"
   viewBox="0 0 229.88933 98.96933"
   height="98.96933"
   width="229.88933"
   xml:space="preserve"
   id="svg2"
   version="1.1"><metadata
     id="metadata8"><rdf:RDF><cc:Work
         rdf:about=""><dc:format>image/svg+xml</dc:format><dc:type
           rdf:resource="http://purl.org/dc/dcmitype/StillImage" /></cc:Work></rdf:RDF></metadata><defs
     id="defs6"><clipPath
       id="clipPath18"
       clipPathUnits="userSpaceOnUse"><path
         id="path16"
         d="M 0,0 H 172.417 V 74.227 H 0 Z" /></clipPath></defs><g
     transform="matrix(1.3333333,0,0,-1.3333333,0,98.969333)"
     id="g10"><g
       id="g12"><g
         clip-path="url(#clipPath18)"
         id="g14"><g
           transform="translate(135.7167,65.0471)"
           id="g20"><path
             id="path22"
             style="fill:#f79e23;fill-opacity:1;fill-rule:nonzero;stroke:none"
             d="m 0,0 c -0.64,-1.418 -2.65,-0.09 -3.571,-1.099 0.28,-0.82 1.283,-1.405 1.784,-1.91 l 4.114,-3.836 c -0.185,-1.603 -2.377,-0.779 -3.289,-1.777 0.363,-1.28 1.924,-1.371 2.874,-2.068 2.144,-1.271 4.648,-2.362 6.161,-4.242 -0.68,-1.002 -2.005,-0.366 -3.29,-0.544 -0.996,3.014 -4.655,4.474 -6.704,6.445 -0.221,1.184 0.23,1.912 1.223,2.316 0.466,0.182 0.321,0.732 0.149,0.968 -1.689,2.057 -3.473,3.372 -5.071,5.477 0.77,0.77 2.281,0.088 2.874,1.098 -1.276,2.369 -3.147,4.33 -4.658,6.71 C -8.946,7.812 -9.275,5.755 -10,4.787 -10.321,4.105 -11.148,4.206 -11.642,4.376 -11.51,5.847 -9.63,6.66 -9.037,7.939 -8.627,8.3 -8.539,9.18 -7.807,9.041 -5.169,5.798 -2.65,3.467 0,0" /></g><g
           transform="translate(30.2613,72.9862)"
           id="g24"><path
             id="path26"
             style="fill:#f79e23;fill-opacity:1;fill-rule:nonzero;stroke:none"
             d="m 0,0 c 0.224,-1.179 -1.228,-1.815 -1.509,-2.736 -0.586,-0.997 -1.545,-1.83 -1.785,-3.013 0.509,-0.319 1.384,-0.912 0.829,-1.64 -1.317,-1.552 -2.426,-3.054 -3.563,-4.796 -0.046,-1.556 1.741,-0.45 2.473,-0.959 -0.412,-1.413 -2.338,-1.101 -3.294,-2.049 -1.37,-0.37 -2.511,-1.284 -3.971,-1.507 v 0.825 c 2.103,2.823 4.615,5.432 6.71,8.208 -0.316,1.468 -2.416,0.606 -3.428,0.829 -0.586,0.994 0.916,1.414 1.379,1.772 l 5.613,5.204 z" /></g><g
           transform="translate(35.5968,67.1074)"
           id="g28"><path
             id="path30"
             style="fill:#f79e23;fill-opacity:1;fill-rule:nonzero;stroke:none"
             d="m 0,0 c 0.231,-0.373 1.552,-0.597 0.963,-1.368 -0.593,-0.231 -1.098,-0.644 -1.772,-0.693 -1.742,1.464 -2.103,3.745 -3.429,5.477 0.092,0.552 -0.366,0.867 -0.408,1.372 0.354,-0.088 0.543,0.37 0.821,0 z" /></g><g
           transform="translate(126.2593,68.471)"
           id="g32"><path
             id="path34"
             style="fill:#f79e23;fill-opacity:1;fill-rule:nonzero;stroke:none"
             d="m 0,0 c 0,-0.82 -0.499,-1.14 -0.959,-1.776 -0.451,-1.186 -1.543,-1.783 -1.915,-3.012 0.229,-0.689 1.01,-0.181 1.372,-0.556 v -0.681 l -4.384,-4.653 c -0.319,-0.37 0,-0.874 0.413,-0.963 0.82,-0.088 1.829,0.231 2.461,-0.274 l -0.131,-0.54 c -2.061,-2.562 -4.708,-4.294 -6.576,-6.852 0.547,-0.921 1.372,0.039 2.192,-0.273 v -0.69 c -3.326,-2.37 -6.847,-5.386 -9.998,-7.808 -1.143,-0.312 -2.371,-0.042 -3.428,0.276 v 0.275 c 3.245,1.871 7.037,3.109 9.591,6.029 -0.734,0.867 -2.108,0.045 -2.874,0.685 0.454,0.952 1.603,1.314 2.464,1.913 2.416,1.873 4.334,3.661 6.706,5.749 0.229,0.64 -0.458,0.696 -0.82,0.829 -1.278,-0.043 -2.562,-0.51 -3.833,-0.133 v 0.27 c 2.142,1.642 4.065,3.375 6.296,5.336 -0.311,1.275 -2.37,0.462 -3.283,0.689 v 0.548 c 2.287,1.918 4.341,3.332 6.164,5.612 z" /></g><g
           transform="translate(44.364,60.2537)"
           id="g36"><path
             id="path38"
             style="fill:#f79e23;fill-opacity:1;fill-rule:nonzero;stroke:none"
             d="m 0,0 c -0.409,-1.417 -2.65,-0.082 -3.56,-1.093 0.324,-1.14 1.88,-1.606 2.74,-2.468 C 2.646,-5.385 5.848,-7.72 9.738,-8.49 V -8.898 C 7.586,-9.171 5.166,-8.81 3.286,-9.719 c 0.871,-1.143 2.196,-1.644 3.424,-2.186 2.242,-1.425 4.622,-2.613 7.258,-3.022 0.146,-0.18 0.369,-0.319 0.277,-0.546 l -0.55,-0.415 -6.707,-0.276 -0.408,-0.411 c 1.968,-1.691 4.375,-2.917 6.849,-3.698 v -0.401 c -3.294,0.225 -6.349,1.822 -9.315,3.141 -1.506,0.865 -3.054,1.605 -4.523,2.606 v 0.682 c 1.919,0.232 4.015,0.05 5.756,0.69 l -0.139,0.539 c -1.922,1.283 -3.467,2.565 -5.347,3.985 v 0.404 c 0.782,0.322 1.88,-0.047 2.466,0.68 0.049,0.649 -0.771,0.687 -0.948,1.102 -2.334,1.415 -4.429,3.964 -6.714,5.752 -0.27,0.682 1.095,0.824 0.412,1.513 -1.232,1.222 -3.201,2.05 -4.114,3.555 1.321,0.409 2.743,-0.6 3.971,-1.235 C -3.332,2.15 -1.83,0.548 0,0" /></g><g
           transform="translate(20.1311,53.2667)"
           id="g40"><path
             id="path42"
             style="fill:#f79e23;fill-opacity:1;fill-rule:nonzero;stroke:none"
             d="m 0,0 c -0.602,-0.909 -1.599,-1.545 -2.192,-2.6 0.223,-0.863 3.097,-0.369 1.644,-1.916 -1.556,-1.19 -2.654,-2.742 -4.117,-4.236 0.501,-0.74 2.152,0.169 2.057,-1.106 -2.778,-2.235 -5.428,-3.794 -8.214,-6.022 -0.135,-0.318 0.274,-0.458 0.409,-0.688 l 3.147,-0.409 v -0.282 h -9.862 c 1.877,0.964 4.065,2.063 5.899,3.161 1.59,1.092 3.652,1.593 4.784,3.146 -1.006,1.005 -2.466,-0.231 -3.548,0.547 -0.057,0.636 0.675,1.191 1.225,1.369 1.88,1.417 3.925,2.009 5.343,3.97 -0.316,0.646 -1.28,0.46 -1.788,0.963 l 0.277,0.69 c 2.555,2.418 4.839,4.603 7.528,6.57 C 2.322,1.879 1.089,0.963 0,0" /></g><g
           transform="translate(139.2713,49.4339)"
           id="g44"><path
             id="path46"
             style="fill:#f79e23;fill-opacity:1;fill-rule:nonzero;stroke:none"
             d="m 0,0 c 2.328,-1.965 5.116,-3.335 7.809,-4.653 -0.134,-1.103 -1.601,-0.37 -1.923,-1.372 1.88,-1.136 3.981,-1.599 5.898,-2.603 3.005,-1.284 6.244,-2.004 9.169,-3.419 0.188,-0.23 0.142,-0.499 -0.139,-0.688 -5.79,0.089 -11.503,0.37 -17.118,0.817 l -0.273,0.28 0.561,0.548 c 1.726,-0.096 3.734,-0.412 5.327,0 0.597,1.147 -1.283,1.46 -1.914,2.184 -1.775,0.786 -3.29,2.246 -5.069,3.024 -0.224,0.223 -0.086,0.538 -0.136,0.813 0.322,0.184 0.914,0.149 0.813,0.681 -0.131,0.832 -0.763,1.194 -1.359,1.792 -1.415,1.136 -2.512,2.088 -3.838,3.425 V 1.233 C -1.185,1.466 -0.729,0.37 0,0" /></g><g
           transform="translate(110.3739,36.8416)"
           id="g48"><path
             id="path50"
             style="fill:#f79e23;fill-opacity:1;fill-rule:nonzero;stroke:none"
             d="m 0,0 -0.408,-0.275 c -5.247,0.221 -10.594,-0.509 -15.471,0.133 -0.093,0.369 0.312,0.638 0.536,0.687 C -11.41,0.674 -7.349,0.82 -3.555,0.82 -2.504,1.868 -1.092,0.636 0,0.265 Z" /></g><g
           transform="translate(84.218,37.7963)"
           id="g52"><path
             id="path54"
             style="fill:#f79e23;fill-opacity:1;fill-rule:nonzero;stroke:none"
             d="m 0,0 c 0.189,-0.458 -0.265,-0.546 -0.546,-0.69 -10.821,-0.458 -21.006,-0.769 -31.634,-0.817 0.046,0.128 -0.043,0.227 -0.135,0.278 1.363,0.683 3.105,2.192 4.653,0.82 9.403,-0.049 18.448,0.594 27.532,0.544 z" /></g><g
           transform="translate(126.9501,36.29)"
           id="g56"><path
             id="path58"
             style="fill:#f79e23;fill-opacity:1;fill-rule:nonzero;stroke:none"
             d="m 0,0 c -0.093,-0.323 0.269,-1.094 -0.418,-0.955 -0.724,-0.058 -0.992,0.913 -1.643,1.083 l -2.685,0.323 c 0.222,1.191 2.831,0.416 3.654,0.366 C -0.64,0.779 -0.179,0.451 0,0" /></g><g
           transform="translate(37.6613,36.9724)"
           id="g60"><path
             id="path62"
             style="fill:#f79e23;fill-opacity:1;fill-rule:nonzero;stroke:none"
             d="m 0,0 c 0.321,-0.362 0.038,-0.813 -0.281,-1.087 -1.275,-0.188 -3.402,0.062 -3.282,-1.922 -0.142,0 -0.324,0.042 -0.412,-0.145 -0.725,0.503 -0.37,1.645 -0.27,2.341 C -3.29,0.278 -1.506,-0.043 0,0" /></g><g
           transform="translate(133.7979,36.567)"
           id="g64"><path
             id="path66"
             style="fill:#f79e23;fill-opacity:1;fill-rule:nonzero;stroke:none"
             d="m 0,0 c 0.088,-0.732 -0.453,-1.143 -0.962,-1.644 -0.321,-0.047 -0.779,0 -0.827,0.411 -0.128,0.674 0.136,1.454 0.827,1.508 C -0.599,0.221 -0.184,0.451 0,0" /></g><g
           transform="translate(29.5795,35.7394)"
           id="g68"><path
             id="path70"
             style="fill:#f79e23;fill-opacity:1;fill-rule:nonzero;stroke:none"
             d="M 0,0 C 0.039,-0.592 0.088,-1.595 -0.828,-1.498 -1.094,-0.135 -3.725,-0.463 -4.264,0.55 -3.081,0.667 -0.458,1.19 0,0" /></g><g
           transform="translate(138.6477,27.1227)"
           id="g72"><path
             id="path74"
             style="fill:#f79e23;fill-opacity:1;fill-rule:nonzero;stroke:none"
             d="m 0,0 v -25.471 l -0.281,-0.296 h -9.718 l -0.274,0.272 V 0.141 l 0.386,0.243 9.606,0.029 z" /></g><g
           transform="translate(42.9416,27.5533)"
           id="g76"><path
             id="path78"
             style="fill:#f79e23;fill-opacity:1;fill-rule:nonzero;stroke:none"
             d="m 0,0 v -7.527 h 4.296 v 7.504 l 10.948,0.019 0.274,-0.28 0.018,-25.495 -0.276,-0.404 H 4.276 v 8.148 H 0 v -8.148 h -10.766 l -0.269,0.265 V -0.4 l 0.407,0.4 z" /></g><g
           transform="translate(20.1311,27.5306)"
           id="g80"><path
             id="path82"
             style="fill:#f79e23;fill-opacity:1;fill-rule:nonzero;stroke:none"
             d="m 0,0 c 3.694,-1.013 6.348,-4.703 7.118,-8.364 0.778,-4.151 -1.275,-7.666 -4.114,-10.264 0.69,-0.914 4.395,-5.754 4.395,-5.754 L 3.828,-27.53 h -7.442 l -6.213,6.672 0.019,-5.035 -0.54,-0.268 h -9.376 l -0.407,0.404 v 25.495 l 0.272,0.282 z m -4.157,-12.769 c 0.817,0 1.455,0.658 1.455,1.46 0,0.803 -0.638,1.502 -1.455,1.502 h -5.67 v -2.944 z" /></g><g
           transform="translate(160.7741,27.5533)"
           id="g84"><path
             id="path86"
             style="fill:#f79e23;fill-opacity:1;fill-rule:nonzero;stroke:none"
             d="m 0,0 11.642,-25.983 -0.398,-0.2 H 0.571 l -4.63,9.812 -3.755,-9.812 h -10.494 l -0.297,0.509 L -8.666,0 Z" /></g><g
           transform="translate(158.661,1.3697)"
           id="g88"><path
             id="path90"
             style="fill:#f79e23;fill-opacity:1;fill-rule:nonzero;stroke:none"
             d="m 0,0 h -3.362 l 1.498,3.829 z" /></g><g
           transform="translate(62.9124,14.78)"
           id="g92"><path
             id="path94"
             style="fill:#f79e23;fill-opacity:1;fill-rule:nonzero;stroke:none"
             d="m 0,0 c 0,7.619 6.753,13.793 15.091,13.793 8.333,0 15.094,-6.174 15.094,-13.793 0,-7.627 -6.761,-13.801 -15.094,-13.801 C 6.753,-13.801 0,-7.627 0,0 m 16.553,-2.936 c 1.605,0 2.908,1.311 2.908,2.911 0,1.613 -1.303,3.003 -2.908,3.003 h -3.202 c -1.615,0 -2.916,-1.39 -2.916,-3.003 0,-1.6 1.301,-2.911 2.916,-2.911 z" /></g><g
           transform="translate(97.5082,1.329)"
           id="g96"><path
             id="path98"
             style="fill:#f79e23;fill-opacity:1;fill-rule:nonzero;stroke:none"
             d="m 0,0 -0.408,0.411 v 25.355 l 0.537,0.412 18.294,0.074 c 5.076,-2.034 8.654,-7.004 8.654,-12.801 0,-6.671 -4.728,-12.239 -11.014,-13.528 z m 13.909,10.516 c 1.607,0 2.916,1.31 2.916,2.909 0,1.614 -1.309,3.004 -2.916,3.004 H 9.915 v -5.913 z" /></g><g
           transform="translate(153.3723,69.8885)"
           id="g100"><path
             id="path102"
             style="fill:#f79e23;fill-opacity:1;fill-rule:nonzero;stroke:none"
             d="M 0,0 C 0,1.808 1.425,3.232 3.229,3.232 5.044,3.232 6.467,1.808 6.467,0 6.467,-1.792 5.044,-3.229 3.229,-3.229 1.425,-3.229 0,-1.792 0,0 m 0.518,0 c 0,-1.513 1.226,-2.696 2.711,-2.696 1.474,0 2.715,1.183 2.715,2.696 0,1.533 -1.241,2.703 -2.715,2.703 C 1.744,2.703 0.518,1.533 0.518,0 M 4.703,-1.837 H 4.107 L 3.181,-0.166 H 2.511 V -1.837 H 1.971 V 1.79 h 1.54 c 0.648,0 1.238,-0.191 1.238,-0.954 0,-0.716 -0.475,-0.97 -0.954,-1.002 z M 2.511,1.267 V 0.371 H 3.06 c 0.501,0 1.168,-0.09 1.168,0.404 0,0.462 -0.381,0.492 -0.813,0.492 z" /></g></g></g></g></svg>